mtllib derrick.mtl

o derrick_normal
v -2 0 3
v -2 0.5 3
v -2 0.5 -2
v -2 0 -2
v 3 0.5 -2
v 3 0 -2
v 3 0.5 3
v 3 0 3
v -1.874998 0.500001 -0.874999
v -1.874998 0.500001 -0.749999
v -1.874998 1 -0.749999
v -1.874998 1 -0.874999
v -1.624998 0.500001 -0.749999
v -1.624998 1 -0.749999
v -1.624998 0.500001 -0.874999
v -1.624998 1 -0.874999
v -1.999998 1 -0.999999
v -1.999998 1.000001 0.000001
v -1.999998 2.000001 0.000001
v -1.999998 2 -0.999999
v -1.499998 1.000001 0.000001
v -1.499998 2.000001 0.000001
v -1.499998 1 -0.999999
v -1.499998 2 -0.999999
v -1.874998 0.500001 -0.249999
v -1.874998 0.500001 -0.124999
v -1.874998 1.000001 -0.124999
v -1.874998 1.000001 -0.249999
v -1.624998 0.500001 -0.124999
v -1.624998 1.000001 -0.124999
v -1.624998 0.500001 -0.249999
v -1.624998 1.000001 -0.249999
v 1.75 0.5 2
v 1.75 4 2
v 1.75 4 1.75
v 1.75 0.5 1.75
v 2 4 1.75
v 2 0.5 1.75
v 2 4 2
v 2 0.5 2
v -1 0.5 2
v -1 4 2
v -1 4 1.75
v -1 0.5 1.75
v -0.75 4 1.75
v -0.75 0.5 1.75
v -0.75 4 2
v -0.75 0.5 2
v 1.75 0.5 -0.75
v 1.75 4 -0.75
v 1.75 4 -1
v 1.75 0.5 -1
v 2 4 -1
v 2 0.5 -1
v 2 4 -0.75
v 2 0.5 -0.75
v -1 0.5 -0.75
v -1 4 -0.75
v -1 4 -1
v -1 0.5 -1
v -0.75 4 -1
v -0.75 0.5 -1
v -0.75 4 -0.75
v -0.75 0.5 -0.75
v -1 0.5 0.125
v -1 3 0.125
v -1 3 0.875
v -1 0.5 0.875
v -1.0625 3 0.875
v -1.0625 0.5 0.875
v -1.0625 3 0.125
v -1.0625 0.5 0.125
v -1 3 0.0625
v -1 4 0.0625
v -1 4 -0.75
v -1 3 -0.75
v -0.9375 3 0.0625
v -0.9375 3 -0.75
v -0.9375 4 -0.75
v -0.9375 4 0.0625
v -1 4 0.9375
v -1 4 1.75
v -0.9375 4 1.75
v -0.9375 4 0.9375
v 1.75 4 -1
v -0.75 4 -1
v -0.75 4 -0.9375
v 1.75 4 -0.9375
v -0.75 3 -1
v 1.75 3 -1
v -0.75 3 -0.9375
v 1.75 3 -0.9375
v 2 3 -0.75
v 2 4 -0.75
v 2 4 1.75
v 2 3 1.75
v 1.9375 3 -0.75
v 1.9375 3 1.75
v 1.9375 4 1.75
v 1.9375 4 -0.75
v -0.9375 3 1.75
v -0.9375 3 0.9375
v -1 3 0.9375
v -1 3 1.75
v -1 2.5 2
v -1 3 2
v -1 3 -1
v -1 2.5 -1
v 2 3 -1
v 2 2.5 -1
v 2 3 2
v 2 2.5 2
v -0.25 0.5 1.25
v -0.25 1 1.25
v -0.25 1 -0.25
v -0.25 0.5 -0.25
v 1.25 1 -0.25
v 1.25 0.5 -0.25
v 1.25 1 1.25
v 1.25 0.5 1.25
v 2 0.5 1
v 2 1 1
v 2 1 0
v 2 0.5 0
v 3 1 0
v 3 0.5 0
v 3 1 1
v 3 0.5 1
v -0.5 0.5 3
v -0.5 1 3
v -0.5 1 2
v -0.5 0.5 2
v 1.5 1 2
v 1.5 0.5 2
v 1.5 1 3
v 1.5 0.5 3
v 0.3125 0.5 2
v 0.3125 0.875 2
v 0.3125 0.875 1.25
v 0.3125 0.5 1.25
v 0.6875 0.5 1.25
v 0.6875 0.875 1.25
v 0.6875 0.875 2
v 0.6875 0.5 2
v 2 0.5 0.6875
v 2 0.875 0.6875
v 1.25 0.875 0.6875
v 1.25 0.5 0.6875
v 1.25 0.5 0.3125
v 1.25 0.875 0.3125
v 2 0.875 0.3125
v 2 0.5 0.3125
v 0.625 0.5 -0.25
v 0.625 0.75 -0.25
v 0.625 0.75 -1
v 0.625 0.5 -1
v 0.375 0.75 -1
v 0.125 0.75 -1
v 0.125 0.75 -0.25
v 0.375 0.75 -0.25
v 0.875 0.5 -1
v 0.875 0.75 -1
v 0.875 0.75 -0.25
v 0.875 0.5 -0.25
v 0.375 0.5 -1
v 0.375 0.5 -0.25
v 0.125 0.5 -0.25
v 0.125 0.5 -1
v -0.75 0.5 -1
v -0.75 2 -1
v -0.75 2 -2
v -0.75 0.5 -2
v 1.75 2 -2
v 1.75 0.5 -2
v 1.75 2 -1
v 1.75 0.5 -1
v -0.25 0.5 0.8125
v -1 0.5 0.8125
v -1 0.5 0.1875
v -0.25 0.5 0.1875
v -1 1.125 0.1875
v -0.25 1.125 0.1875
v -1 1.125 0.8125
v -0.25 1.125 0.8125
v 1.75 3 2
v 1.75 4 2
v -0.75 4 2
v -0.75 3 2
v 1.75 3 1.9375
v -0.75 3 1.9375
v -0.75 4 1.9375
v 1.75 4 1.9375
v -1 2.5 2
v -1 2.5 -1
v -1 3 -1
v -1 3 2
v 2 2.5 -1
v 2 3 -1
v 2 2.5 2
v 2 3 2
vt 0.416667 0.541667
vt 0.416667 0.583333
vt 0 0.583333
vt 0 0.541667
vt 0.416667 0.541667
vt 0.416667 0.583333
vt 0 0.583333
vt 0 0.541667
vt 0.416667 0
vt 0.416667 0.04166700000000012
vt 0 0.04166700000000012
vt 0 0
vt 0.416667 0.5
vt 0.416667 0.541667
vt 0 0.541667
vt 0 0.5
vt 0.416667 0.583333
vt 0.833333 0.583333
vt 0.833333 1
vt 0.416667 1
vt 0.416667 1
vt 0 1
vt 0 0.583333
vt 0.416667 0.583333
vt 0.260417 0.375
vt 0.270833 0.375
vt 0.270833 0.333333
vt 0.260417 0.333333
vt 0.291667 0.333333
vt 0.270833 0.333333
vt 0.270833 0.375
vt 0.291667 0.375
vt 0.260417 0.375
vt 0.270833 0.375
vt 0.270833 0.333333
vt 0.260417 0.333333
vt 0.291667 0.333333
vt 0.270833 0.333333
vt 0.270833 0.375
vt 0.291667 0.375
vt 0.375 0.333333
vt 0.291667 0.333333
vt 0.291667 0.416667
vt 0.375 0.416667
vt 0.25 0.25
vt 0.208333 0.25
vt 0.208333 0.333333
vt 0.25 0.333333
vt 0.291667 0.25
vt 0.208333 0.25
vt 0.208333 0.333333
vt 0.291667 0.333333
vt 0.291667 0.25
vt 0.25 0.25
vt 0.25 0.333333
vt 0.291667 0.333333
vt 0.291667 0.291667
vt 0.208333 0.291667
vt 0.208333 0.333333
vt 0.291667 0.333333
vt 0.291667 0.25
vt 0.208333 0.25
vt 0.208333 0.291667
vt 0.291667 0.291667
vt 0.260417 0.375
vt 0.270833 0.375
vt 0.270833 0.333333
vt 0.260417 0.333333
vt 0.291667 0.333333
vt 0.270833 0.333333
vt 0.270833 0.375
vt 0.291667 0.375
vt 0.260417 0.375
vt 0.270833 0.375
vt 0.270833 0.333333
vt 0.260417 0.333333
vt 0.291667 0.333333
vt 0.270833 0.333333
vt 0.270833 0.375
vt 0.291667 0.375
vt 0.135417 0.208333
vt 0.135417 0.5
vt 0.114583 0.5
vt 0.114583 0.208333
vt 0.135417 0.208333
vt 0.135417 0.5
vt 0.114583 0.5
vt 0.114583 0.208333
vt 0.135417 0.208333
vt 0.135417 0.5
vt 0.114583 0.5
vt 0.114583 0.208333
vt 0.135417 0.208333
vt 0.135417 0.5
vt 0.114583 0.5
vt 0.114583 0.208333
vt 0.114583 0.208333
vt 0.114583 0.1875
vt 0.135417 0.1875
vt 0.135417 0.208333
vt 0.135417 0.208333
vt 0.114583 0.208333
vt 0.114583 0.1875
vt 0.135417 0.1875
vt 0.135417 0.208333
vt 0.135417 0.5
vt 0.114583 0.5
vt 0.114583 0.208333
vt 0.135417 0.208333
vt 0.135417 0.5
vt 0.114583 0.5
vt 0.114583 0.208333
vt 0.135417 0.208333
vt 0.135417 0.5
vt 0.114583 0.5
vt 0.114583 0.208333
vt 0.135417 0.208333
vt 0.135417 0.5
vt 0.114583 0.5
vt 0.114583 0.208333
vt 0.114583 0.208333
vt 0.114583 0.1875
vt 0.135417 0.1875
vt 0.135417 0.208333
vt 0.135417 0.208333
vt 0.114583 0.208333
vt 0.114583 0.1875
vt 0.135417 0.1875
vt 0.135417 0.208333
vt 0.135417 0.5
vt 0.114583 0.5
vt 0.114583 0.208333
vt 0.135417 0.208333
vt 0.135417 0.5
vt 0.114583 0.5
vt 0.114583 0.208333
vt 0.135417 0.208333
vt 0.135417 0.5
vt 0.114583 0.5
vt 0.114583 0.208333
vt 0.135417 0.208333
vt 0.135417 0.5
vt 0.114583 0.5
vt 0.114583 0.208333
vt 0.114583 0.208333
vt 0.114583 0.1875
vt 0.135417 0.1875
vt 0.135417 0.208333
vt 0.135417 0.208333
vt 0.114583 0.208333
vt 0.114583 0.1875
vt 0.135417 0.1875
vt 0.135417 0.208333
vt 0.135417 0.5
vt 0.114583 0.5
vt 0.114583 0.208333
vt 0.135417 0.208333
vt 0.135417 0.5
vt 0.114583 0.5
vt 0.114583 0.208333
vt 0.135417 0.208333
vt 0.135417 0.5
vt 0.114583 0.5
vt 0.114583 0.208333
vt 0.135417 0.208333
vt 0.135417 0.5
vt 0.114583 0.5
vt 0.114583 0.208333
vt 0.114583 0.208333
vt 0.114583 0.1875
vt 0.135417 0.1875
vt 0.135417 0.208333
vt 0.135417 0.208333
vt 0.114583 0.208333
vt 0.114583 0.1875
vt 0.135417 0.1875
vt 0.520833 0.04166700000000001
vt 0.520833 0.25
vt 0.583333 0.25
vt 0.583333 0.04166700000000001
vt 0.583333 0.04166700000000001
vt 0.583333 0.25
vt 0.578125 0.25
vt 0.578125 0.04166700000000001
vt 0.583333 0.04166700000000001
vt 0.583333 0.25
vt 0.520833 0.25
vt 0.520833 0.04166700000000001
vt 0.526042 0.04166700000000001
vt 0.526042 0.25
vt 0.520833 0.25
vt 0.520833 0.04166700000000001
vt 0.578125 0.177083
vt 0.583333 0.177083
vt 0.583333 0.25
vt 0.578125 0.25
vt 0 0.22395833333333237
vt 0.08333333333333333 0.22395833333333237
vt 0.08333333333333333 0.15625033333333238
vt 0 0.15625033333333238
vt 0 0.22395866666666575
vt 0 0.29166666666666585
vt 0.08333333333333333 0.29166666666666585
vt 0.08333333333333333 0.22395866666666575
vt 0.083333 0.359375
vt 0.083333 0.291667
vt 0.078125 0.291667
vt 0.078125 0.359375
vt 0.083333 0.5
vt 0.083333 0.291667
vt 0.078125 0.291667
vt 0.078125 0.5
vt 0 0.5
vt 0.08333333333333333 0.5
vt 0.08333333333333333 0.291667
vt 0 0.291667
vt 0 0.291667
vt 0 0.5
vt 0.08333333333333333 0.5
vt 0.08333333333333333 0.291667
vt 0 0.5
vt 0.08333333333333333 0.5
vt 0.08333333333333333 0.291667
vt 0 0.291667
vt 0 0.291667
vt 0 0.5
vt 0.08333333333333333 0.5
vt 0.08333333333333333 0.291667
vt 0.083333 0.5
vt 0.083333 0.291667
vt 0.078125 0.291667
vt 0.078125 0.5
vt 0.083333 0.5
vt 0.083333 0.432292
vt 0.078125 0.432292
vt 0.078125 0.5
vt 0 0.1562503333333325
vt 0 0.22395833333333237
vt 0.08333333333333333 0.22395833333333237
vt 0.08333333333333333 0.1562503333333325
vt 0.005208 0.432292
vt 0 0.432292
vt 0 0.359375
vt 0.005208 0.359375
vt 0 0.2916666666666671
vt 0.08333333333333333 0.2916666666666671
vt 0.08333333333333333 0.2239586666666672
vt 0 0.2239586666666672
vt 0.005208 0.359375
vt 0.005208 0.432292
vt 0 0.432292
vt 0 0.359375
vt 0.625 0.458333
vt 0.625 0.416667
vt 0.375 0.416667
vt 0.375 0.458333
vt 0.625 0.458333
vt 0.625 0.416667
vt 0.375 0.416667
vt 0.375 0.458333
vt 0.625 0.458333
vt 0.625 0.416667
vt 0.375 0.416667
vt 0.375 0.458333
vt 0.625 0.458333
vt 0.625 0.416667
vt 0.375 0.416667
vt 0.375 0.458333
vt 0.833333 0.25
vt 0.833333 0
vt 0.583333 0
vt 0.583333 0.25
vt 0.833333 0
vt 0.833333 0.25
vt 0.583333 0.25
vt 0.583333 0
vt 0.260417 0.333333
vt 0.260417 0.375
vt 0.135417 0.375
vt 0.135417 0.333333
vt 0.260417 0.333333
vt 0.260417 0.375
vt 0.135417 0.375
vt 0.135417 0.333333
vt 0.260417 0.333333
vt 0.260417 0.375
vt 0.135417 0.375
vt 0.135417 0.333333
vt 0.260417 0.333333
vt 0.260417 0.375
vt 0.135417 0.375
vt 0.135417 0.333333
vt 0.260417 0.5
vt 0.135417 0.5
vt 0.135417 0.375
vt 0.260417 0.375
vt 0.291667 0.286458
vt 0.291667 0.333333
vt 0.208333 0.333333
vt 0.208333 0.286458
vt 0.291667 0.286458
vt 0.291667 0.333333
vt 0.208333 0.333333
vt 0.208333 0.286458
vt 0.541667 0.375
vt 0.541667 0.416667
vt 0.625 0.416667
vt 0.625 0.375
vt 0.291667 0.286458
vt 0.291667 0.333333
vt 0.208333 0.333333
vt 0.208333 0.286458
vt 0.291667 0.333333
vt 0.208333 0.333333
vt 0.208333 0.25
vt 0.291667 0.25
vt 0.291667 0.29166666666666663
vt 0.291667 0.333333
vt 0.375 0.333333
vt 0.375 0.29166666666666663
vt 0.375 0.3749996666666666
vt 0.375 0.416667
vt 0.541667 0.416667
vt 0.541667 0.3749996666666666
vt 0.291667 0.29166666666666663
vt 0.291667 0.333333
vt 0.375 0.333333
vt 0.375 0.29166666666666663
vt 0.541667 0.24999999999999967
vt 0.541667 0.291666333333333
vt 0.375 0.291666333333333
vt 0.375 0.24999999999999967
vt 0.375 0.416667
vt 0.541667 0.416667
vt 0.541667 0.333333
vt 0.375 0.333333
vt 0.46875 0.479167
vt 0.4375 0.479167
vt 0.4375 0.541667
vt 0.46875 0.541667
vt 0.4375 0.541667
vt 0.46875 0.541667
vt 0.46875 0.479167
vt 0.4375 0.479167
vt 0.4375 0.541667
vt 0.46875 0.541667
vt 0.46875 0.479167
vt 0.4375 0.479167
vt 0.46875 0.479167
vt 0.4375 0.479167
vt 0.4375 0.541667
vt 0.46875 0.541667
vt 0.4375 0.541667
vt 0.46875 0.541667
vt 0.46875 0.479167
vt 0.4375 0.479167
vt 0.4375 0.541667
vt 0.46875 0.541667
vt 0.46875 0.479167
vt 0.4375 0.479167
vt 0.4375 0.583333
vt 0.416667 0.583333
vt 0.416667 0.520833
vt 0.4375 0.520833
vt 0.416667 0.520833
vt 0.4375 0.520833
vt 0.4375 0.583333
vt 0.416667 0.583333
vt 0.416667 0.520833
vt 0.4375 0.520833
vt 0.4375 0.583333
vt 0.416667 0.583333
vt 0.416667 0.520833
vt 0.4375 0.520833
vt 0.4375 0.583333
vt 0.416667 0.583333
vt 0.4375 0.583333
vt 0.416667 0.583333
vt 0.416667 0.520833
vt 0.4375 0.520833
vt 0.416667 0.520833
vt 0.4375 0.520833
vt 0.4375 0.583333
vt 0.416667 0.583333
vt 0.625 0.25
vt 0.625 0.375
vt 0.541667 0.375
vt 0.541667 0.25
vt 0.833333 0.25
vt 0.833333 0.375
vt 0.625 0.375
vt 0.625 0.25
vt 0.625 0.25
vt 0.625 0.375
vt 0.541667 0.375
vt 0.541667 0.25
vt 0.833333 0.458333
vt 0.833333 0.583333
vt 0.625 0.583333
vt 0.625 0.458333
vt 0.625 0.375
vt 0.833333 0.375
vt 0.833333 0.458333
vt 0.625 0.458333
vt 0.520833 0.46875
vt 0.520833 0.53125
vt 0.46875 0.53125
vt 0.46875 0.46875
vt 0.520833 0.46875
vt 0.520833 0.53125
vt 0.46875 0.53125
vt 0.46875 0.46875
vt 0.520833 0.46875
vt 0.520833 0.53125
vt 0.46875 0.53125
vt 0.46875 0.46875
vt 0.520833 0.46875
vt 0.520833 0.53125
vt 0.46875 0.53125
vt 0.46875 0.46875
vt 0.46875 0.583333
vt 0.46875 0.53125
vt 0.520833 0.53125
vt 0.520833 0.583333
vt 0.520833 0.583333
vt 0.46875 0.583333
vt 0.46875 0.53125
vt 0.520833 0.53125
vt 0 0.5
vt 0.08333333333333333 0.5
vt 0.08333333333333333 0.291667
vt 0 0.291667
vt 0 0.291667
vt 0 0.5
vt 0.08333333333333333 0.5
vt 0.08333333333333333 0.291667
vt 0.083333 0.5
vt 0.083333 0.291667
vt 0.078125 0.291667
vt 0.078125 0.5
vt 0.625 0.458333
vt 0.375 0.458333
vt 0.375 0.416667
vt 0.625 0.416667
vt 0.625 0.458333
vt 0.375 0.458333
vt 0.375 0.416667
vt 0.625 0.416667
vt 0.625 0.458333
vt 0.375 0.458333
vt 0.375 0.416667
vt 0.625 0.416667
vt 0.625 0.458333
vt 0.375 0.458333
vt 0.375 0.416667
vt 0.625 0.416667
vt 0.833333 0.25
vt 0.583333 0.25
vt 0.583333 0
vt 0.833333 0
vt 0.833333 0
vt 0.583333 0
vt 0.583333 0.25
vt 0.833333 0.25
vn -1 0 0
vn 0 0 -1
vn 1 0 0
vn 0 0 1
vn 0 -1 0
vn 0 1 0
vn -1 0 0
vn 0 0 1
vn 1 0 0
vn 0 0 -1
vn -1 0 0
vn 0 0 1
vn 1 0 0
vn 0 0 -1
vn 0 -0.9999999999995002 9.999999999172336e-7
vn 0 0.9999999999995002 -0.0000010000000001392782
vn -1 0 0
vn 0 0 1
vn 1 0 0
vn 0 0 -1
vn -1 0 0
vn 0 0 -1
vn 1 0 0
vn 0 0 1
vn 0 -1 0
vn 0 1 0
vn -1 0 0
vn 0 0 -1
vn 1 0 0
vn 0 0 1
vn 0 -1 0
vn 0 1 0
vn -1 0 0
vn 0 0 -1
vn 1 0 0
vn 0 0 1
vn 0 -1 0
vn 0 1 0
vn -1 0 0
vn 0 0 -1
vn 1 0 0
vn 0 0 1
vn 0 -1 0
vn 0 1 0
vn 1 0 0
vn 0 0 1
vn -1 0 0
vn 0 0 -1
vn 0 1 0
vn -1 0 0
vn 1 0 0
vn 0 1 0
vn 0 1 0
vn 0 0 -1
vn 0 0 1
vn 1 0 0
vn -1 0 0
vn 0 1 0
vn 0 1 0
vn 1 0 0
vn 0 0 -1
vn -1 0 0
vn 0 0 1
vn -1 0 0
vn 0 0 -1
vn 1 0 0
vn 0 0 1
vn 0 -1 0
vn 0 1 0
vn -1 0 0
vn 0 0 -1
vn 1 0 0
vn 0 0 1
vn 0 1 0
vn -1 0 0
vn 0 0 -1
vn 1 0 0
vn 0 0 1
vn 0 1 0
vn -1 0 0
vn 0 0 -1
vn 1 0 0
vn 0 0 1
vn 0 1 0
vn -1 0 0
vn 1 0 0
vn 0 1 0
vn 0 0 1
vn 0 0 -1
vn 0 1 0
vn -1 0 0
vn 0 1 0
vn 1 0 0
vn 1 0 0
vn -1 0 0
vn 0 1 0
vn -1 0 0
vn 0 0 -1
vn 1 0 0
vn 0 0 1
vn 0 1 0
vn 0 -1 0
vn 0 0 -1
vn 0 1 0
vn 0 0 1
vn 1 0 0
vn -1 0 0
vn 0 0 1
vn 0 0 -1
vn 0 1 0
vn 1 0 0
vn 0 0 1
vn -1 0 0
vn 0 0 -1
vn 0 1 0
vn 0 -1 0
usemtl None
f 1/1/1 2/2/1 3/3/1 4/4/1
f 4/5/2 3/6/2 5/7/2 6/8/2
f 6/9/3 5/10/3 7/11/3 8/12/3
f 8/13/4 7/14/4 2/15/4 1/16/4
f 4/17/5 6/18/5 8/19/5 1/20/5
f 5/21/6 3/22/6 2/23/6 7/24/6
f 9/25/7 10/26/7 11/27/7 12/28/7
f 10/29/8 13/30/8 14/31/8 11/32/8
f 13/33/9 15/34/9 16/35/9 14/36/9
f 15/37/10 9/38/10 12/39/10 16/40/10
f 17/41/11 18/42/11 19/43/11 20/44/11
f 18/45/12 21/46/12 22/47/12 19/48/12
f 21/49/13 23/50/13 24/51/13 22/52/13
f 23/53/14 17/54/14 20/55/14 24/56/14
f 18/57/15 17/58/15 23/59/15 21/60/15
f 22/61/16 24/62/16 20/63/16 19/64/16
f 25/65/17 26/66/17 27/67/17 28/68/17
f 26/69/18 29/70/18 30/71/18 27/72/18
f 29/73/19 31/74/19 32/75/19 30/76/19
f 31/77/20 25/78/20 28/79/20 32/80/20
f 33/81/21 34/82/21 35/83/21 36/84/21
f 36/85/22 35/86/22 37/87/22 38/88/22
f 38/89/23 37/90/23 39/91/23 40/92/23
f 40/93/24 39/94/24 34/95/24 33/96/24
f 36/97/25 38/98/25 40/99/25 33/100/25
f 37/101/26 35/102/26 34/103/26 39/104/26
f 41/105/27 42/106/27 43/107/27 44/108/27
f 44/109/28 43/110/28 45/111/28 46/112/28
f 46/113/29 45/114/29 47/115/29 48/116/29
f 48/117/30 47/118/30 42/119/30 41/120/30
f 44/121/31 46/122/31 48/123/31 41/124/31
f 45/125/32 43/126/32 42/127/32 47/128/32
f 49/129/33 50/130/33 51/131/33 52/132/33
f 52/133/34 51/134/34 53/135/34 54/136/34
f 54/137/35 53/138/35 55/139/35 56/140/35
f 56/141/36 55/142/36 50/143/36 49/144/36
f 52/145/37 54/146/37 56/147/37 49/148/37
f 53/149/38 51/150/38 50/151/38 55/152/38
f 57/153/39 58/154/39 59/155/39 60/156/39
f 60/157/40 59/158/40 61/159/40 62/160/40
f 62/161/41 61/162/41 63/163/41 64/164/41
f 64/165/42 63/166/42 58/167/42 57/168/42
f 60/169/43 62/170/43 64/171/43 57/172/43
f 61/173/44 59/174/44 58/175/44 63/176/44
f 65/177/45 66/178/45 67/179/45 68/180/45
f 68/181/46 67/182/46 69/183/46 70/184/46
f 70/185/47 69/186/47 71/187/47 72/188/47
f 72/189/48 71/190/48 66/191/48 65/192/48
f 66/193/49 71/194/49 69/195/49 67/196/49
f 73/197/50 74/198/50 75/199/50 76/200/50
f 77/201/51 78/202/51 79/203/51 80/204/51
f 81/205/52 82/206/52 83/207/52 84/208/52
f 85/209/53 86/210/53 87/211/53 88/212/53
f 89/213/54 86/214/54 85/215/54 90/216/54
f 91/217/55 92/218/55 88/219/55 87/220/55
f 93/221/56 94/222/56 95/223/56 96/224/56
f 97/225/57 98/226/57 99/227/57 100/228/57
f 95/229/58 94/230/58 100/231/58 99/232/58
f 75/233/59 74/234/59 80/235/59 79/236/59
f 101/237/60 102/238/60 84/239/60 83/240/60
f 102/241/61 103/242/61 81/243/61 84/244/61
f 104/245/62 82/246/62 81/247/62 103/248/62
f 77/249/63 80/250/63 74/251/63 73/252/63
f 105/253/64 106/254/64 107/255/64 108/256/64
f 108/257/65 107/258/65 109/259/65 110/260/65
f 110/261/66 109/262/66 111/263/66 112/264/66
f 112/265/67 111/266/67 106/267/67 105/268/67
f 108/269/68 110/270/68 112/271/68 105/272/68
f 109/273/69 107/274/69 106/275/69 111/276/69
f 113/277/70 114/278/70 115/279/70 116/280/70
f 116/281/71 115/282/71 117/283/71 118/284/71
f 118/285/72 117/286/72 119/287/72 120/288/72
f 120/289/73 119/290/73 114/291/73 113/292/73
f 117/293/74 115/294/74 114/295/74 119/296/74
f 121/297/75 122/298/75 123/299/75 124/300/75
f 124/301/76 123/302/76 125/303/76 126/304/76
f 126/305/77 125/306/77 127/307/77 128/308/77
f 128/309/78 127/310/78 122/311/78 121/312/78
f 125/313/79 123/314/79 122/315/79 127/316/79
f 129/317/80 130/318/80 131/319/80 132/320/80
f 132/321/81 131/322/81 133/323/81 134/324/81
f 134/325/82 133/326/82 135/327/82 136/328/82
f 136/329/83 135/330/83 130/331/83 129/332/83
f 133/333/84 131/334/84 130/335/84 135/336/84
f 137/337/85 138/338/85 139/339/85 140/340/85
f 141/341/86 142/342/86 143/343/86 144/344/86
f 142/345/87 139/346/87 138/347/87 143/348/87
f 145/349/88 146/350/88 147/351/88 148/352/88
f 149/353/89 150/354/89 151/355/89 152/356/89
f 150/357/90 147/358/90 146/359/90 151/360/90
f 153/361/91 154/362/91 155/363/91 156/364/91
f 157/365/92 158/366/92 159/367/92 160/368/92
f 161/369/93 162/370/93 163/371/93 164/372/93
f 165/373/94 157/374/94 160/375/94 166/376/94
f 167/377/95 159/378/95 158/379/95 168/380/95
f 162/381/96 155/382/96 154/383/96 163/384/96
f 169/385/97 170/386/97 171/387/97 172/388/97
f 172/389/98 171/390/98 173/391/98 174/392/98
f 174/393/99 173/394/99 175/395/99 176/396/99
f 176/397/100 175/398/100 170/399/100 169/400/100
f 173/401/101 171/402/101 170/403/101 175/404/101
f 177/405/102 178/406/102 179/407/102 180/408/102
f 180/409/103 179/410/103 181/411/103 182/412/103
f 182/413/104 181/414/104 183/415/104 184/416/104
f 184/417/105 183/418/105 178/419/105 177/420/105
f 180/421/106 182/422/106 184/423/106 177/424/106
f 181/425/107 179/426/107 178/427/107 183/428/107
f 185/429/108 186/430/108 187/431/108 188/432/108
f 189/433/109 190/434/109 191/435/109 192/436/109
f 187/437/110 186/438/110 192/439/110 191/440/110
f 193/441/111 194/442/111 195/443/111 196/444/111
f 194/445/112 197/446/112 198/447/112 195/448/112
f 197/449/113 199/450/113 200/451/113 198/452/113
f 199/453/114 193/454/114 196/455/114 200/456/114
f 194/457/115 193/458/115 199/459/115 197/460/115
f 198/461/116 200/462/116 196/463/116 195/464/116