mtllib derrick.mtl

o derrick_mirrored
v 3 0 3
v 3 0 -2
v 3 0.5 -2
v 3 0.5 3
v -2 0 -2
v -2 0.5 -2
v -2 0 3
v -2 0.5 3
v 2.874998 0.500001 -0.874999
v 2.874998 1 -0.874999
v 2.874998 1 -0.749999
v 2.874998 0.500001 -0.749999
v 2.624998 1 -0.749999
v 2.624998 0.500001 -0.749999
v 2.624998 1 -0.874999
v 2.624998 0.500001 -0.874999
v 2.999998 1 -0.999999
v 2.999998 2 -0.999999
v 2.999998 2.000001 0.000001
v 2.999998 1.000001 0.000001
v 2.499998 2.000001 0.000001
v 2.499998 1.000001 0.000001
v 2.499998 2 -0.999999
v 2.499998 1 -0.999999
v 2.874998 0.500001 -0.249999
v 2.874998 1.000001 -0.249999
v 2.874998 1.000001 -0.124999
v 2.874998 0.500001 -0.124999
v 2.624998 1.000001 -0.124999
v 2.624998 0.500001 -0.124999
v 2.624998 1.000001 -0.249999
v 2.624998 0.500001 -0.249999
v -0.75 0.5 2
v -0.75 0.5 1.75
v -0.75 4 1.75
v -0.75 4 2
v -1 0.5 1.75
v -1 4 1.75
v -1 0.5 2
v -1 4 2
v 2 0.5 2
v 2 0.5 1.75
v 2 4 1.75
v 2 4 2
v 1.75 0.5 1.75
v 1.75 4 1.75
v 1.75 0.5 2
v 1.75 4 2
v -0.75 0.5 -0.75
v -0.75 0.5 -1
v -0.75 4 -1
v -0.75 4 -0.75
v -1 0.5 -1
v -1 4 -1
v -1 0.5 -0.75
v -1 4 -0.75
v 2 0.5 -0.75
v 2 0.5 -1
v 2 4 -1
v 2 4 -0.75
v 1.75 0.5 -1
v 1.75 4 -1
v 1.75 0.5 -0.75
v 1.75 4 -0.75
v 2 0.5 0.125
v 2 0.5 0.875
v 2 3 0.875
v 2 3 0.125
v 2.0625 0.5 0.875
v 2.0625 3 0.875
v 2.0625 0.5 0.125
v 2.0625 3 0.125
v 2 3 0.0625
v 2 3 -0.75
v 2 4 -0.75
v 2 4 0.0625
v 1.9375 3 0.0625
v 1.9375 4 0.0625
v 1.9375 4 -0.75
v 1.9375 3 -0.75
v 2 4 0.9375
v 1.9375 4 0.9375
v 1.9375 4 1.75
v 2 4 1.75
v -0.75 4 -1
v -0.75 4 -0.9375
v 1.75 4 -0.9375
v 1.75 4 -1
v 1.75 3 -1
v -0.75 3 -1
v 1.75 3 -0.9375
v -0.75 3 -0.9375
v -1 3 -0.75
v -1 3 1.75
v -1 4 1.75
v -1 4 -0.75
v -0.9375 3 -0.75
v -0.9375 4 -0.75
v -0.9375 4 1.75
v -0.9375 3 1.75
v 1.9375 3 1.75
v 1.9375 3 0.9375
v 2 3 0.9375
v 2 3 1.75
v 2 2.5 2
v 2 2.5 -1
v 2 3 -1
v 2 3 2
v -1 2.5 -1
v -1 3 -1
v -1 2.5 2
v -1 3 2
v 1.25 0.5 1.25
v 1.25 0.5 -0.25
v 1.25 1 -0.25
v 1.25 1 1.25
v -0.25 0.5 -0.25
v -0.25 1 -0.25
v -0.25 0.5 1.25
v -0.25 1 1.25
v -1 0.5 1
v -1 0.5 0
v -1 1 0
v -1 1 1
v -2 0.5 0
v -2 1 0
v -2 0.5 1
v -2 1 1
v 1.5 0.5 3
v 1.5 0.5 2
v 1.5 1 2
v 1.5 1 3
v -0.5 0.5 2
v -0.5 1 2
v -0.5 0.5 3
v -0.5 1 3
v 0.6875 0.5 2
v 0.6875 0.5 1.25
v 0.6875 0.875 1.25
v 0.6875 0.875 2
v 0.3125 0.5 1.25
v 0.3125 0.5 2
v 0.3125 0.875 2
v 0.3125 0.875 1.25
v -1 0.5 0.6875
v -0.25 0.5 0.6875
v -0.25 0.875 0.6875
v -1 0.875 0.6875
v -0.25 0.5 0.3125
v -1 0.5 0.3125
v -1 0.875 0.3125
v -0.25 0.875 0.3125
v 0.375 0.5 -0.25
v 0.375 0.5 -1
v 0.375 0.75 -1
v 0.375 0.75 -0.25
v 0.625 0.75 -1
v 0.625 0.75 -0.25
v 0.875 0.75 -0.25
v 0.875 0.75 -1
v 0.125 0.5 -1
v 0.125 0.5 -0.25
v 0.125 0.75 -0.25
v 0.125 0.75 -1
v 0.625 0.5 -1
v 0.625 0.5 -0.25
v 0.875 0.5 -0.25
v 0.875 0.5 -1
v 1.75 0.5 -1
v 1.75 0.5 -2
v 1.75 2 -2
v 1.75 2 -1
v -0.75 0.5 -2
v -0.75 2 -2
v -0.75 0.5 -1
v -0.75 2 -1
v 1.25 0.5 0.8125
v 1.25 0.5 0.1875
v 2 0.5 0.1875
v 2 0.5 0.8125
v 1.25 1.125 0.1875
v 2 1.125 0.1875
v 1.25 1.125 0.8125
v 2 1.125 0.8125
v -0.75 3 2
v 1.75 3 2
v 1.75 4 2
v -0.75 4 2
v -0.75 3 1.9375
v -0.75 4 1.9375
v 1.75 4 1.9375
v 1.75 3 1.9375
v 2 2.5 2
v 2 3 2
v 2 3 -1
v 2 2.5 -1
v -1 3 -1
v -1 2.5 -1
v -1 3 2
v -1 2.5 2
vt 0.416667 0.541667
vt 0 0.541667
vt 0 0.583333
vt 0.416667 0.583333
vt 0.416667 0.541667
vt 0 0.541667
vt 0 0.583333
vt 0.416667 0.583333
vt 0.41666699999999984 0
vt 0 0
vt 0 0.0416669999999999
vt 0.41666699999999984 0.0416669999999999
vt 0.416667 0.5
vt 0 0.5
vt 0 0.541667
vt 0.416667 0.541667
vt 0.416667 0.583333
vt 0.416667 1
vt 0.833333 1
vt 0.833333 0.583333
vt 0.416667 1
vt 0.416667 0.583333
vt 0 0.583333
vt 0 1
vt 0.260417 0.375
vt 0.260417 0.333333
vt 0.270833 0.333333
vt 0.270833 0.375
vt 0.291667 0.333333
vt 0.291667 0.375
vt 0.270833 0.375
vt 0.270833 0.333333
vt 0.260417 0.375
vt 0.260417 0.333333
vt 0.270833 0.333333
vt 0.270833 0.375
vt 0.291667 0.333333
vt 0.291667 0.375
vt 0.270833 0.375
vt 0.270833 0.333333
vt 0.375 0.333333
vt 0.375 0.416667
vt 0.291667 0.416667
vt 0.291667 0.333333
vt 0.25 0.25
vt 0.25 0.333333
vt 0.208333 0.333333
vt 0.208333 0.25
vt 0.291667 0.25
vt 0.291667 0.333333
vt 0.208333 0.333333
vt 0.208333 0.25
vt 0.291667 0.25
vt 0.291667 0.333333
vt 0.25 0.333333
vt 0.25 0.25
vt 0.291667 0.291667
vt 0.291667 0.333333
vt 0.208333 0.333333
vt 0.208333 0.291667
vt 0.291667 0.25
vt 0.291667 0.291667
vt 0.208333 0.291667
vt 0.208333 0.25
vt 0.260417 0.375
vt 0.260417 0.333333
vt 0.270833 0.333333
vt 0.270833 0.375
vt 0.291667 0.333333
vt 0.291667 0.375
vt 0.270833 0.375
vt 0.270833 0.333333
vt 0.260417 0.375
vt 0.260417 0.333333
vt 0.270833 0.333333
vt 0.270833 0.375
vt 0.291667 0.333333
vt 0.291667 0.375
vt 0.270833 0.375
vt 0.270833 0.333333
vt 0.135417 0.208333
vt 0.114583 0.208333
vt 0.114583 0.5
vt 0.135417 0.5
vt 0.135417 0.208333
vt 0.114583 0.208333
vt 0.114583 0.5
vt 0.135417 0.5
vt 0.135417 0.208333
vt 0.114583 0.208333
vt 0.114583 0.5
vt 0.135417 0.5
vt 0.135417 0.208333
vt 0.114583 0.208333
vt 0.114583 0.5
vt 0.135417 0.5
vt 0.114583 0.208333
vt 0.135417 0.208333
vt 0.135417 0.1875
vt 0.114583 0.1875
vt 0.135417 0.208333
vt 0.135417 0.1875
vt 0.114583 0.1875
vt 0.114583 0.208333
vt 0.135417 0.208333
vt 0.114583 0.208333
vt 0.114583 0.5
vt 0.135417 0.5
vt 0.135417 0.208333
vt 0.114583 0.208333
vt 0.114583 0.5
vt 0.135417 0.5
vt 0.135417 0.208333
vt 0.114583 0.208333
vt 0.114583 0.5
vt 0.135417 0.5
vt 0.135417 0.208333
vt 0.114583 0.208333
vt 0.114583 0.5
vt 0.135417 0.5
vt 0.114583 0.208333
vt 0.135417 0.208333
vt 0.135417 0.1875
vt 0.114583 0.1875
vt 0.135417 0.208333
vt 0.135417 0.1875
vt 0.114583 0.1875
vt 0.114583 0.208333
vt 0.135417 0.208333
vt 0.114583 0.208333
vt 0.114583 0.5
vt 0.135417 0.5
vt 0.135417 0.208333
vt 0.114583 0.208333
vt 0.114583 0.5
vt 0.135417 0.5
vt 0.135417 0.208333
vt 0.114583 0.208333
vt 0.114583 0.5
vt 0.135417 0.5
vt 0.135417 0.208333
vt 0.114583 0.208333
vt 0.114583 0.5
vt 0.135417 0.5
vt 0.114583 0.208333
vt 0.135417 0.208333
vt 0.135417 0.1875
vt 0.114583 0.1875
vt 0.135417 0.208333
vt 0.135417 0.1875
vt 0.114583 0.1875
vt 0.114583 0.208333
vt 0.135417 0.208333
vt 0.114583 0.208333
vt 0.114583 0.5
vt 0.135417 0.5
vt 0.135417 0.208333
vt 0.114583 0.208333
vt 0.114583 0.5
vt 0.135417 0.5
vt 0.135417 0.208333
vt 0.114583 0.208333
vt 0.114583 0.5
vt 0.135417 0.5
vt 0.135417 0.208333
vt 0.114583 0.208333
vt 0.114583 0.5
vt 0.135417 0.5
vt 0.114583 0.208333
vt 0.135417 0.208333
vt 0.135417 0.1875
vt 0.114583 0.1875
vt 0.135417 0.208333
vt 0.135417 0.1875
vt 0.114583 0.1875
vt 0.114583 0.208333
vt 0.520833 0.04166700000000001
vt 0.583333 0.04166700000000001
vt 0.583333 0.25
vt 0.520833 0.25
vt 0.583333 0.04166700000000001
vt 0.578125 0.04166700000000001
vt 0.578125 0.25
vt 0.583333 0.25
vt 0.583333 0.04166700000000001
vt 0.520833 0.04166700000000001
vt 0.520833 0.25
vt 0.583333 0.25
vt 0.526042 0.04166700000000001
vt 0.520833 0.04166700000000001
vt 0.520833 0.25
vt 0.526042 0.25
vt 0.578125 0.177083
vt 0.578125 0.25
vt 0.583333 0.25
vt 0.583333 0.177083
vt 0 0.22395833333333237
vt 0 0.15625033333333238
vt 0.08333333333333333 0.15625033333333238
vt 0.08333333333333333 0.22395833333333237
vt 0 0.22395866666666597
vt 0.08333333333333333 0.22395866666666597
vt 0.08333333333333333 0.29166666666666585
vt 0 0.29166666666666585
vt 0.083333 0.359375
vt 0.078125 0.359375
vt 0.078125 0.291667
vt 0.083333 0.291667
vt 0.083333 0.5
vt 0.078125 0.5
vt 0.078125 0.291667
vt 0.083333 0.291667
vt 0 0.5
vt 0 0.291667
vt 0.08333333333333333 0.291667
vt 0.08333333333333333 0.5
vt 0 0.291667
vt 0.08333333333333333 0.291667
vt 0.08333333333333333 0.5
vt 0 0.5
vt 0 0.5
vt 0 0.291667
vt 0.08333333333333333 0.291667
vt 0.08333333333333333 0.5
vt 0 0.291667
vt 0.08333333333333333 0.291667
vt 0.08333333333333333 0.5
vt 0 0.5
vt 0.083333 0.5
vt 0.078125 0.5
vt 0.078125 0.291667
vt 0.083333 0.291667
vt 0.083333 0.5
vt 0.078125 0.5
vt 0.078125 0.432292
vt 0.083333 0.432292
vt 0 0.1562503333333325
vt 0.08333333333333333 0.1562503333333325
vt 0.08333333333333333 0.22395833333333237
vt 0 0.22395833333333237
vt 0.005208 0.432292
vt 0.005208 0.359375
vt 0 0.359375
vt 0 0.432292
vt 0 0.2916666666666661
vt 0 0.2239586666666662
vt 0.08333333333333333 0.2239586666666662
vt 0.08333333333333333 0.2916666666666661
vt 0.005208 0.359375
vt 0 0.359375
vt 0 0.432292
vt 0.005208 0.432292
vt 0.625 0.458333
vt 0.375 0.458333
vt 0.375 0.416667
vt 0.625 0.416667
vt 0.625 0.458333
vt 0.375 0.458333
vt 0.375 0.416667
vt 0.625 0.416667
vt 0.625 0.458333
vt 0.375 0.458333
vt 0.375 0.416667
vt 0.625 0.416667
vt 0.625 0.458333
vt 0.375 0.458333
vt 0.375 0.416667
vt 0.625 0.416667
vt 0.833333 0.25
vt 0.583333 0.25
vt 0.583333 0
vt 0.833333 0
vt 0.833333 0
vt 0.583333 0
vt 0.583333 0.25
vt 0.833333 0.25
vt 0.260417 0.333333
vt 0.135417 0.333333
vt 0.135417 0.375
vt 0.260417 0.375
vt 0.260417 0.333333
vt 0.135417 0.333333
vt 0.135417 0.375
vt 0.260417 0.375
vt 0.260417 0.333333
vt 0.135417 0.333333
vt 0.135417 0.375
vt 0.260417 0.375
vt 0.260417 0.333333
vt 0.135417 0.333333
vt 0.135417 0.375
vt 0.260417 0.375
vt 0.260417 0.5
vt 0.260417 0.375
vt 0.135417 0.375
vt 0.135417 0.5
vt 0.291667 0.286458
vt 0.208333 0.286458
vt 0.208333 0.333333
vt 0.291667 0.333333
vt 0.291667 0.286458
vt 0.208333 0.286458
vt 0.208333 0.333333
vt 0.291667 0.333333
vt 0.541667 0.375
vt 0.625 0.375
vt 0.625 0.416667
vt 0.541667 0.416667
vt 0.291667 0.286458
vt 0.208333 0.286458
vt 0.208333 0.333333
vt 0.291667 0.333333
vt 0.291667 0.333333
vt 0.291667 0.25
vt 0.208333 0.25
vt 0.208333 0.333333
vt 0.291667 0.29166666666666663
vt 0.375 0.29166666666666663
vt 0.375 0.333333
vt 0.291667 0.333333
vt 0.375 0.3749996666666666
vt 0.541667 0.3749996666666666
vt 0.541667 0.416667
vt 0.375 0.416667
vt 0.291667 0.29166666666666663
vt 0.375 0.29166666666666663
vt 0.375 0.333333
vt 0.291667 0.333333
vt 0.541667 0.24999999999999978
vt 0.375 0.24999999999999978
vt 0.375 0.291666333333333
vt 0.541667 0.291666333333333
vt 0.375 0.416667
vt 0.375 0.333333
vt 0.541667 0.333333
vt 0.541667 0.416667
vt 0.46875 0.479167
vt 0.46875 0.541667
vt 0.4375 0.541667
vt 0.4375 0.479167
vt 0.4375 0.541667
vt 0.4375 0.479167
vt 0.46875 0.479167
vt 0.46875 0.541667
vt 0.4375 0.541667
vt 0.4375 0.479167
vt 0.46875 0.479167
vt 0.46875 0.541667
vt 0.46875 0.479167
vt 0.46875 0.541667
vt 0.4375 0.541667
vt 0.4375 0.479167
vt 0.4375 0.541667
vt 0.4375 0.479167
vt 0.46875 0.479167
vt 0.46875 0.541667
vt 0.4375 0.541667
vt 0.4375 0.479167
vt 0.46875 0.479167
vt 0.46875 0.541667
vt 0.4375 0.583333
vt 0.4375 0.520833
vt 0.416667 0.520833
vt 0.416667 0.583333
vt 0.416667 0.520833
vt 0.416667 0.583333
vt 0.4375 0.583333
vt 0.4375 0.520833
vt 0.416667 0.520833
vt 0.416667 0.583333
vt 0.4375 0.583333
vt 0.4375 0.520833
vt 0.416667 0.520833
vt 0.416667 0.583333
vt 0.4375 0.583333
vt 0.4375 0.520833
vt 0.4375 0.583333
vt 0.4375 0.520833
vt 0.416667 0.520833
vt 0.416667 0.583333
vt 0.416667 0.520833
vt 0.416667 0.583333
vt 0.4375 0.583333
vt 0.4375 0.520833
vt 0.625 0.25
vt 0.541667 0.25
vt 0.541667 0.375
vt 0.625 0.375
vt 0.833333 0.25
vt 0.625 0.25
vt 0.625 0.375
vt 0.833333 0.375
vt 0.625 0.25
vt 0.541667 0.25
vt 0.541667 0.375
vt 0.625 0.375
vt 0.625 0.458333
vt 0.833333 0.458333
vt 0.833333 0.583333
vt 0.625 0.583333
vt 0.625 0.375
vt 0.625 0.458333
vt 0.833333 0.458333
vt 0.833333 0.375
vt 0.520833 0.46875
vt 0.46875 0.46875
vt 0.46875 0.53125
vt 0.520833 0.53125
vt 0.520833 0.46875
vt 0.46875 0.46875
vt 0.46875 0.53125
vt 0.520833 0.53125
vt 0.520833 0.46875
vt 0.46875 0.46875
vt 0.46875 0.53125
vt 0.520833 0.53125
vt 0.520833 0.46875
vt 0.46875 0.46875
vt 0.46875 0.53125
vt 0.520833 0.53125
vt 0.46875 0.583333
vt 0.520833 0.583333
vt 0.520833 0.53125
vt 0.46875 0.53125
vt 0.520833 0.583333
vt 0.520833 0.53125
vt 0.46875 0.53125
vt 0.46875 0.583333
vt 0 0.5
vt 0 0.291667
vt 0.08333333333333333 0.291667
vt 0.08333333333333333 0.5
vt 0 0.291667
vt 0.08333333333333333 0.291667
vt 0.08333333333333333 0.5
vt 0 0.5
vt 0.083333 0.5
vt 0.078125 0.5
vt 0.078125 0.291667
vt 0.083333 0.291667
vt 0.625 0.458333
vt 0.625 0.416667
vt 0.375 0.416667
vt 0.375 0.458333
vt 0.625 0.458333
vt 0.625 0.416667
vt 0.375 0.416667
vt 0.375 0.458333
vt 0.625 0.458333
vt 0.625 0.416667
vt 0.375 0.416667
vt 0.375 0.458333
vt 0.625 0.458333
vt 0.625 0.416667
vt 0.375 0.416667
vt 0.375 0.458333
vt 0.833333 0.25
vt 0.833333 0
vt 0.583333 0
vt 0.583333 0.25
vt 0.833333 0
vt 0.833333 0.25
vt 0.583333 0.25
vt 0.583333 0
vn 1 0 0
vn 0 0 -1
vn -1 0 0
vn 0 0 1
vn 0 -1 0
vn 0 1 0
vn 1 0 0
vn 0 0 1
vn -1 0 0
vn 0 0 -1
vn 1 0 0
vn 0 0 1
vn -1 0 0
vn 0 0 -1
vn 0 -0.9999999999995002 9.999999999172336e-7
vn 0 0.9999999999995002 -0.0000010000000001392782
vn 1 0 0
vn 0 0 1
vn -1 0 0
vn 0 0 -1
vn 1 0 0
vn 0 0 -1
vn -1 0 0
vn 0 0 1
vn 0 -1 0
vn 0 1 0
vn 1 0 0
vn 0 0 -1
vn -1 0 0
vn 0 0 1
vn 0 -1 0
vn 0 1 0
vn 1 0 0
vn 0 0 -1
vn -1 0 0
vn 0 0 1
vn 0 -1 0
vn 0 1 0
vn 1 0 0
vn 0 0 -1
vn -1 0 0
vn 0 0 1
vn 0 -1 0
vn 0 1 0
vn -1 0 0
vn 0 0 1
vn 1 0 0
vn 0 0 -1
vn 0 1 0
vn 1 0 0
vn -1 0 0
vn 0 1 0
vn 0 1 0
vn 0 0 -1
vn 0 0 1
vn -1 0 0
vn 1 0 0
vn 0 1 0
vn 0 1 0
vn -1 0 0
vn 0 0 -1
vn 1 0 0
vn 0 0 1
vn 1 0 0
vn 0 0 -1
vn -1 0 0
vn 0 0 1
vn 0 -1 0
vn 0 1 0
vn 1 0 0
vn 0 0 -1
vn -1 0 0
vn 0 0 1
vn 0 1 0
vn 1 0 0
vn 0 0 -1
vn -1 0 0
vn 0 0 1
vn 0 1 0
vn 1 0 0
vn 0 0 -1
vn -1 0 0
vn 0 0 1
vn 0 1 0
vn 1 0 0
vn -1 0 0
vn 0 1 0
vn 0 0 1
vn 0 0 -1
vn 0 1 0
vn 1 0 0
vn 0 1 0
vn -1 0 0
vn -1 0 0
vn 1 0 0
vn 0 1 0
vn 1 0 0
vn 0 0 -1
vn -1 0 0
vn 0 0 1
vn 0 1 0
vn 0 -1 0
vn 0 0 -1
vn 0 1 0
vn 0 0 1
vn -1 0 0
vn 1 0 0
vn 0 0 1
vn 0 0 -1
vn 0 1 0
vn -1 0 0
vn 0 0 1
vn 1 0 0
vn 0 0 -1
vn 0 1 0
vn 0 -1 0
usemtl None
f 1/1/1 2/2/1 3/3/1 4/4/1
f 2/5/2 5/6/2 6/7/2 3/8/2
f 5/9/3 7/10/3 8/11/3 6/12/3
f 7/13/4 1/14/4 4/15/4 8/16/4
f 2/17/5 1/18/5 7/19/5 5/20/5
f 6/21/6 8/22/6 4/23/6 3/24/6
f 9/25/7 10/26/7 11/27/7 12/28/7
f 12/29/8 11/30/8 13/31/8 14/32/8
f 14/33/9 13/34/9 15/35/9 16/36/9
f 16/37/10 15/38/10 10/39/10 9/40/10
f 17/41/11 18/42/11 19/43/11 20/44/11
f 20/45/12 19/46/12 21/47/12 22/48/12
f 22/49/13 21/50/13 23/51/13 24/52/13
f 24/53/14 23/54/14 18/55/14 17/56/14
f 20/57/15 22/58/15 24/59/15 17/60/15
f 21/61/16 19/62/16 18/63/16 23/64/16
f 25/65/17 26/66/17 27/67/17 28/68/17
f 28/69/18 27/70/18 29/71/18 30/72/18
f 30/73/19 29/74/19 31/75/19 32/76/19
f 32/77/20 31/78/20 26/79/20 25/80/20
f 33/81/21 34/82/21 35/83/21 36/84/21
f 34/85/22 37/86/22 38/87/22 35/88/22
f 37/89/23 39/90/23 40/91/23 38/92/23
f 39/93/24 33/94/24 36/95/24 40/96/24
f 34/97/25 33/98/25 39/99/25 37/100/25
f 38/101/26 40/102/26 36/103/26 35/104/26
f 41/105/27 42/106/27 43/107/27 44/108/27
f 42/109/28 45/110/28 46/111/28 43/112/28
f 45/113/29 47/114/29 48/115/29 46/116/29
f 47/117/30 41/118/30 44/119/30 48/120/30
f 42/121/31 41/122/31 47/123/31 45/124/31
f 46/125/32 48/126/32 44/127/32 43/128/32
f 49/129/33 50/130/33 51/131/33 52/132/33
f 50/133/34 53/134/34 54/135/34 51/136/34
f 53/137/35 55/138/35 56/139/35 54/140/35
f 55/141/36 49/142/36 52/143/36 56/144/36
f 50/145/37 49/146/37 55/147/37 53/148/37
f 54/149/38 56/150/38 52/151/38 51/152/38
f 57/153/39 58/154/39 59/155/39 60/156/39
f 58/157/40 61/158/40 62/159/40 59/160/40
f 61/161/41 63/162/41 64/163/41 62/164/41
f 63/165/42 57/166/42 60/167/42 64/168/42
f 58/169/43 57/170/43 63/171/43 61/172/43
f 62/173/44 64/174/44 60/175/44 59/176/44
f 65/177/45 66/178/45 67/179/45 68/180/45
f 66/181/46 69/182/46 70/183/46 67/184/46
f 69/185/47 71/186/47 72/187/47 70/188/47
f 71/189/48 65/190/48 68/191/48 72/192/48
f 68/193/49 67/194/49 70/195/49 72/196/49
f 73/197/50 74/198/50 75/199/50 76/200/50
f 77/201/51 78/202/51 79/203/51 80/204/51
f 81/205/52 82/206/52 83/207/52 84/208/52
f 85/209/53 86/210/53 87/211/53 88/212/53
f 89/213/54 90/214/54 85/215/54 88/216/54
f 91/217/55 87/218/55 86/219/55 92/220/55
f 93/221/56 94/222/56 95/223/56 96/224/56
f 97/225/57 98/226/57 99/227/57 100/228/57
f 95/229/58 99/230/58 98/231/58 96/232/58
f 75/233/59 79/234/59 78/235/59 76/236/59
f 101/237/60 83/238/60 82/239/60 102/240/60
f 102/241/61 82/242/61 81/243/61 103/244/61
f 104/245/62 103/246/62 81/247/62 84/248/62
f 77/249/63 73/250/63 76/251/63 78/252/63
f 105/253/64 106/254/64 107/255/64 108/256/64
f 106/257/65 109/258/65 110/259/65 107/260/65
f 109/261/66 111/262/66 112/263/66 110/264/66
f 111/265/67 105/266/67 108/267/67 112/268/67
f 106/269/68 105/270/68 111/271/68 109/272/68
f 110/273/69 112/274/69 108/275/69 107/276/69
f 113/277/70 114/278/70 115/279/70 116/280/70
f 114/281/71 117/282/71 118/283/71 115/284/71
f 117/285/72 119/286/72 120/287/72 118/288/72
f 119/289/73 113/290/73 116/291/73 120/292/73
f 118/293/74 120/294/74 116/295/74 115/296/74
f 121/297/75 122/298/75 123/299/75 124/300/75
f 122/301/76 125/302/76 126/303/76 123/304/76
f 125/305/77 127/306/77 128/307/77 126/308/77
f 127/309/78 121/310/78 124/311/78 128/312/78
f 126/313/79 128/314/79 124/315/79 123/316/79
f 129/317/80 130/318/80 131/319/80 132/320/80
f 130/321/81 133/322/81 134/323/81 131/324/81
f 133/325/82 135/326/82 136/327/82 134/328/82
f 135/329/83 129/330/83 132/331/83 136/332/83
f 134/333/84 136/334/84 132/335/84 131/336/84
f 137/337/85 138/338/85 139/339/85 140/340/85
f 141/341/86 142/342/86 143/343/86 144/344/86
f 144/345/87 143/346/87 140/347/87 139/348/87
f 145/349/88 146/350/88 147/351/88 148/352/88
f 149/353/89 150/354/89 151/355/89 152/356/89
f 152/357/90 151/358/90 148/359/90 147/360/90
f 153/361/91 154/362/91 155/363/91 156/364/91
f 157/365/92 158/366/92 159/367/92 160/368/92
f 161/369/93 162/370/93 163/371/93 164/372/93
f 165/373/94 166/374/94 158/375/94 157/376/94
f 167/377/95 168/378/95 160/379/95 159/380/95
f 164/381/96 163/382/96 156/383/96 155/384/96
f 169/385/97 170/386/97 171/387/97 172/388/97
f 170/389/98 173/390/98 174/391/98 171/392/98
f 173/393/99 175/394/99 176/395/99 174/396/99
f 175/397/100 169/398/100 172/399/100 176/400/100
f 174/401/101 176/402/101 172/403/101 171/404/101
f 177/405/102 178/406/102 179/407/102 180/408/102
f 178/409/103 181/410/103 182/411/103 179/412/103
f 181/413/104 183/414/104 184/415/104 182/416/104
f 183/417/105 177/418/105 180/419/105 184/420/105
f 178/421/106 177/422/106 183/423/106 181/424/106
f 182/425/107 184/426/107 180/427/107 179/428/107
f 185/429/108 186/430/108 187/431/108 188/432/108
f 189/433/109 190/434/109 191/435/109 192/436/109
f 187/437/110 191/438/110 190/439/110 188/440/110
f 193/441/111 194/442/111 195/443/111 196/444/111
f 196/445/112 195/446/112 197/447/112 198/448/112
f 198/449/113 197/450/113 199/451/113 200/452/113
f 200/453/114 199/454/114 194/455/114 193/456/114
f 196/457/115 198/458/115 200/459/115 193/460/115
f 197/461/116 195/462/116 194/463/116 199/464/116