mtllib oiltank.mtl

o oiltank_normal
v 2.5 0 2.5
v 2.5 0.5 2.5
v -1.5 0.5 2.5
v -1.5 0 2.5
v -1.5 0.5 -1.5
v -1.5 0 -1.5
v 2.5 0.49999899999999997 -1.5
v 2.5 0 -1.5
v -1.75 0 3
v -1.75 0.5 3
v -2 0.5 3
v -2 0 3
v -2 0.5 2.75
v -2 0 2.75
v -1.75 0.5 2.75
v -1.75 0 2.75
v 3 0 3
v 3 0.5 3
v 2.75 0.5 3
v 2.75 0 3
v 2.75 0.5 2.75
v 2.75 0 2.75
v 3 0.5 2.75
v 3 0 2.75
v 3 0 -1.75
v 3 0.5 -1.75
v 2.75 0.5 -1.75
v 2.75 0 -1.75
v 2.75 0.5 -2
v 2.75 0 -2
v 3 0.5 -2
v 3 0 -2
v -1.75 0 -1.75
v -1.75 0.5 -1.75
v -2 0.5 -1.75
v -2 0 -1.75
v -2 0.5 -2
v -2 0 -2
v -1.75 0.5 -2
v -1.75 0 -2
v 0.000001 2.5 -2
v 0.000001 3 -2
v 0.000001 3 -3
v 0.000001 2.5 -3
v 3.000001 2.999999 -3
v 3.000001 2.499999 -3
v 3.000001 2.999999 -2
v 3.000001 2.499999 -2
v 1 1.5 -2
v 1.000001 3 -2
v 1.000001 3 -2.9375
v 1 1.5 -2.9375
v 2.000001 3 -2.9375
v 2 1.5 -2.9375
v 2.000001 3 -2
v 2 1.5 -2
v 0.000001 2.5 -2
v 0.000001 2.5 -3
v 0.000001 3 -3
v 0.000001 3 -2
v 3.000001 2.499999 -3
v 3.000001 2.999999 -3
v 3.000001 2.499999 -2
v 3.000001 2.999999 -2
v 1 1.5 -2
v 1 1.5 -2.9375
v 1.000001 3 -2.9375
v 1.000001 3 -2
v 2 1.5 -2.9375
v 2.000001 3 -2.9375
v 2 1.5 -2
v 2.000001 3 -2
v 3 0.5 3
v 3 2.999999750000125 3
v -2 3.000001 3
v -2 0.5 3
v -1.999999 3 -2
v -2 0.500000249999875 -2
v 3.000001 2.999998750000125 -2
v 3 0.49999899999999986 -2
v 1.125 0.500625 -2
v 1.125001 3.000625 -2
v 1.125001 3.000625 -2.0625
v 1.125 0.500625 -2.0625
v 1.875001 3.000625 -2.0625
v 1.875 0.500625 -2.0625
v 1.875 0.500625 -2
v 1.875001 3.000625 -2
v 3 3 3
v 3 4 3
v -1.999999 4 3
v -2 3.000001 3
v -1.999999 4 -2
v -1.999999 3 -2
v 3.000001 2.999999 -2
v 3.000001 3.999999 -2
v 0.000001 4 -2
v 0.000001 3 -2
v 2.937501 2.999999 -2
v 2.937501 3.999999 -2
v 2.9375 4 2.9375
v -1.937499 4 2.9375
v -1.937499 4 -1.9375
v 0.000001 4 -1.9375
v 0.000001 3 -1.9375
v 3 3 3
v -2 3.000001 3
v -1.999999 4 3
v 3 4 3
v -1.999999 3 -2
v -1.999999 4 -2
v 3.000001 2.999999 -2
v 3.000001 3.999999 -2
v 0.000001 3 -2
v 0.000001 4 -2
v -2 0.49999999999999967 3
v -2 0.49999999999999967 2.5
v 3 0.5000000000000003 3
v 3 0.5000000000000003 2.5
v -2 0.49999999999999967 -1.5
v -2 0.49999999999999967 -2
v 3 0.5000000000000003 -2
v 3 0.5000000000000003 -1.5
v -2 0.49999999999999994 2.5
v -2 0.49999999999999994 -1.5
v -1.5 0.5 -1.5
v -1.5 0.5 2.5
v 2.5 0.49999999999999994 2.5
v 2.5 0.49999999999999994 -1.5
v 3 0.5 -1.5
v 3 0.5 2.5
vt 1 0
vt 1 0.050000000000000155
vt 0.6000000000000004 0.050000000000000155
vt 0.600000000000001 0
vt 1 0
vt 1 0.050000000000000155
vt 0.6000000000000004 0.050000000000000155
vt 0.600000000000001 0
vt 1 0
vt 1 0.050000000000000155
vt 0.6000000000000004 0.050000000000000155
vt 0.600000000000001 0
vt 1 0
vt 1 0.050000000000000155
vt 0.6000000000000004 0.050000000000000155
vt 0.600000000000001 0
vt 1 0.3499999999999991
vt 1 0.7499999999999993
vt 0.5999999999999999 0.7499999999999993
vt 0.5999999999999999 0.3499999999999991
vt 0.5249999999999992 0.8749999999999997
vt 0.5749999999999992 0.8749999999999997
vt 0.5749999999999992 0.8999999999999997
vt 0.5249999999999992 0.8999999999999997
vt 0.5249999999999992 0.8749999999999997
vt 0.5749999999999992 0.8749999999999997
vt 0.5749999999999992 0.8999999999999997
vt 0.5249999999999992 0.8999999999999997
vt 0.5249999999999992 0.8749999999999997
vt 0.5749999999999992 0.8749999999999997
vt 0.5749999999999992 0.8999999999999997
vt 0.5249999999999992 0.8999999999999997
vt 0.5249999999999992 0.8749999999999997
vt 0.5749999999999992 0.8749999999999997
vt 0.5749999999999992 0.8999999999999997
vt 0.5249999999999992 0.8999999999999997
vt 0.49999999999999944 0.8749999999999997
vt 0.5249999999999992 0.8749999999999997
vt 0.5249999999999992 0.8999999999999997
vt 0.49999999999999944 0.8999999999999997
vt 0.5249999999999992 0.8749999999999997
vt 0.5749999999999992 0.8749999999999997
vt 0.5749999999999992 0.8999999999999997
vt 0.5249999999999992 0.8999999999999997
vt 0.5249999999999992 0.8749999999999997
vt 0.5749999999999992 0.8749999999999997
vt 0.5749999999999992 0.8999999999999997
vt 0.5249999999999992 0.8999999999999997
vt 0.5249999999999992 0.8749999999999997
vt 0.5749999999999992 0.8749999999999997
vt 0.5749999999999992 0.8999999999999997
vt 0.5249999999999992 0.8999999999999997
vt 0.5249999999999992 0.8749999999999997
vt 0.5749999999999992 0.8749999999999997
vt 0.5749999999999992 0.8999999999999997
vt 0.5249999999999992 0.8999999999999997
vt 0.49999999999999944 0.8749999999999997
vt 0.5249999999999992 0.8749999999999997
vt 0.5249999999999992 0.8999999999999997
vt 0.49999999999999944 0.8999999999999997
vt 0.5249999999999992 0.8749999999999997
vt 0.5749999999999992 0.8749999999999997
vt 0.5749999999999992 0.8999999999999997
vt 0.5249999999999992 0.8999999999999997
vt 0.5249999999999992 0.8749999999999997
vt 0.5749999999999992 0.8749999999999997
vt 0.5749999999999992 0.8999999999999997
vt 0.5249999999999992 0.8999999999999997
vt 0.5249999999999992 0.8749999999999997
vt 0.5749999999999992 0.8749999999999997
vt 0.5749999999999992 0.8999999999999997
vt 0.5249999999999992 0.8999999999999997
vt 0.5249999999999992 0.8749999999999997
vt 0.5749999999999992 0.8749999999999997
vt 0.5749999999999992 0.8999999999999997
vt 0.5249999999999992 0.8999999999999997
vt 0.49999999999999944 0.8749999999999997
vt 0.5249999999999992 0.8749999999999997
vt 0.5249999999999992 0.8999999999999997
vt 0.49999999999999944 0.8999999999999997
vt 0.5249999999999992 0.8749999999999997
vt 0.5749999999999992 0.8749999999999997
vt 0.5749999999999992 0.8999999999999997
vt 0.5249999999999992 0.8999999999999997
vt 0.5249999999999992 0.8749999999999997
vt 0.5749999999999992 0.8749999999999997
vt 0.5749999999999992 0.8999999999999997
vt 0.5249999999999992 0.8999999999999997
vt 0.5249999999999992 0.8749999999999997
vt 0.5749999999999992 0.8749999999999997
vt 0.5749999999999992 0.8999999999999997
vt 0.5249999999999992 0.8999999999999997
vt 0.5249999999999992 0.8749999999999997
vt 0.5749999999999992 0.8749999999999997
vt 0.5749999999999992 0.8999999999999997
vt 0.5249999999999992 0.8999999999999997
vt 0.49999999999999944 0.8749999999999997
vt 0.5249999999999992 0.8749999999999997
vt 0.5249999999999992 0.8999999999999997
vt 0.49999999999999944 0.8999999999999997
vt 0.8 0.75
vt 0.8 0.8
vt 0.7 0.8
vt 0.7 0.75
vt 1 0.75
vt 1 0.80625
vt 0.7 0.80625
vt 0.7 0.75
vt 0.8 0.75625
vt 0.8 0.8
vt 0.7 0.8
vt 0.7 0.75625
vt 0.7 0.9
vt 0.7 0.8
vt 1 0.8
vt 1 0.9
vt 1 0.8
vt 1 0.9
vt 0.7 0.9
vt 0.7 0.8
vt 0.5000000000000007 0.6937499999999996
vt 0.5000000000000007 0.8437500000000001
vt 0.5937500000000007 0.8437500000000001
vt 0.5937500000000007 0.6937499999999996
vt 0.6000000000000011 0.6937499999999996
vt 0.6000000000000011 0.8437500000000001
vt 0.500000000000001 0.8437500000000001
vt 0.500000000000001 0.6937499999999996
vt 0.5937500000000007 0.6937499999999996
vt 0.5937500000000007 0.8437500000000001
vt 0.5000000000000007 0.8437500000000001
vt 0.5000000000000007 0.6937499999999996
vt 0.8 0.75
vt 0.7 0.75
vt 0.7 0.8
vt 0.8 0.8
vt 1 0.75
vt 0.7 0.75
vt 0.7 0.80625
vt 1 0.80625
vt 0.8 0.75625
vt 0.7 0.75625
vt 0.7 0.8
vt 0.8 0.8
vt 0.7 0.9
vt 1 0.9
vt 1 0.8
vt 0.7 0.8
vt 1 0.8
vt 0.7 0.8
vt 0.7 0.9
vt 1 0.9
vt 0.5000000000000007 0.6937499999999996
vt 0.5937500000000007 0.6937499999999996
vt 0.5937500000000007 0.8437500000000001
vt 0.5000000000000007 0.8437500000000001
vt 0.6000000000000011 0.6937499999999996
vt 0.500000000000001 0.6937499999999996
vt 0.500000000000001 0.8437500000000001
vt 0.6000000000000011 0.8437500000000001
vt 0.5937500000000007 0.6937499999999996
vt 0.5000000000000007 0.6937499999999996
vt 0.5000000000000007 0.8437500000000001
vt 0.5937500000000007 0.8437500000000001
vt 0.5000000000000001 -2.220446049250313e-16
vt 0.5000000000000001 0.24999999999999978
vt 0 0.24999999999999978
vt 0 -2.220446049250313e-16
vt 1 0.09999999999999942
vt 1 0.3499999999999994
vt 0.5 0.3499999999999994
vt 0.5 0.09999999999999942
vt 1 0.09999999999999942
vt 1 0.3499999999999994
vt 0.5 0.3499999999999994
vt 0.5 0.09999999999999942
vt 1 0.09999999999999942
vt 1 0.3499999999999994
vt 0.5 0.3499999999999994
vt 0.5 0.09999999999999942
vt 0 1
vt 0.5 1
vt 0.5 0.5
vt 0 0.5
vt 0.5875000000000004 0.35000000000000075
vt 0.5875000000000004 0.6000000000000003
vt 0.5812500000000004 0.6000000000000003
vt 0.5812500000000004 0.35000000000000075
vt 0.5875000000000004 0.35000000000000053
vt 0.5875000000000004 0.6000000000000001
vt 0.5125000000000004 0.6000000000000001
vt 0.5125000000000004 0.35000000000000053
vt 0.5875000000000004 0.35000000000000053
vt 0.5875000000000004 0.3562500000000004
vt 0.5125000000000004 0.3562500000000004
vt 0.5125000000000004 0.35000000000000053
vt 0.5875000000000004 0.35000000000000053
vt 0.5875000000000004 0.3562500000000004
vt 0.5125000000000004 0.3562500000000004
vt 0.5125000000000004 0.35000000000000053
vt 0.5187500000000004 0.6000000000000001
vt 0.5125000000000004 0.6000000000000001
vt 0.5125000000000004 0.35000000000000053
vt 0.5187500000000004 0.35000000000000053
vt 0.5875000000000004 0.35000000000000053
vt 0.5125000000000004 0.35000000000000053
vt 0.5125000000000004 0.6000000000000001
vt 0.5875000000000004 0.6000000000000001
vt 1 0.9
vt 1 1
vt 0.5 1
vt 0.5 0.9
vt 1 0.9
vt 1 1
vt 0.5 1
vt 0.5 0.9
vt 1 0.9
vt 1 1
vt 0.5 1
vt 0.5 0.9
vt 1 0.9
vt 1 1
vt 0.8 1
vt 0.8 0.9
vt 0.50625 1
vt 0.50625 0.9
vt 0.5125 0.9
vt 0.5125 1
vt 1 0.99375
vt 1 1
vt 0.50625 1
vt 0.5 0.99375
vt 0.5 0.99375
vt 1 0.99375
vt 0.99375 1
vt 0.50625 1
vt 0.99375 0.99375
vt 1 1
vt 0.5 1
vt 0.50625 0.99375
vt 0.8 0.99375
vt 1 0.99375
vt 0.99375 1
vt 0.8 1
vt 0.50625 1
vt 0.50625 0.9
vt 0.5125 0.9
vt 0.5125 1
vt 1 0.9
vt 0.5 0.9
vt 0.5 1
vt 1 1
vt 1 0.9
vt 0.50625 0.9
vt 0.50625 1
vt 1 1
vt 1 0.9
vt 0.5 0.9
vt 0.5 1
vt 1 1
vt 1 0.9
vt 0.8 0.9
vt 0.8 1
vt 1 1
vt 1 0.050000000000001266
vt 1 0.10000000000000153
vt 0.4999999999999996 0.10000000000000153
vt 0.4999999999999996 0.050000000000001266
vt 0.49999999999999956 0.10000000000000153
vt 0.49999999999999956 0.050000000000001266
vt 1 0.050000000000001266
vt 1 0.10000000000000153
vt 0.5500000000000004 0.05000000000000093
vt 0.9499999999999996 0.05000000000000093
vt 0.9499999999999996 0.10000000000000042
vt 0.5500000000000004 0.10000000000000042
vt 0.9499999999999996 0.10000000000000031
vt 0.5500000000000004 0.10000000000000031
vt 0.5500000000000004 0.05000000000000082
vt 0.9499999999999996 0.05000000000000082
vn 0 0 1
vn -1 0 0
vn 0 0 -1
vn 1 0 0
vn 0 -1 0
vn 0 0 1
vn -1 0 0
vn 0 0 -1
vn 1 0 0
vn 0 -1 0
vn 0 0 1
vn -1 0 0
vn 0 0 -1
vn 1 0 0
vn 0 -1 0
vn 0 0 1
vn -1 0 0
vn 0 0 -1
vn 1 0 0
vn 0 -1 0
vn 0 0 1
vn -1 0 0
vn 0 0 -1
vn 1 0 0
vn 0 -1 0
vn -1 0 0
vn 0 0 -1
vn 1 0 0
vn -3.3333333337990746e-7 -0.9999999999999445 0
vn 3.3333333337990746e-7 0.9999999999999445 0
vn -0.9999999999997778 6.666666666116742e-7 0
vn 0 0 -1
vn 0.9999999999997778 -6.666666667597039e-7 0
vn 1 0 0
vn 0 0 1
vn -1 0 0
vn 3.3333333337990746e-7 0.9999999999999445 0
vn -3.3333333337990746e-7 -0.9999999999999445 0
vn 0.9999999999997778 -6.666666666116742e-7 0
vn 0 0 1
vn -0.9999999999997778 6.666666667597039e-7 0
vn 0 0 1
vn -0.99999999999998 0 -1.9999999998354267e-7
vn 0 0 -1
vn 0.9999999999999002 -4.000000400558553e-7 2.0000008002794366e-7
vn 2.499999750327092e-7 0.9999999999999489 -1.9999995002795036e-7
vn -0.9999999999999201 3.9999999996706136e-7 0
vn 0 0 -1
vn 0 -1 0
vn 0 1 0
vn 0.9999999999999201 -3.9999999996706136e-7 0
vn 0 0 1
vn 0 0 1
vn -0.9999999999995002 0.0000010000009999182336 0
vn 0.9999999999999801 0 2.000000000279516e-7
vn 0 0 -1
vn 0 0 -1
vn 0 0.9999999999999797 -2.0253164559792563e-7
vn 0 1 0
vn 0 1 0
vn 0 1 0
vn 1 0 0
vn 0 0 -1
vn 0.9999999999999801 0 1.999999999835427e-7
vn -0.9999999999999801 0 -2.000000000279516e-7
vn 0 0 1
vn 1.3322676295501878e-16 -1 0
vn 1.3322676295501878e-16 -1 0
vn 1.1102230246251565e-16 -1 0
vn 1.1102230246251565e-16 -1 0
usemtl None
f 1/1/1 2/2/1 3/3/1 4/4/1
f 4/5/2 3/6/2 5/7/2 6/8/2
f 6/9/3 5/10/3 7/11/3 8/12/3
f 8/13/4 7/14/4 2/15/4 1/16/4
f 4/17/5 6/18/5 8/19/5 1/20/5
f 9/21/6 10/22/6 11/23/6 12/24/6
f 12/25/7 11/26/7 13/27/7 14/28/7
f 14/29/8 13/30/8 15/31/8 16/32/8
f 16/33/9 15/34/9 10/35/9 9/36/9
f 12/37/10 14/38/10 16/39/10 9/40/10
f 17/41/11 18/42/11 19/43/11 20/44/11
f 20/45/12 19/46/12 21/47/12 22/48/12
f 22/49/13 21/50/13 23/51/13 24/52/13
f 24/53/14 23/54/14 18/55/14 17/56/14
f 20/57/15 22/58/15 24/59/15 17/60/15
f 25/61/16 26/62/16 27/63/16 28/64/16
f 28/65/17 27/66/17 29/67/17 30/68/17
f 30/69/18 29/70/18 31/71/18 32/72/18
f 32/73/19 31/74/19 26/75/19 25/76/19
f 28/77/20 30/78/20 32/79/20 25/80/20
f 33/81/21 34/82/21 35/83/21 36/84/21
f 36/85/22 35/86/22 37/87/22 38/88/22
f 38/89/23 37/90/23 39/91/23 40/92/23
f 40/93/24 39/94/24 34/95/24 33/96/24
f 36/97/25 38/98/25 40/99/25 33/100/25
f 41/101/26 42/102/26 43/103/26 44/104/26
f 44/105/27 43/106/27 45/107/27 46/108/27
f 46/109/28 45/110/28 47/111/28 48/112/28
f 41/113/29 44/114/29 46/115/29 48/116/29
f 43/117/30 42/118/30 47/119/30 45/120/30
f 49/121/31 50/122/31 51/123/31 52/124/31
f 52/125/32 51/126/32 53/127/32 54/128/32
f 54/129/33 53/130/33 55/131/33 56/132/33
f 57/133/34 58/134/34 59/135/34 60/136/34
f 58/137/35 61/138/35 62/139/35 59/140/35
f 61/141/36 63/142/36 64/143/36 62/144/36
f 57/145/37 63/146/37 61/147/37 58/148/37
f 59/149/38 62/150/38 64/151/38 60/152/38
f 65/153/39 66/154/39 67/155/39 68/156/39
f 66/157/40 69/158/40 70/159/40 67/160/40
f 69/161/41 71/162/41 72/163/41 70/164/41
f 73/165/42 74/166/42 75/167/42 76/168/42
f 76/169/43 75/170/43 77/171/43 78/172/43
f 78/173/44 77/174/44 79/175/44 80/176/44
f 80/177/45 79/178/45 74/179/45 73/180/45
f 74/181/46 79/182/46 77/183/46 75/184/46
f 81/185/47 82/186/47 83/187/47 84/188/47
f 84/189/48 83/190/48 85/191/48 86/192/48
f 81/193/49 84/194/49 86/195/49 87/196/49
f 83/197/50 82/198/50 88/199/50 85/200/50
f 85/201/51 88/202/51 87/203/51 86/204/51
f 81/205/52 87/206/52 88/207/52 82/208/52
f 89/209/53 90/210/53 91/211/53 92/212/53
f 92/213/54 91/214/54 93/215/54 94/216/54
f 95/217/55 96/218/55 90/219/55 89/220/55
f 94/221/56 93/222/56 97/223/56 98/224/56
f 96/225/57 95/226/57 99/227/57 100/228/57
f 96/229/58 100/230/58 101/231/58 90/232/58
f 91/233/59 90/234/59 101/235/59 102/236/59
f 103/237/60 93/238/60 91/239/60 102/240/60
f 97/241/61 93/242/61 103/243/61 104/244/61
f 98/245/62 97/246/62 104/247/62 105/248/62
f 106/249/63 107/250/63 108/251/63 109/252/63
f 107/253/64 110/254/64 111/255/64 108/256/64
f 112/257/65 106/258/65 109/259/65 113/260/65
f 110/261/66 114/262/66 115/263/66 111/264/66
f 116/265/67 117/266/67 119/267/67 118/268/67
f 120/269/68 121/270/68 122/271/68 123/272/68
f 124/273/69 125/274/69 126/275/69 127/276/69
f 128/277/70 129/278/70 130/279/70 131/280/70