mtllib oiltank_mirrored.mtl

o oiltank_mirrored
v -1.5 0 2.5
v 2.5 0 2.5
v 2.5 0.5 2.5
v -1.5 0.49999899999999997 2.5
v 2.5 0 -1.5
v 2.499999 0.5 -1.5
v -1.5 0 -1.5
v -1.5 0.5 -1.5
v 2.75 0 3
v 3 0 3
v 3 0.5 3
v 2.75 0.5 3
v 3 0 2.75
v 3 0.5 2.75
v 2.75 0 2.75
v 2.75 0.5 2.75
v -2 0 3
v -1.75 0 3
v -1.75 0.5 3
v -2 0.5 3
v -1.75 0 2.75
v -1.75 0.5 2.75
v -2 0 2.75
v -2 0.5 2.75
v -2 0 -1.75
v -1.75 0 -1.75
v -1.750001 0.5 -1.75
v -2.000001 0.5 -1.75
v -1.75 0 -2
v -1.750001 0.5 -2
v -2 0 -2
v -2 0.5 -2
v 2.75 0 -1.75
v 3 0 -1.75
v 2.999999 0.5 -1.75
v 2.749999 0.5 -1.75
v 3 0 -2
v 2.999999 0.5 -2
v 2.75 0 -2
v 2.749999 0.5 -2
v 0.999999 2.5 -2
v 0.999999 2.5 -3
v 0.999999 3 -3
v 0.999999 3 -2
v -2 2.5 -3
v -2 3 -3
v -2 2.5 -2
v -2 3 -2
v 0 1.5 -2
v 0 1.5 -2.9375
v -0.000001 3 -2.9375
v -0.000001 3 -2
v -1 1.5 -2.9375
v -1.000001 3 -2.9375
v -1 1.5 -2
v -1.000001 3 -2
v 0.999999 2.5 -2
v 0.999999 3 -2
v 0.999999 3 -3
v 0.999999 2.5 -3
v -2 3 -3
v -2 2.5 -3
v -2 3 -2
v -2 2.5 -2
v 0 1.5 -2
v -0.000001 3 -2
v -0.000001 3 -2.9375
v 0 1.5 -2.9375
v -1.000001 3 -2.9375
v -1 1.5 -2.9375
v -1.000001 3 -2
v -1 1.5 -2
v -2 0.49999899999999986 3
v 3 0.500000249999875 3
v 2.999999 3 3
v -2 2.999998750000125 3
v 2.999999 0.500000249999875 -2
v 3 3 -2
v -2 0.500000249999875 -2
v -2 3 -2
v -0.125 0.500625 -2
v -0.125 0.500625 -2.0625
v -0.125001 3.000625 -2.0625
v -0.125001 3.000625 -2
v -0.875 0.500625 -2.0625
v -0.875001 3.000625 -2.0625
v -0.875 0.500625 -2
v -0.875001 3.000625 -2
v -2 2.999999 3
v 2.999999 3 3
v 2.999999 4 3
v -2.000001 3.999999 3
v 3 3 -2
v 2.999999 4 -2
v -2 3 -2
v -2.000001 4 -2
v 0.999999 3 -2
v 0.999999 4 -2
v -1.937501 4 -2
v -1.9375 3 -2
v -1.937501 3.999999 2.9375
v 2.937499 4 2.9375
v 2.937499 4 -1.9375
v 0.999999 4 -1.9375
v 0.999999 3 -1.9375
v -2 2.999999 3
v -2.000001 3.999999 3
v 2.999999 4 3
v 2.999999 3 3
v 2.999999 4 -2
v 3 3 -2
v -2 3 -2
v -2.000001 4 -2
v 0.999999 4 -2
v 0.999999 3 -2
v -2 0.49999999999999967 3
v -2 0.49999999999999967 2.5
v 3 0.5000000000000003 3
v 3 0.5000000000000003 2.5
v -2 0.49999999999999967 -1.5
v -2 0.49999999999999967 -2
v 3 0.5000000000000003 -2
v 3 0.5000000000000003 -1.5
v -2 0.49999999999999994 2.5
v -2 0.49999999999999994 -1.5
v -1.5 0.5 -1.5
v -1.5 0.5 2.5
v 2.5 0.49999999999999994 2.5
v 2.5 0.49999999999999994 -1.5
v 3 0.5 -1.5
v 3 0.5 2.5
vt 1 0
vt 0.6000000000000003 0
vt 0.5999999999999998 0.050000000000000155
vt 1 0.050000000000000155
vt 1 0
vt 0.6000000000000003 0
vt 0.5999999999999998 0.050000000000000155
vt 1 0.050000000000000155
vt 1 0
vt 0.6000000000000003 0
vt 0.5999999999999998 0.050000000000000155
vt 1 0.050000000000000155
vt 1 0
vt 0.6000000000000003 0
vt 0.5999999999999998 0.050000000000000155
vt 1 0.050000000000000155
vt 1 0.3499999999999991
vt 0.5999999999999999 0.3499999999999991
vt 0.5999999999999999 0.7499999999999994
vt 1 0.7499999999999994
vt 0.5249999999999998 0.8749999999999999
vt 0.5249999999999998 0.8999999999999999
vt 0.5749999999999998 0.8999999999999999
vt 0.5749999999999998 0.8749999999999999
vt 0.5249999999999998 0.8749999999999999
vt 0.5249999999999998 0.8999999999999999
vt 0.5749999999999998 0.8999999999999999
vt 0.5749999999999998 0.8749999999999999
vt 0.5249999999999998 0.8749999999999999
vt 0.5249999999999998 0.8999999999999999
vt 0.5749999999999998 0.8999999999999999
vt 0.5749999999999998 0.8749999999999999
vt 0.5249999999999998 0.8749999999999999
vt 0.5249999999999998 0.8999999999999999
vt 0.5749999999999998 0.8999999999999999
vt 0.5749999999999998 0.8749999999999999
vt 0.4999999999999999 0.8749999999999999
vt 0.4999999999999999 0.8999999999999999
vt 0.5249999999999998 0.8999999999999999
vt 0.5249999999999998 0.8749999999999999
vt 0.5249999999999998 0.8749999999999999
vt 0.5249999999999998 0.8999999999999999
vt 0.5749999999999998 0.8999999999999999
vt 0.5749999999999998 0.8749999999999999
vt 0.5249999999999998 0.8749999999999999
vt 0.5249999999999998 0.8999999999999999
vt 0.5749999999999998 0.8999999999999999
vt 0.5749999999999998 0.8749999999999999
vt 0.5249999999999998 0.8749999999999999
vt 0.5249999999999998 0.8999999999999999
vt 0.5749999999999998 0.8999999999999999
vt 0.5749999999999998 0.8749999999999999
vt 0.5249999999999998 0.8749999999999999
vt 0.5249999999999998 0.8999999999999999
vt 0.5749999999999998 0.8999999999999999
vt 0.5749999999999998 0.8749999999999999
vt 0.4999999999999999 0.8749999999999999
vt 0.4999999999999999 0.8999999999999999
vt 0.5249999999999998 0.8999999999999999
vt 0.5249999999999998 0.8749999999999999
vt 0.5249999999999998 0.8749999999999999
vt 0.5249999999999998 0.8999999999999999
vt 0.5749999999999998 0.8999999999999999
vt 0.5749999999999998 0.8749999999999999
vt 0.5249999999999998 0.8749999999999999
vt 0.5249999999999998 0.8999999999999999
vt 0.5749999999999998 0.8999999999999999
vt 0.5749999999999998 0.8749999999999999
vt 0.5249999999999998 0.8749999999999999
vt 0.5249999999999998 0.8999999999999999
vt 0.5749999999999998 0.8999999999999999
vt 0.5749999999999998 0.8749999999999999
vt 0.5249999999999998 0.8749999999999999
vt 0.5249999999999998 0.8999999999999999
vt 0.5749999999999998 0.8999999999999999
vt 0.5749999999999998 0.8749999999999999
vt 0.4999999999999999 0.8749999999999999
vt 0.4999999999999999 0.8999999999999999
vt 0.5249999999999998 0.8999999999999999
vt 0.5249999999999998 0.8749999999999999
vt 0.5249999999999998 0.8749999999999999
vt 0.5249999999999998 0.8999999999999999
vt 0.5749999999999998 0.8999999999999999
vt 0.5749999999999998 0.8749999999999999
vt 0.5249999999999998 0.8749999999999999
vt 0.5249999999999998 0.8999999999999999
vt 0.5749999999999998 0.8999999999999999
vt 0.5749999999999998 0.8749999999999999
vt 0.5249999999999998 0.8749999999999999
vt 0.5249999999999998 0.8999999999999999
vt 0.5749999999999998 0.8999999999999999
vt 0.5749999999999998 0.8749999999999999
vt 0.5249999999999998 0.8749999999999999
vt 0.5249999999999998 0.8999999999999999
vt 0.5749999999999998 0.8999999999999999
vt 0.5749999999999998 0.8749999999999999
vt 0.4999999999999999 0.8749999999999999
vt 0.4999999999999999 0.8999999999999999
vt 0.5249999999999998 0.8999999999999999
vt 0.5249999999999998 0.8749999999999999
vt 0.8 0.75
vt 0.7 0.75
vt 0.7 0.8
vt 0.8 0.8
vt 1 0.75
vt 0.7 0.75
vt 0.7 0.80625
vt 1 0.80625
vt 0.8 0.75625
vt 0.7 0.75625
vt 0.7 0.8
vt 0.8 0.8
vt 0.7 0.9
vt 1 0.9
vt 1 0.8
vt 0.7 0.8
vt 1 0.8
vt 0.7 0.8
vt 0.7 0.9
vt 1 0.9
vt 0.5000000000000004 0.7062499999999996
vt 0.5937500000000004 0.7062499999999996
vt 0.5937500000000004 0.8562500000000001
vt 0.5000000000000004 0.8562500000000001
vt 0.6000000000000009 0.7062499999999997
vt 0.5000000000000007 0.7062499999999997
vt 0.5000000000000007 0.8562500000000001
vt 0.6000000000000009 0.8562500000000001
vt 0.5937500000000004 0.7062499999999996
vt 0.5000000000000004 0.7062499999999996
vt 0.5000000000000004 0.8562500000000001
vt 0.5937500000000004 0.8562500000000001
vt 0.8 0.75
vt 0.8 0.8
vt 0.7 0.8
vt 0.7 0.75
vt 1 0.75
vt 1 0.80625
vt 0.7 0.80625
vt 0.7 0.75
vt 0.8 0.75625
vt 0.8 0.8
vt 0.7 0.8
vt 0.7 0.75625
vt 0.7 0.9
vt 0.7 0.8
vt 1 0.8
vt 1 0.9
vt 1 0.8
vt 1 0.9
vt 0.7 0.9
vt 0.7 0.8
vt 0.5000000000000004 0.7062499999999996
vt 0.5000000000000004 0.8562500000000001
vt 0.5937500000000004 0.8562500000000001
vt 0.5937500000000004 0.7062499999999996
vt 0.6000000000000009 0.7062499999999997
vt 0.6000000000000009 0.8562500000000001
vt 0.5000000000000007 0.8562500000000001
vt 0.5000000000000007 0.7062499999999997
vt 0.5937500000000004 0.7062499999999996
vt 0.5937500000000004 0.8562500000000001
vt 0.5000000000000004 0.8562500000000001
vt 0.5000000000000004 0.7062499999999996
vt 0 0
vt 0.5000000000000006 0
vt 0.5000000000000006 0.25
vt 0 0.25
vt 1 0.09999999999999976
vt 0.4999999999999997 0.09999999999999976
vt 0.4999999999999997 0.34999999999999987
vt 1 0.34999999999999987
vt 1 0.09999999999999976
vt 0.4999999999999997 0.09999999999999976
vt 0.4999999999999997 0.34999999999999987
vt 1 0.34999999999999987
vt 1 0.09999999999999976
vt 0.4999999999999997 0.09999999999999976
vt 0.4999999999999997 0.34999999999999987
vt 1 0.34999999999999987
vt 0 1
vt 0 0.5
vt 0.5 0.5
vt 0.5 1
vt 0.5875000000000004 0.35000000000000064
vt 0.5812500000000004 0.35000000000000064
vt 0.5812500000000004 0.6000000000000003
vt 0.5875000000000004 0.6000000000000003
vt 0.5875000000000004 0.35000000000000064
vt 0.5125000000000004 0.35000000000000064
vt 0.5125000000000004 0.6000000000000003
vt 0.5875000000000004 0.6000000000000003
vt 0.5875000000000004 0.350000000000001
vt 0.5125000000000004 0.350000000000001
vt 0.5125000000000004 0.35625000000000095
vt 0.5875000000000004 0.35625000000000095
vt 0.5875000000000004 0.350000000000001
vt 0.5125000000000004 0.350000000000001
vt 0.5125000000000004 0.35625000000000095
vt 0.5875000000000004 0.35625000000000095
vt 0.5187500000000004 0.6000000000000003
vt 0.5187500000000004 0.35000000000000064
vt 0.5125000000000004 0.35000000000000064
vt 0.5125000000000004 0.6000000000000003
vt 0.5875000000000004 0.35000000000000064
vt 0.5875000000000004 0.6000000000000003
vt 0.5125000000000004 0.6000000000000003
vt 0.5125000000000004 0.35000000000000064
vt 1 0.9
vt 0.5 0.9
vt 0.5 1
vt 1 1
vt 1 0.9
vt 0.5 0.9
vt 0.5 1
vt 1 1
vt 1 0.9
vt 0.5 0.9
vt 0.5 1
vt 1 1
vt 1 0.9
vt 0.8 0.9
vt 0.8 1
vt 1 1
vt 0.50625 1
vt 0.5125 1
vt 0.5125 0.9
vt 0.50625 0.9
vt 1 0.99375
vt 0.5 0.99375
vt 0.50625 1
vt 1 1
vt 0.5 0.99375
vt 0.50625 1
vt 0.99375 1
vt 1 0.99375
vt 0.99375 0.99375
vt 0.50625 0.99375
vt 0.5 1
vt 1 1
vt 0.8 0.99375
vt 0.8 1
vt 0.99375 1
vt 1 0.99375
vt 0.50625 1
vt 0.5125 1
vt 0.5125 0.9
vt 0.50625 0.9
vt 1 0.9
vt 1 1
vt 0.5 1
vt 0.5 0.9
vt 1 0.9
vt 1 1
vt 0.50625 1
vt 0.50625 0.9
vt 1 0.9
vt 1 1
vt 0.5 1
vt 0.5 0.9
vt 1 0.9
vt 1 1
vt 0.8 1
vt 0.8 0.9
vt 1 0.050000000000001266
vt 1 0.10000000000000153
vt 0.4999999999999996 0.10000000000000153
vt 0.4999999999999996 0.050000000000001266
vt 0.49999999999999956 0.10000000000000153
vt 0.49999999999999956 0.050000000000001266
vt 1 0.050000000000001266
vt 1 0.10000000000000153
vt 0.5500000000000004 0.05000000000000093
vt 0.9499999999999996 0.05000000000000093
vt 0.9499999999999996 0.10000000000000042
vt 0.5500000000000004 0.10000000000000042
vt 0.9499999999999996 0.10000000000000031
vt 0.5500000000000004 0.10000000000000031
vt 0.5500000000000004 0.05000000000000082
vt 0.9499999999999996 0.05000000000000082
vn 0 0 1
vn 0.999999999998 0.000002000000000275556 0
vn 0 0 -1
vn -1 0 0
vn 0 -1 0
vn 0 0 1
vn 1 0 0
vn 0 0 -1
vn -1 0 0
vn 0 -1 0
vn 0 0 1
vn 1 0 0
vn 0 0 -1
vn -1 0 0
vn 0 -1 0
vn 0 0 1
vn 0.999999999998 0.0000019999999998314666 0
vn 0 0 -1
vn -0.999999999998 -0.000002000000000275556 0
vn 0 -1 0
vn 0 0 1
vn 0.999999999998 0.000002000000000275556 0
vn 0 0 -1
vn -0.999999999998 -0.000002000000000275556 0
vn 0 -1 0
vn 1 0 0
vn 0 0 -1
vn -1 0 0
vn 0 -1 0
vn 0 1 0
vn 0.9999999999997778 6.666666666665185e-7 0
vn 0 0 -1
vn -0.9999999999997778 -6.666666666116742e-7 0
vn -1 0 0
vn 0 0 1
vn 1 0 0
vn 0 1 0
vn 0 -1 0
vn -0.9999999999997778 -6.666666666665185e-7 0
vn 0 0 1
vn 0.9999999999997778 6.666666666116742e-7 0
vn 0 0 1
vn 0.9999999999999002 -4.000000400558553e-7 -2.0000000002793564e-7
vn 0 0 -1
vn -1 0 0
vn -2.500000250327192e-7 0.9999999999999689 -5.0000005022943496e-14
vn 0.9999999999999201 4.0000000000036807e-7 0
vn 0 0 -1
vn 0 -1 0
vn 0 1 0
vn -0.9999999999999201 -4.000000000114703e-7 0
vn 0 0 1
vn 0 0 1
vn 0.9999999999994801 0.000001000000000139258 2.000000000278516e-7
vn -0.9999999999995002 -0.0000010000000001392782 -2.0000000005581122e-13
vn 0 0 -1
vn 0 0 -1
vn 2.000000000279469e-7 0.99999999999996 2.000000000279476e-7
vn -2.051282051568689e-7 0.9999999999999579 2.051282051568689e-7
vn 0 1 0
vn 0 1 0
vn -1 0 0
vn 0 0 -1
vn -1 0 0
vn 0.9999999999995002 0.0000010000000001392782 2.0000000004777244e-13
vn 0 0 1
vn 1.3322676295501878e-16 -1 0
vn 1.3322676295501878e-16 -1 0
vn 1.1102230246251565e-16 -1 0
vn 1.1102230246251565e-16 -1 0
usemtl None
f 1/1/1 2/2/1 3/3/1 4/4/1
f 2/5/2 5/6/2 6/7/2 3/8/2
f 5/9/3 7/10/3 8/11/3 6/12/3
f 7/13/4 1/14/4 4/15/4 8/16/4
f 2/17/5 1/18/5 7/19/5 5/20/5
f 9/21/6 10/22/6 11/23/6 12/24/6
f 10/25/7 13/26/7 14/27/7 11/28/7
f 13/29/8 15/30/8 16/31/8 14/32/8
f 15/33/9 9/34/9 12/35/9 16/36/9
f 10/37/10 9/38/10 15/39/10 13/40/10
f 17/41/11 18/42/11 19/43/11 20/44/11
f 18/45/12 21/46/12 22/47/12 19/48/12
f 21/49/13 23/50/13 24/51/13 22/52/13
f 23/53/14 17/54/14 20/55/14 24/56/14
f 18/57/15 17/58/15 23/59/15 21/60/15
f 25/61/16 26/62/16 27/63/16 28/64/16
f 26/65/17 29/66/17 30/67/17 27/68/17
f 29/69/18 31/70/18 32/71/18 30/72/18
f 31/73/19 25/74/19 28/75/19 32/76/19
f 26/77/20 25/78/20 31/79/20 29/80/20
f 33/81/21 34/82/21 35/83/21 36/84/21
f 34/85/22 37/86/22 38/87/22 35/88/22
f 37/89/23 39/90/23 40/91/23 38/92/23
f 39/93/24 33/94/24 36/95/24 40/96/24
f 34/97/25 33/98/25 39/99/25 37/100/25
f 41/101/26 42/102/26 43/103/26 44/104/26
f 42/105/27 45/106/27 46/107/27 43/108/27
f 45/109/28 47/110/28 48/111/28 46/112/28
f 41/113/29 47/114/29 45/115/29 42/116/29
f 43/117/30 46/118/30 48/119/30 44/120/30
f 49/121/31 50/122/31 51/123/31 52/124/31
f 50/125/32 53/126/32 54/127/32 51/128/32
f 53/129/33 55/130/33 56/131/33 54/132/33
f 57/133/34 58/134/34 59/135/34 60/136/34
f 60/137/35 59/138/35 61/139/35 62/140/35
f 62/141/36 61/142/36 63/143/36 64/144/36
f 57/145/37 60/146/37 62/147/37 64/148/37
f 59/149/38 58/150/38 63/151/38 61/152/38
f 65/153/39 66/154/39 67/155/39 68/156/39
f 68/157/40 67/158/40 69/159/40 70/160/40
f 70/161/41 69/162/41 71/163/41 72/164/41
f 73/165/42 74/166/42 75/167/42 76/168/42
f 74/169/43 77/170/43 78/171/43 75/172/43
f 77/173/44 79/174/44 80/175/44 78/176/44
f 79/177/45 73/178/45 76/179/45 80/180/45
f 76/181/46 75/182/46 78/183/46 80/184/46
f 81/185/47 82/186/47 83/187/47 84/188/47
f 82/189/48 85/190/48 86/191/48 83/192/48
f 81/193/49 87/194/49 85/195/49 82/196/49
f 83/197/50 86/198/50 88/199/50 84/200/50
f 86/201/51 85/202/51 87/203/51 88/204/51
f 81/205/52 84/206/52 88/207/52 87/208/52
f 89/209/53 90/210/53 91/211/53 92/212/53
f 90/213/54 93/214/54 94/215/54 91/216/54
f 95/217/55 89/218/55 92/219/55 96/220/55
f 93/221/56 97/222/56 98/223/56 94/224/56
f 96/225/57 99/226/57 100/227/57 95/228/57
f 96/229/58 92/230/58 101/231/58 99/232/58
f 91/233/59 102/234/59 101/235/59 92/236/59
f 103/237/60 102/238/60 91/239/60 94/240/60
f 98/241/61 104/242/61 103/243/61 94/244/61
f 97/245/62 105/246/62 104/247/62 98/248/62
f 106/249/63 107/250/63 108/251/63 109/252/63
f 109/253/64 108/254/64 110/255/64 111/256/64
f 112/257/65 113/258/65 107/259/65 106/260/65
f 111/261/66 110/262/66 114/263/66 115/264/66
f 116/265/67 117/266/67 119/267/67 118/268/67
f 120/269/68 121/270/68 122/271/68 123/272/68
f 124/273/69 125/274/69 126/275/69 127/276/69
f 128/277/70 129/278/70 130/279/70 131/280/70