mtllib pumpjack.mtl

o pumpjack_normal
v 2 0 6
v 2 0.5 6
v -1 0.5 6
v -1 0 6
v -0.999999 0.5 1
v -0.999999 0 1
v 2.000001 0.5 1
v 2.000001 0 1
v 2 2 6
v 1 2 6
v 1 0.5 6
v 1 2 5
v 1 0.5 5
v 2 2 5
v 2 0.5 5
v 0 1 6
v 0 2 6
v -1 2 6
v -1 1 6
v -1 2 5.5
v -1 1 5.5
v 0 2 5.5
v 0 1 5.5
v -0.125 0.5 5.875
v -0.125 1 5.875
v -0.25 1 5.875
v -0.25 0.5 5.875
v -0.25 1 5.625
v -0.25 0.5 5.625
v -0.125 1 5.625
v -0.125 0.5 5.625
v -0.75 0.5 5.875
v -0.75 1 5.875
v -0.875 1 5.875
v -0.875 0.5 5.875
v -0.875 1 5.625
v -0.875 0.5 5.625
v -0.75 1 5.625
v -0.75 0.5 5.625
v 1.000001 0.5 2.6875
v 1.000001 0.875 2.6875
v 0.000001 0.875 2.6875
v 0.000001 0.5 2.6875
v 0.000001 0.5 2.3125
v 0.000001 0.875 2.3125
v 1.000001 0.875 2.3125
v 1.000001 0.5 2.3125
v 0.312501 0.5 2.3125
v 0.312501 0.875 2.3125
v 0.312501 0.875 0.8125
v 0.312501 0.5 0.8125
v 0.687501 0.5 0.8125
v 0.687501 0.875 0.8125
v 0.687501 0.875 2.3125
v 0.687501 0.5 2.3125
v 0.812501 0 0.8125
v 0.812501 1 0.8125
v 0.187501 1 0.8125
v 0.187501 0 0.8125
v 0.187501 1 0.1875
v 0.187501 0 0.1875
v 0.812501 1 0.1875
v 0.812501 0 0.1875
v 0.000001 0.5 3
v 0.000001 1 3
v -1 1 3
v -1 0.5 3
v -0.999999 1 2
v -0.999999 0.5 2
v 0.000001 1 2
v 0.000001 0.5 2
v 2 0.5 3
v 2 1 3
v 1.000001 1 3
v 1.000001 0.5 3
v 1.000001 1 2
v 1.000001 0.5 2
v 2.000001 1 2
v 2.000001 0.5 2
v 1.062501 2.875 2.625
v 1.062501 3.125 2.625
v -0.062499 3.125 2.625
v -0.062499 2.875 2.625
v -0.062499 3.125 2.375
v -0.062499 2.875 2.375
v 1.062501 3.125 2.375
v 1.062501 2.875 2.375
v 0.75 0.5 5
v 0.75 2.25 5
v 0.25 2.25 5
v 0.25 0.5 5
v 0.25 2.25 4
v 0.25 0.5 4
v 0.75 2.25 4
v 0.75 0.5 4
v 1.14921 0.410661 1.480486
v 0.846763 2.951216 2.303142
v 1.094519 2.972318 2.329059
v 1.396966 0.431764 1.506403
v 1.076479 2.893563 2.565643
v 1.378926 0.353008 1.742988
v 0.828723 2.87246 2.539726
v 1.13117 0.331905 1.717071
v 1.396966 0.431764 3.493597
v 1.094519 2.972318 2.670941
v 0.846763 2.951216 2.696858
v 1.14921 0.410661 3.519513
v 0.828723 2.87246 2.460274
v 1.13117 0.331905 3.282929
v 1.076479 2.893563 2.434356
v 1.378926 0.353008 3.257012
v -0.131169 0.331905 3.282929
v -0.378925 0.353008 3.257012
v -0.076477 2.893563 2.434356
v 0.171279 2.87246 2.460274
v -0.396965 0.431764 3.493596
v -0.094518 2.972319 2.67094
v -0.149209 0.410661 3.519513
v 0.153238 2.951216 2.696857
v -0.378924 0.353008 1.742987
v -0.131168 0.331905 1.71707
v 0.171279 2.87246 2.539726
v -0.076477 2.893563 2.565643
v -0.149209 0.410661 1.480486
v 0.153238 2.951216 2.303142
v -0.396965 0.431764 1.506403
v -0.094518 2.972319 2.329059
vt 1 0
vt 1 0.0625
vt 0.625 0.0625
vt 0.625 0
vt 0 0
vt 0 0.0625
vt 0.625 0.0625
vt 0.625 0
vt 1 0
vt 1 0.0625
vt 0.625 0.0625
vt 0.625 0
vt 0.625 0
vt 0.625 0.0625
vt 0 0.0625
vt 0 0
vt 0 0.625
vt 0.625 0.625
vt 0.625 1
vt 0 1
vt 0 0.25
vt 0.625 0.25
vt 0.625 0.625
vt 0 0.625
vt 0.757812 0.5
vt 0.757812 0.6875005
vt 0.632812 0.6875005
vt 0.632812 0.5
vt 0.757812 0.5
vt 0.757812 0.6875005
vt 0.632812 0.6875005
vt 0.632812 0.5
vt 0.757812 0.5
vt 0.757812 0.6875005
vt 0.632812 0.6875005
vt 0.632812 0.5
vt 0.882812 0.5
vt 0.882812 0.6875005
vt 0.757812 0.6875005
vt 0.757812 0.5
vt 0.375 0.125
vt 0.5 0.125
vt 0.5 0.25
vt 0.375 0.25
vt 0.125 0.125
vt 0.125 0.25
vt 0 0.25
vt 0 0.125
vt 0.375 0.125
vt 0.375 0.25
vt 0.3125 0.25
vt 0.3125 0.125
vt 0.375 0.125
vt 0.375 0.25
vt 0.25 0.25
vt 0.25 0.125
vt 0.3125 0.125
vt 0.3125 0.25
vt 0.25 0.25
vt 0.25 0.125
vt 0.25 0.125
vt 0.3125 0.125
vt 0.3125 0.25
vt 0.25 0.25
vt 0.3125 0.125
vt 0.375 0.125
vt 0.375 0.25
vt 0.3125 0.25
vt 0.75 0.929688
vt 0.75 0.992188
vt 0.734375 0.992188
vt 0.734375 0.929688
vt 0.78125 0.929688
vt 0.78125 0.992188
vt 0.75 0.992188
vt 0.75 0.929688
vt 0.75 0.929688
vt 0.75 0.992188
vt 0.734375 0.992188
vt 0.734375 0.929688
vt 0.78125 0.929688
vt 0.78125 0.992188
vt 0.75 0.992188
vt 0.75 0.929688
vt 0.75 0.929688
vt 0.75 0.992188
vt 0.734375 0.992188
vt 0.734375 0.929688
vt 0.78125 0.929688
vt 0.78125 0.992188
vt 0.75 0.992188
vt 0.75 0.929688
vt 0.75 0.929688
vt 0.75 0.992188
vt 0.734375 0.992188
vt 0.734375 0.929688
vt 0.78125 0.929688
vt 0.78125 0.992188
vt 0.75 0.992188
vt 0.75 0.929688
vt 0.125 0.078125
vt 0.125 0.125
vt 0 0.125
vt 0 0.078125
vt 0.125 0.078125
vt 0.125 0.125
vt 0 0.125
vt 0 0.078125
vt 0.375 0.078125
vt 0.375 0.125
vt 0.25 0.125
vt 0.25 0.078125
vt 0.1875 0.078125
vt 0.1875 0.125
vt 0 0.125
vt 0 0.078125
vt 0.1875 0.078125
vt 0.1875 0.125
vt 0 0.125
vt 0 0.078125
vt 0 0.078125
vt 0.1875 0.078125
vt 0.1875 0.125
vt 0 0.125
vt 0.882812 0.765625
vt 0.882812 0.890625
vt 0.804688 0.890625
vt 0.804688 0.765625
vt 0.882812 0.765625
vt 0.882812 0.890625
vt 0.804688 0.890625
vt 0.804688 0.765625
vt 0.882812 0.765625
vt 0.882812 0.890625
vt 0.804688 0.890625
vt 0.804688 0.765625
vt 0.882812 0.765625
vt 0.882812 0.890625
vt 0.804688 0.890625
vt 0.804688 0.765625
vt 0.804688 0.695312
vt 0.882812 0.695312
vt 0.882812 0.773438
vt 0.804688 0.773438
vt 0.804688 0.898438
vt 0.882812 0.898438
vt 0.882812 0.976562
vt 0.804688 0.976562
vt 0.375 0.1875
vt 0.375 0.25
vt 0.25 0.25
vt 0.25 0.1875
vt 0.25 0.1875
vt 0.25 0.25
vt 0.125 0.25
vt 0.125 0.1875
vt 0.375 0.1875
vt 0.375 0.25
vt 0.25 0.25
vt 0.25 0.1875
vt 0.375 0.1875
vt 0.375 0.25
vt 0.25 0.25
vt 0.25 0.1875
vt 0.25 0.125
vt 0.375 0.125
vt 0.375 0.25
vt 0.25 0.25
vt 0.375 0.1875
vt 0.375 0.25
vt 0.25 0.25
vt 0.25 0.1875
vt 0.375 0.1875
vt 0.375 0.25
vt 0.25 0.25
vt 0.25 0.1875
vt 0.375 0.1875
vt 0.375 0.25
vt 0.25 0.25
vt 0.25 0.1875
vt 0.125 0.1875
vt 0.125 0.25
vt 0.25 0.25
vt 0.25 0.1875
vt 0.25 0.125
vt 0.375 0.125
vt 0.375 0.25
vt 0.25 0.25
vt 0.75 0.0625
vt 0.75 0.09375
vt 0.609375 0.09375
vt 0.609375 0.0625
vt 0.8125 0.0625
vt 0.8125 0.09375
vt 0.78125 0.09375
vt 0.78125 0.0625
vt 0.75 0.0625
vt 0.75 0.09375
vt 0.609375 0.09375
vt 0.609375 0.0625
vt 0.8125 0.0625
vt 0.8125 0.09375
vt 0.78125 0.09375
vt 0.78125 0.0625
vt 0.78125 0.0625
vt 0.78125 0.09375
vt 0.640625 0.09375
vt 0.640625 0.0625
vt 0.78125 0.0625
vt 0.78125 0.09375
vt 0.640625 0.09375
vt 0.640625 0.0625
vt 0.875 0.0625
vt 0.875 0.28125
vt 0.8125 0.28125
vt 0.8125 0.0625
vt 1 0.0625
vt 1 0.28125
vt 0.875 0.28125
vt 0.875 0.0625
vt 0.875 0.0625
vt 0.875 0.28125
vt 0.8125 0.28125
vt 0.8125 0.0625
vt 1 0.0625
vt 1 0.28125
vt 0.875 0.28125
vt 0.875 0.0625
vt 1 0.34375
vt 0.875 0.34375
vt 0.875 0.28125
vt 1 0.28125
vt 0.914062 0.664062
vt 0.914062 1
vt 0.882812 1
vt 0.882812 0.664062
vt 0.945312 0.664062
vt 0.945312 1
vt 0.914062 1
vt 0.914062 0.664062
vt 0.914062 0.664062
vt 0.914062 1
vt 0.882812 1
vt 0.882812 0.664062
vt 0.945312 0.664062
vt 0.945312 1
vt 0.914062 1
vt 0.914062 0.664062
vt 0.882812 0.632812
vt 0.914062 0.632812
vt 0.914062 0.664062
vt 0.882812 0.664062
vt 0.914062 0.664062
vt 0.914062 1
vt 0.882812 1
vt 0.882812 0.664062
vt 0.945312 0.664062
vt 0.945312 1
vt 0.914062 1
vt 0.914062 0.664062
vt 0.914062 0.664062
vt 0.914062 1
vt 0.882812 1
vt 0.882812 0.664062
vt 0.945312 0.664062
vt 0.945312 1
vt 0.914062 1
vt 0.914062 0.664062
vt 0.882812 0.632812
vt 0.914062 0.632812
vt 0.914062 0.664062
vt 0.882812 0.664062
vt 0.882812 0.664062
vt 0.914062 0.664062
vt 0.914062 1
vt 0.882812 1
vt 0.914062 0.664062
vt 0.945312 0.664062
vt 0.945312 1
vt 0.914062 1
vt 0.882812 0.664062
vt 0.914062 0.664062
vt 0.914062 1
vt 0.882812 1
vt 0.914062 0.664062
vt 0.945312 0.664062
vt 0.945312 1
vt 0.914062 1
vt 0.882812 0.632812
vt 0.914062 0.632812
vt 0.914062 0.664062
vt 0.882812 0.664062
vt 0.882812 0.664062
vt 0.914062 0.664062
vt 0.914062 1
vt 0.882812 1
vt 0.914062 0.664062
vt 0.945312 0.664062
vt 0.945312 1
vt 0.914062 1
vt 0.882812 0.664062
vt 0.914062 0.664062
vt 0.914062 1
vt 0.882812 1
vt 0.914062 0.664062
vt 0.945312 0.664062
vt 0.945312 1
vt 0.914062 1
vt 0.882812 0.632812
vt 0.914062 0.632812
vt 0.914062 0.664062
vt 0.882812 0.664062
vn 0 0 1
vn -0.9999999999999801 0 -2.0000000000574716e-7
vn 0 0 -1
vn 0.9999999999999801 0 2.000000000279516e-7
vn 0 -1 0
vn 0 1 0
vn 0 0 1
vn -1 0 0
vn 0 0 -1
vn 1 0 0
vn 0 1 0
vn 0 0 1
vn -1 0 0
vn 0 0 -1
vn 1 0 0
vn 0 -1 0
vn 0 1 0
vn 0 0 1
vn -1 0 0
vn 0 0 -1
vn 1 0 0
vn 0 0 1
vn -1 0 0
vn 0 0 -1
vn 1 0 0
vn 0 0 1
vn 0 0 -1
vn 0 1 0
vn -1 0 0
vn 1 0 0
vn 0 1 0
vn 0 0 1
vn -1 0 0
vn 0 0 -1
vn 1 0 0
vn 0 -1 0
vn 0 1 0
vn 0 0 1
vn -0.9999999999995002 0 -0.000001000000000028256
vn 0 0 -1
vn 1 0 0
vn 0 1 0
vn 0 0 1
vn -1 0 0
vn 0 0 -1
vn 0.9999999999995002 0 0.0000010000000001392782
vn 0 1 0
vn 0 0 1
vn -1 0 0
vn 0 0 -1
vn 1 0 0
vn 0 -1 0
vn 0 1 0
vn 0 0 1
vn -1 0 0
vn 0 0 -1
vn 1 0 0
vn 0 1 0
vn 0.07216203479984265 0.31502353213332607 -0.9463365230909085
vn 0.9910237445782383 0.08441082663183633 0.10366653283223615
vn -0.07216082564557687 -0.31502309289645164 0.9463367615094018
vn -0.9910237194075558 -0.08441072703952356 -0.10366685454991506
vn -0.1125360011466622 0.9453238720468425 0.30610198526681165
vn 0.07216202160856133 0.31502364294227875 0.9463364872098832
vn -0.9910237194075558 -0.08441072703952363 0.1036668545499151
vn -0.07216457701013929 -0.315023412417007 -0.946336369085587
vn 0.9910237780349891 0.08441092756969432 -0.10366613080500686
vn -0.11253627401322452 0.945322680852979 -0.3061055636478327
vn 0.07216078299565758 -0.315023451150884 -0.9463366455033011
vn -0.9910237237485833 0.0844106905749262 -0.10366684274229583
vn -0.07216078601741271 0.3150234257684772 0.9463366537223643
vn 0.9910236779085715 -0.08441107563004534 0.10366696742717392
vn 0.11254007723165935 0.9453221177608646 -0.30610590436776325
vn 0.07216078601741355 -0.31502342576847725 0.9463366537223642
vn 0.9910234376911381 -0.08440944179147386 -0.10367059411082377
vn -0.07216078601741356 0.31502342576847736 -0.9463366537223642
vn -0.9910234376911379 0.08440944179147378 0.10367059411082383
vn 0.11253998887640737 0.9453225034842165 0.3061047456509481
usemtl None
f 1/1/1 2/2/1 3/3/1 4/4/1
f 4/5/2 3/6/2 5/7/2 6/8/2
f 6/9/3 5/10/3 7/11/3 8/12/3
f 8/13/4 7/14/4 2/15/4 1/16/4
f 4/17/5 6/18/5 8/19/5 1/20/5
f 5/21/6 3/22/6 2/23/6 7/24/6
f 2/25/7 9/26/7 10/27/7 11/28/7
f 11/29/8 10/30/8 12/31/8 13/32/8
f 13/33/9 12/34/9 14/35/9 15/36/9
f 15/37/10 14/38/10 9/39/10 2/40/10
f 12/41/11 10/42/11 9/43/11 14/44/11
f 16/45/12 17/46/12 18/47/12 19/48/12
f 19/49/13 18/50/13 20/51/13 21/52/13
f 21/53/14 20/54/14 22/55/14 23/56/14
f 23/57/15 22/58/15 17/59/15 16/60/15
f 19/61/16 21/62/16 23/63/16 16/64/16
f 20/65/17 18/66/17 17/67/17 22/68/17
f 24/69/18 25/70/18 26/71/18 27/72/18
f 27/73/19 26/74/19 28/75/19 29/76/19
f 29/77/20 28/78/20 30/79/20 31/80/20
f 31/81/21 30/82/21 25/83/21 24/84/21
f 32/85/22 33/86/22 34/87/22 35/88/22
f 35/89/23 34/90/23 36/91/23 37/92/23
f 37/93/24 36/94/24 38/95/24 39/96/24
f 39/97/25 38/98/25 33/99/25 32/100/25
f 40/101/26 41/102/26 42/103/26 43/104/26
f 44/105/27 45/106/27 46/107/27 47/108/27
f 45/109/28 42/110/28 41/111/28 46/112/28
f 48/113/29 49/114/29 50/115/29 51/116/29
f 52/117/30 53/118/30 54/119/30 55/120/30
f 50/121/31 49/122/31 54/123/31 53/124/31
f 56/125/32 57/126/32 58/127/32 59/128/32
f 59/129/33 58/130/33 60/131/33 61/132/33
f 61/133/34 60/134/34 62/135/34 63/136/34
f 63/137/35 62/138/35 57/139/35 56/140/35
f 59/141/36 61/142/36 63/143/36 56/144/36
f 60/145/37 58/146/37 57/147/37 62/148/37
f 64/149/38 65/150/38 66/151/38 67/152/38
f 67/153/39 66/154/39 68/155/39 69/156/39
f 69/157/40 68/158/40 70/159/40 71/160/40
f 71/161/41 70/162/41 65/163/41 64/164/41
f 68/165/42 66/166/42 65/167/42 70/168/42
f 72/169/43 73/170/43 74/171/43 75/172/43
f 75/173/44 74/174/44 76/175/44 77/176/44
f 77/177/45 76/178/45 78/179/45 79/180/45
f 79/181/46 78/182/46 73/183/46 72/184/46
f 76/185/47 74/186/47 73/187/47 78/188/47
f 80/189/48 81/190/48 82/191/48 83/192/48
f 83/193/49 82/194/49 84/195/49 85/196/49
f 85/197/50 84/198/50 86/199/50 87/200/50
f 87/201/51 86/202/51 81/203/51 80/204/51
f 83/205/52 85/206/52 87/207/52 80/208/52
f 84/209/53 82/210/53 81/211/53 86/212/53
f 88/213/54 89/214/54 90/215/54 91/216/54
f 91/217/55 90/218/55 92/219/55 93/220/55
f 93/221/56 92/222/56 94/223/56 95/224/56
f 95/225/57 94/226/57 89/227/57 88/228/57
f 92/229/58 90/230/58 89/231/58 94/232/58
f 96/233/59 97/234/59 98/235/59 99/236/59
f 99/237/60 98/238/60 100/239/60 101/240/60
f 101/241/61 100/242/61 102/243/61 103/244/61
f 103/245/62 102/246/62 97/247/62 96/248/62
f 100/249/63 98/250/63 97/251/63 102/252/63
f 104/253/64 105/254/64 106/255/64 107/256/64
f 107/257/65 106/258/65 108/259/65 109/260/65
f 109/261/66 108/262/66 110/263/66 111/264/66
f 111/265/67 110/266/67 105/267/67 104/268/67
f 108/269/68 106/270/68 105/271/68 110/272/68
f 112/273/69 113/274/69 114/275/69 115/276/69
f 113/277/70 116/278/70 117/279/70 114/280/70
f 116/281/71 118/282/71 119/283/71 117/284/71
f 118/285/72 112/286/72 115/287/72 119/288/72
f 117/289/73 119/290/73 115/291/73 114/292/73
f 120/293/74 121/294/74 122/295/74 123/296/74
f 121/297/75 124/298/75 125/299/75 122/300/75
f 124/301/76 126/302/76 127/303/76 125/304/76
f 126/305/77 120/306/77 123/307/77 127/308/77
f 125/309/78 127/310/78 123/311/78 122/312/78