mtllib e_meter.mtl

o base
v 1 -0.625 0
v 1 -0.625 1
v 1 -1 1
v 1 -1 0
v 0 -0.625 1
v 0 -1 1
v 0 -0.625 0
v 0 -1 0
v 0.75 -0.625 0.75
v 0.25 -0.625 0.75
v 0.75 -0.625 0.25
v 0.25 -0.625 0.25
v 0.25 -0.5625 0.25
v 0.75 -0.5625 0.25
v 0.25 -0.5625 0.75
v 0.1875 -0.5625 0.8125
v 0.1875 -0.5625 0.1875
v 0.75 -0.5625 0.75
v 0.1875 -0.4375 0.8125
v 0.1875 -0.4375 0.1875
v 0.8125 -0.5625 0.1875
v 0.8125 -0.5625 0.8125
v 0.8125 -0.4375 0.1875
v 0.25 -0.4375 0.25
v 0.75 -0.4375 0.25
v 0.8125 -0.4375 0.8125
v 0.25 -0.4375 0.75
v 0.25 -0.375 0.75
v 0.25 -0.375 0.25
v 0.75 -0.4375 0.75
v 0.75 -0.375 0.75
v 0.75 -0.375 0.25
v 0.8125 -0.375 0.1875
v 0.8125 -0.375 0.8125
v 0.1875 -0.375 0.1875
v 0.1875 -0.25 0.1875
v 0.8125 -0.25 0.1875
v 0.1875 -0.375 0.8125
v 0.1875 -0.25 0.8125
v 0.25 -0.25 0.75
v 0.25 -0.25 0.25
v 0.8125 -0.25 0.8125
v 0.75 -0.25 0.25
v 0.25 -0.1875 0.25
v 0.75 -0.1875 0.25
v 0.75 -0.25 0.75
v 0.25 -0.1875 0.75
v 0.75 -0.1875 0.75
v 0.8125 -0.1875 0.8125
v 0.1875 -0.1875 0.8125
v 0.1875 -0.1875 0.1875
v 0.1875 -0.0625 0.8125
v 0.1875 -0.0625 0.1875
v 0.8125 -0.1875 0.1875
v 0.8125 -0.0625 0.1875
v 0.25 -0.0625 0.25
v 0.75 -0.0625 0.25
v 0.8125 -0.0625 0.8125
v 0.25 -0.0625 0.75
v 0.25 0 0.75
v 0.25 0 0.25
v 0.75 -0.0625 0.75
v 0.75 0 0.75
v 0.8125 0 0.8125
v 0.1875 0 0.8125
v 0.75 0 0.25
v 0.8125 0.1875 0.1875
v 0.1875 0.1875 0.1875
v 0.1875 0.8125 0.1875
v 0.8125 0.8125 0.1875
v 0.1875 0 0.1875
v 0.8125 0 0.1875
v 0.1875 0.8125 0.8125
v 0.1875 0.1875 0.8125
v 0.1875 0.1875 0.1875
v 0.1875 0.1875 0.8125
v 0.8125 0.1875 0.8125
v 0.8125 0.8125 0.8125
v 0.8125 0.1875 0.8125
v 0.8125 0.1875 0.1875
v 0.8125 0.8125 0.1875
v 0.8125 0.8125 0.8125
v 0.1875 0.8125 0.1875
v 0.1875 0.8125 0.8125
v 0.8125 0.125 0.1875
v 0.8125 0.125 0.8125
v 0.1875 0.125 0.8125
v 0.1875 0.125 0.1875
v 0.75 0.125 0.75
v 0.25 0.125 0.75
v 0.25 0.125 0.25
v 0.75 0.125 0.25
v 0.75 0.1875 0.25
v 0.75 0.1875 0.75
v 0.25 0.1875 0.75
v 0.25 0.1875 0.25
vt 0.5 0.6875
vt 1 0.6875
vt 1 0.5
vt 0.5 0.5
vt 1 0.6875
vt 0.5 0.6875
vt 0.5 0.5
vt 1 0.5
vt 1 0.6875
vt 0.5 0.6875
vt 0.5 0.5
vt 1 0.5
vt 1 0.6875
vt 0.5 0.6875
vt 0.5 0.5
vt 1 0.5
vt 0.5 0.5
vt 0.5 0
vt 1 0
vt 1 0.5
vt 1 0.5
vt 0.5 0.5
vt 0.625 0.375
vt 0.875 0.375
vt 0.9375 0.96875
vt 0.9375 0.71875
vt 0.96875 0.71875
vt 0.96875 0.96875
vt 1 0
vt 1 0.5
vt 0.875 0.375
vt 0.875 0.125
vt 0.5 0.5
vt 0.5 0
vt 0.625 0.125
vt 0.625 0.375
vt 0.5 0
vt 1 0
vt 0.875 0.125
vt 0.625 0.125
vt 0.6875 0.96875
vt 0.6875 0.71875
vt 0.71875 0.6875
vt 0.71875 1
vt 0.9375 0.96875
vt 0.9375 0.71875
vt 0.96875 0.71875
vt 0.96875 0.96875
vt 0.9375 0.96875
vt 0.9375 0.71875
vt 0.96875 0.71875
vt 0.96875 0.96875
vt 0.9375 0.96875
vt 0.9375 0.71875
vt 0.96875 0.71875
vt 0.96875 0.96875
vt 0.65625 1
vt 0.65625 0.6875
vt 0.71875 0.6875
vt 0.71875 1
vt 0.6875 0.96875
vt 0.6875 0.71875
vt 0.71875 0.6875
vt 0.71875 1
vt 0.6875 0.96875
vt 0.6875 0.71875
vt 0.71875 0.6875
vt 0.71875 1
vt 0.6875 0.96875
vt 0.6875 0.71875
vt 0.71875 0.6875
vt 0.71875 1
vt 0.6875 1
vt 0.6875 0.6875
vt 0.71875 0.71875
vt 0.71875 0.96875
vt 0.65625 1
vt 0.65625 0.6875
vt 0.71875 0.6875
vt 0.71875 1
vt 0.65625 1
vt 0.65625 0.6875
vt 0.71875 0.6875
vt 0.71875 1
vt 0.65625 1
vt 0.65625 0.6875
vt 0.71875 0.6875
vt 0.71875 1
vt 0.9375 0.96875
vt 0.9375 0.71875
vt 0.96875 0.71875
vt 0.96875 0.96875
vt 1 0.6875
vt 1 1
vt 0.96875 0.96875
vt 0.96875 0.71875
vt 0.6875 0.6875
vt 1 0.6875
vt 0.96875 0.71875
vt 0.71875 0.71875
vt 1 1
vt 0.6875 1
vt 0.71875 0.96875
vt 0.96875 0.96875
vt 0.6875 0.96875
vt 0.6875 0.71875
vt 0.71875 0.6875
vt 0.71875 1
vt 0.9375 0.96875
vt 0.9375 0.71875
vt 0.96875 0.71875
vt 0.96875 0.96875
vt 0.9375 0.96875
vt 0.9375 0.71875
vt 0.96875 0.71875
vt 0.96875 0.96875
vt 0.9375 0.96875
vt 0.9375 0.71875
vt 0.96875 0.71875
vt 0.96875 0.96875
vt 0.65625 1
vt 0.65625 0.6875
vt 0.71875 0.6875
vt 0.71875 1
vt 0.6875 0.96875
vt 0.6875 0.71875
vt 0.71875 0.6875
vt 0.71875 1
vt 0.6875 0.96875
vt 0.6875 0.71875
vt 0.71875 0.6875
vt 0.71875 1
vt 0.6875 0.96875
vt 0.6875 0.71875
vt 0.71875 0.6875
vt 0.71875 1
vt 1 0.6875
vt 1 1
vt 0.96875 0.96875
vt 0.96875 0.71875
vt 0.65625 1
vt 0.65625 0.6875
vt 0.71875 0.6875
vt 0.71875 1
vt 0.65625 1
vt 0.65625 0.6875
vt 0.71875 0.6875
vt 0.71875 1
vt 0.65625 1
vt 0.65625 0.6875
vt 0.71875 0.6875
vt 0.71875 1
vt 0.9375 0.96875
vt 0.9375 0.71875
vt 0.96875 0.71875
vt 0.96875 0.96875
vt 0.6875 1
vt 0.6875 0.6875
vt 0.71875 0.71875
vt 0.71875 0.96875
vt 0.6875 0.6875
vt 1 0.6875
vt 0.96875 0.71875
vt 0.71875 0.71875
vt 1 1
vt 0.6875 1
vt 0.71875 0.96875
vt 0.96875 0.96875
vt 0.6875 0.96875
vt 0.6875 0.71875
vt 0.71875 0.6875
vt 0.71875 1
vt 0.9375 0.96875
vt 0.9375 0.71875
vt 0.96875 0.71875
vt 0.96875 0.96875
vt 0.9375 0.96875
vt 0.9375 0.71875
vt 0.96875 0.71875
vt 0.96875 0.96875
vt 0.9375 0.96875
vt 0.9375 0.71875
vt 0.96875 0.71875
vt 0.96875 0.96875
vt 0.65625 1
vt 0.65625 0.6875
vt 0.71875 0.6875
vt 0.71875 1
vt 0.6875 0.96875
vt 0.6875 0.71875
vt 0.71875 0.6875
vt 0.71875 1
vt 0.6875 0.96875
vt 0.6875 0.71875
vt 0.71875 0.6875
vt 0.71875 1
vt 0.6875 0.96875
vt 0.6875 0.71875
vt 0.71875 0.6875
vt 0.71875 1
vt 0.6875 0.6875
vt 1 0.6875
vt 0.96875 0.71875
vt 0.71875 0.71875
vt 0.65625 1
vt 0.65625 0.6875
vt 0.71875 0.6875
vt 0.71875 1
vt 0.65625 1
vt 0.65625 0.6875
vt 0.71875 0.6875
vt 0.71875 1
vt 0.65625 1
vt 0.65625 0.6875
vt 0.71875 0.6875
vt 0.71875 1
vt 0.9375 0.96875
vt 0.9375 0.71875
vt 0.96875 0.71875
vt 0.96875 0.96875
vt 1 1
vt 0.6875 1
vt 0.71875 0.96875
vt 0.96875 0.96875
vt 1 0.6875
vt 1 1
vt 0.96875 0.96875
vt 0.96875 0.71875
vt 0.6875 1
vt 0.6875 0.6875
vt 0.71875 0.71875
vt 0.71875 0.96875
vt 0.6875 0.96875
vt 0.6875 0.71875
vt 0.71875 0.6875
vt 0.71875 1
vt 0.9375 0.96875
vt 0.9375 0.71875
vt 0.96875 0.71875
vt 0.96875 0.96875
vt 0.9375 0.96875
vt 0.9375 0.71875
vt 0.96875 0.71875
vt 0.96875 0.96875
vt 0.9375 0.96875
vt 0.9375 0.71875
vt 0.96875 0.71875
vt 0.96875 0.96875
vt 0 0.0625
vt 0.3125 0.0625
vt 0.3125 0.375
vt 0 0.375
vt 0.6875 0.96875
vt 0.6875 0.71875
vt 0.71875 0.6875
vt 0.71875 1
vt 0.6875 0.96875
vt 0.6875 0.71875
vt 0.71875 0.6875
vt 0.71875 1
vt 0.6875 0.96875
vt 0.6875 0.71875
vt 0.71875 0.6875
vt 0.71875 1
vt 0 0.6875
vt 0.3125 0.6875
vt 0.3125 1
vt 0 1
vt 0 0.375
vt 0.3125 0.375
vt 0.3125 0.6875
vt 0 0.6875
vt 0.625 0.6875
vt 0.625 1
vt 0.3125 1
vt 0.3125 0.6875
vt 0 0.375
vt 0.3125 0.375
vt 0.3125 0.6875
vt 0 0.6875
vt 0.65625 1
vt 0.65625 0.6875
vt 0.71875 0.6875
vt 0.71875 1
vt 0.65625 1
vt 0.65625 0.6875
vt 0.71875 0.6875
vt 0.71875 1
vt 0.65625 1
vt 0.65625 0.6875
vt 0.71875 0.6875
vt 0.71875 1
vt 0.65625 1
vt 0.65625 0.6875
vt 0.71875 0.6875
vt 0.71875 1
vt 1 1
vt 0.6875 1
vt 0.71875 0.96875
vt 0.96875 0.96875
vt 0.6875 0.6875
vt 1 0.6875
vt 0.96875 0.71875
vt 0.71875 0.71875
vt 0.6875 1
vt 0.6875 0.6875
vt 0.71875 0.71875
vt 0.71875 0.96875
vt 1 0.6875
vt 1 1
vt 0.96875 0.96875
vt 0.96875 0.71875
vt 0.9375 0.96875
vt 0.9375 0.71875
vt 0.96875 0.71875
vt 0.96875 0.96875
vt 0.9375 0.96875
vt 0.9375 0.71875
vt 0.96875 0.71875
vt 0.96875 0.96875
vt 0.9375 0.96875
vt 0.9375 0.71875
vt 0.96875 0.71875
vt 0.96875 0.96875
vt 0.9375 0.96875
vt 0.9375 0.71875
vt 0.96875 0.71875
vt 0.96875 0.96875
vt 0.3125 1
vt 0.34375 0.96875
vt 0.59375 0.96875
vt 0.625 1
vt 0.625 0.6875
vt 0.59375 0.71875
vt 0.34375 0.71875
vt 0.3125 0.6875
vt 0.3125 0.6875
vt 0.34375 0.71875
vt 0.34375 0.96875
vt 0.3125 1
vt 0.625 1
vt 0.59375 0.96875
vt 0.59375 0.71875
vt 0.625 0.6875
vn 1 0 0
vn 0 0 1
vn -1 0 0
vn 0 0 -1
vn 0 -1 0
vn 0 1 0
vn 0 0 -1
vn 0 1 0
vn 0 1 0
vn 0 1 0
vn 0 -1 0
vn 0 0 1
vn -1 0 0
vn 1 0 0
vn -1 0 0
vn 0 -1 0
vn 0 -1 0
vn 0 -1 0
vn 0 1 0
vn 1 0 0
vn 0 0 -1
vn 0 0 1
vn -1 0 0
vn 0 1 0
vn 0 1 0
vn 0 1 0
vn 0 -1 0
vn 1 0 0
vn 0 0 -1
vn 0 0 1
vn 0 0 -1
vn 0 -1 0
vn 0 -1 0
vn 0 -1 0
vn 0 1 0
vn 0 0 1
vn -1 0 0
vn 1 0 0
vn 0 0 -1
vn 0 1 0
vn 0 1 0
vn 0 1 0
vn 0 -1 0
vn 0 0 1
vn -1 0 0
vn 1 0 0
vn -1 0 0
vn 0 -1 0
vn 0 -1 0
vn 0 -1 0
vn 0 1 0
vn 1 0 0
vn 0 0 -1
vn 0 0 1
vn -1 0 0
vn 0 1 0
vn 0 1 0
vn 0 1 0
vn 0 -1 0
vn 1 0 0
vn 0 0 -1
vn 0 0 1
vn 0 0 -1
vn 0 -1 0
vn 0 -1 0
vn 0 -1 0
vn 0 0 1
vn 1 0 0
vn 0 1 0
vn -1 0 0
vn 1 0 0
vn -1 0 0
vn 0 0 1
vn 0 0 -1
vn 0 1 0
vn 0 1 0
vn 0 1 0
vn 0 1 0
vn 1 0 0
vn -1 0 0
vn 0 0 1
vn 0 0 -1
vn 0 -1 0
vn 0 -1 0
vn 0 -1 0
vn 0 -1 0
usemtl m_d4ecc141-d251-a352-9322-4f340e067d54
f 1/1/1 2/2/1 3/3/1 4/4/1
f 2/5/2 5/6/2 6/7/2 3/8/2
f 5/9/3 7/10/3 8/11/3 6/12/3
f 7/13/4 1/14/4 4/15/4 8/16/4
f 4/17/5 3/18/5 6/19/5 8/20/5
f 5/21/6 2/22/6 9/23/6 10/24/6
f 11/25/7 12/26/7 13/27/7 14/28/7
f 7/29/8 5/30/8 10/31/8 12/32/8
f 2/33/9 1/34/9 11/35/9 9/36/9
f 1/37/10 7/38/10 12/39/10 11/40/10
f 13/41/11 15/42/11 16/43/11 17/44/11
f 10/45/12 9/46/12 18/47/12 15/48/12
f 12/49/13 10/50/13 15/51/13 13/52/13
f 9/53/14 11/54/14 14/55/14 18/56/14
f 17/57/15 16/58/15 19/59/15 20/60/15
f 18/61/16 14/62/16 21/63/16 22/64/16
f 14/65/17 13/66/17 17/67/17 21/68/17
f 15/69/18 18/70/18 22/71/18 16/72/18
f 23/73/19 20/74/19 24/75/19 25/76/19
f 22/77/20 21/78/20 23/79/20 26/80/20
f 21/81/21 17/82/21 20/83/21 23/84/21
f 16/85/22 22/86/22 26/87/22 19/88/22
f 24/89/23 27/90/23 28/91/23 29/92/23
f 19/93/24 26/94/24 30/95/24 27/96/24
f 20/97/25 19/98/25 27/99/25 24/100/25
f 26/101/26 23/102/26 25/103/26 30/104/26
f 31/105/27 32/106/27 33/107/27 34/108/27
f 30/109/28 25/110/28 32/111/28 31/112/28
f 25/113/29 24/114/29 29/115/29 32/116/29
f 27/117/30 30/118/30 31/119/30 28/120/30
f 33/121/31 35/122/31 36/123/31 37/124/31
f 32/125/32 29/126/32 35/127/32 33/128/32
f 28/129/33 31/130/33 34/131/33 38/132/33
f 29/133/34 28/134/34 38/135/34 35/136/34
f 36/137/35 39/138/35 40/139/35 41/140/35
f 38/141/36 34/142/36 42/143/36 39/144/36
f 35/145/37 38/146/37 39/147/37 36/148/37
f 34/149/38 33/150/38 37/151/38 42/152/38
f 43/153/39 41/154/39 44/155/39 45/156/39
f 42/157/40 37/158/40 43/159/40 46/160/40
f 37/161/41 36/162/41 41/163/41 43/164/41
f 39/165/42 42/166/42 46/167/42 40/168/42
f 47/169/43 48/170/43 49/171/43 50/172/43
f 40/173/44 46/174/44 48/175/44 47/176/44
f 41/177/45 40/178/45 47/179/45 44/180/45
f 46/181/46 43/182/46 45/183/46 48/184/46
f 51/185/47 50/186/47 52/187/47 53/188/47
f 44/189/48 47/190/48 50/191/48 51/192/48
f 48/193/49 45/194/49 54/195/49 49/196/49
f 45/197/50 44/198/50 51/199/50 54/200/50
f 55/201/51 53/202/51 56/203/51 57/204/51
f 49/205/52 54/206/52 55/207/52 58/208/52
f 54/209/53 51/210/53 53/211/53 55/212/53
f 50/213/54 49/214/54 58/215/54 52/216/54
f 56/217/55 59/218/55 60/219/55 61/220/55
f 52/221/56 58/222/56 62/223/56 59/224/56
f 53/225/57 52/226/57 59/227/57 56/228/57
f 58/229/58 55/230/58 57/231/58 62/232/58
f 60/233/59 63/234/59 64/235/59 65/236/59
f 62/237/60 57/238/60 66/239/60 63/240/60
f 57/241/61 56/242/61 61/243/61 66/244/61
f 59/245/62 62/246/62 63/247/62 60/248/62
f 67/249/63 68/250/63 69/251/63 70/252/63
f 66/253/64 61/254/64 71/255/64 72/256/64
f 63/257/65 66/258/65 72/259/65 64/260/65
f 61/261/66 60/262/66 65/263/66 71/264/66
f 76/265/67 77/266/67 78/267/67 73/268/67
f 79/269/68 80/270/68 81/271/68 82/272/68
f 83/273/69 84/274/69 82/275/69 81/276/69
f 75/277/70 74/278/70 84/279/70 83/280/70
f 64/281/71 72/282/71 85/283/71 86/284/71
f 71/285/72 65/286/72 87/287/72 88/288/72
f 65/289/73 64/290/73 86/291/73 87/292/73
f 72/293/74 71/294/74 88/295/74 85/296/74
f 87/297/75 86/298/75 89/299/75 90/300/75
f 85/301/76 88/302/76 91/303/76 92/304/76
f 86/305/77 85/306/77 92/307/77 89/308/77
f 88/309/78 87/310/78 90/311/78 91/312/78
f 89/313/79 92/314/79 93/315/79 94/316/79
f 91/317/80 90/318/80 95/319/80 96/320/80
f 90/321/81 89/322/81 94/323/81 95/324/81
f 92/325/82 91/326/82 96/327/82 93/328/82
f 67/329/83 93/330/83 96/331/83 68/332/83
f 76/333/84 95/334/84 94/335/84 77/336/84
f 77/337/85 94/338/85 93/339/85 67/340/85
f 68/341/86 96/342/86 95/343/86 76/344/86