mtllib seismic_survey_tool_barrel.mtl

o barrel
v 0.6250002154578139 1.5 0.374999784542186
v 0.6250002154578139 2.75 0.374999784542186
v 0.625000215457814 2.75 0.6250002154578139
v 0.625000215457814 1.5 0.6250002154578139
v 0.374999784542186 2.75 0.625000215457814
v 0.374999784542186 1.5 0.625000215457814
v 0.374999784542186 2.75 0.374999784542186
v 0.374999784542186 1.5 0.374999784542186
vt 0.5625 0.6875
vt 0.5625 1
vt 0.5 1
vt 0.5 0.6875
vt 0.5625 0.6875
vt 0.5625 1
vt 0.5 1
vt 0.5 0.6875
vt 0.5 1
vt 0.5 0.6875
vt 0.5625 0.6875
vt 0.5625 1
vt 0.5625 0.6875
vt 0.5625 1
vt 0.5 1
vt 0.5 0.6875
vt 0.5 0.5625
vt 0.5625 0.5625
vt 0.5625 0.625
vt 0.5 0.625
vn 1 0 -2.220442221957296e-16
vn 2.2204422219572955e-16 0 1
vn -1 0 0
vn 0 0 -1
vn 0 1 0
usemtl None
f 1/1/1 2/2/1 3/3/1 4/4/1
f 4/5/2 3/6/2 5/7/2 6/8/2
f 6/9/3 5/10/3 7/11/3 8/12/3
f 8/13/4 7/14/4 2/15/4 1/16/4
f 5/17/5 3/18/5 2/19/5 7/20/5