mtllib seismic_survey_tool.mtl

o sample_shotgun
v 0 0 1
v 0 0.25 1
v 0 0.25 0
v 0 0 0
v 1 0.25 0
v 1 0 0
v 1 0.25 1
v 1 0 1
v 0.6875 1 0.6875
v 0.6875 2 0.6875
v 0.3125 2 0.6875
v 0.3125 1 0.6875
v 0.3125 2 0.3125
v 0.3125 1 0.3125
v 0.6875 2 0.3125
v 0.6875 1 0.3125
v 0.25 2 0.75
v 0.25 2.25 0.75
v 0.25 2.25 0.25
v 0.25 2 0.25
v 0.75 2.25 0.25
v 0.75 2 0.25
v 0.75 2.25 0.75
v 0.75 2 0.75
v 1 1 0
v 0 1 0
v 0 1 1
v 1 1 1
v 0 0.75 1
v 0 0.75 0
v 1 0.75 0
v 1 0.75 1
v 0.0625 0.75 0.0625
v 0.0625 0.75 0.9375
v 0.9375 0.75 0.9375
v 0.9375 0.75 0.0625
v 0.9375 0.25 0.9375
v 0.0625 0.25 0.9375
v 0.0625 0.25 0.0625
v 0.9375 0.25 0.0625
v 1 3 0
v 1 3 1
v 0 3 1
v 0 3 0
v 0 0 1
v 0 0 0
v 1 0 0
v 1 0 1
v 0 3 0
v 1 3 0
v 1 3 1
v 0 3 1
v 1 3 1
v 1 1 1
v 0 3 1
v 0 1 1
v 1 1 0
v 1 3 0
v 0 3 0
v 0 1 0
v 1 1 0
v 1 3 0
v 0 3 0
v 0 1 0
v 0 1 1
v 0 3 1
v 1 3 1
v 1 1 1
v 0 3 1
v 0 1 1
v 0 3 0
v 0 1 0
v 1 1 1
v 1 3 1
v 1 3 0
v 1 1 0
v 1 1 0
v 1 3 0
v 1 3 1
v 1 1 1
v 0 1 0
v 0 3 0
v 0 3 1
v 0 1 1
vt 0.5 0.1875
vt 0.5 0.25
vt 0.25 0.25
vt 0.25 0.1875
vt 0.5 0.1875
vt 0.5 0.25
vt 0.25 0.25
vt 0.25 0.1875
vt 0.5 0.1875
vt 0.5 0.25
vt 0.25 0.25
vt 0.25 0.1875
vt 0.5 0.1875
vt 0.5 0.25
vt 0.25 0.25
vt 0.25 0.1875
vt 0.25 0.25
vt 0.5 0.25
vt 0.5 0.5
vt 0.25 0.5
vt 0.78125 0.75
vt 0.78125 1
vt 0.6875 1
vt 0.6875 0.75
vt 0.78125 0.75
vt 0.78125 1
vt 0.6875 1
vt 0.6875 0.75
vt 0.6875 0.75
vt 0.6875 1
vt 0.78125 1
vt 0.78125 0.75
vt 0.78125 0.75
vt 0.78125 1
vt 0.6875 1
vt 0.6875 0.75
vt 0.71875 0.40625
vt 0.8125 0.40625
vt 0.8125 0.5
vt 0.71875 0.5
vt 0.6875 0.8125
vt 0.6875 0.875
vt 0.5625 0.875
vt 0.5625 0.8125
vt 0.5625 0.8125
vt 0.5625 0.875
vt 0.6875 0.875
vt 0.6875 0.8125
vt 0.6875 0.8125
vt 0.6875 0.875
vt 0.5625 0.875
vt 0.5625 0.8125
vt 0.5625 0.8125
vt 0.5625 0.875
vt 0.6875 0.875
vt 0.6875 0.8125
vt 0.5625 0.875
vt 0.6875 0.875
vt 0.6875 1
vt 0.5625 1
vt 0.5625 0.875
vt 0.6875 0.875
vt 0.6875 1
vt 0.5625 1
vt 0.5 0.1875
vt 0.5 0.25
vt 0.25 0.25
vt 0.25 0.1875
vt 0.5 0.1875
vt 0.5 0.25
vt 0.25 0.25
vt 0.25 0.1875
vt 0.5 0.1875
vt 0.5 0.25
vt 0.25 0.25
vt 0.25 0.1875
vt 0.5 0.1875
vt 0.5 0.25
vt 0.25 0.25
vt 0.25 0.1875
vt 0.25 0.25
vt 0.5 0.25
vt 0.5 0.5
vt 0.25 0.5
vt 0 0
vt 0.25 0
vt 0.25 0.25
vt 0 0.25
vt 0.46875 0.0625
vt 0.46875 0.1875
vt 0.25 0.1875
vt 0.25 0.0625
vt 0.46875 0.0625
vt 0.46875 0.1875
vt 0.25 0.1875
vt 0.25 0.0625
vt 0.46875 0.0625
vt 0.46875 0.1875
vt 0.25 0.1875
vt 0.25 0.0625
vt 0.46875 0.0625
vt 0.46875 0.1875
vt 0.25 0.1875
vt 0.25 0.0625
vt 0 0.75
vt 0.25 0.75
vt 0.25 1
vt 0 1
vt 0.25 0.25
vt 0.5 0.25
vt 0.5 0.5
vt 0.25 0.5
vt 0 0.75
vt 0.25 0.75
vt 0.25 1
vt 0 1
vt 0.5 0.5
vt 0.5 1
vt 0.25 1
vt 0.25 0.5
vt 0.25 0.5
vt 0.25 1
vt 0.5 1
vt 0.5 0.5
vt 0.5 0.5
vt 0.5 1
vt 0.25 1
vt 0.25 0.5
vt 0.25 0.5
vt 0.25 1
vt 0.5 1
vt 0.5 0.5
vt 0.25 0.25
vt 0.25 0.75
vt 0 0.75
vt 0 0.25
vt 0 0.25
vt 0 0.75
vt 0.25 0.75
vt 0.25 0.25
vt 0.25 0.25
vt 0.25 0.75
vt 0 0.75
vt 0 0.25
vt 0 0.25
vt 0 0.75
vt 0.25 0.75
vt 0.25 0.25
vn -1 0 0
vn 0 0 -1
vn 1 0 0
vn 0 0 1
vn 0 1 0
vn 0 0 1
vn -1 0 0
vn 0 0 -1
vn 1 0 0
vn 0 1 0
vn -1 0 0
vn 0 0 -1
vn 1 0 0
vn 0 0 1
vn 0 -1 0
vn 0 1 0
vn -1 0 0
vn 0 0 -1
vn 1 0 0
vn 0 0 1
vn 0 -1 0
vn 0 1 0
vn 0 0 1
vn -1 0 0
vn 0 0 -1
vn 1 0 0
vn 0 1 0
vn 0 -1 0
vn 0 -1 0
vn 0 0 1
vn 0 0 1
vn 0 0 -1
vn 0 0 -1
vn -1 0 0
vn -1 0 0
vn 1 0 0
vn 1 0 0
usemtl None
f 1/1/1 2/2/1 3/3/1 4/4/1
f 4/5/2 3/6/2 5/7/2 6/8/2
f 6/9/3 5/10/3 7/11/3 8/12/3
f 8/13/4 7/14/4 2/15/4 1/16/4
f 5/17/5 3/18/5 2/19/5 7/20/5
f 9/21/6 10/22/6 11/23/6 12/24/6
f 12/25/7 11/26/7 13/27/7 14/28/7
f 14/29/8 13/30/8 15/31/8 16/32/8
f 16/33/9 15/34/9 10/35/9 9/36/9
f 13/37/10 11/38/10 10/39/10 15/40/10
f 17/41/11 18/42/11 19/43/11 20/44/11
f 20/45/12 19/46/12 21/47/12 22/48/12
f 22/49/13 21/50/13 23/51/13 24/52/13
f 24/53/14 23/54/14 18/55/14 17/56/14
f 20/57/15 22/58/15 24/59/15 17/60/15
f 21/61/16 19/62/16 18/63/16 23/64/16
f 29/65/17 27/66/17 26/67/17 30/68/17
f 30/69/18 26/70/18 25/71/18 31/72/18
f 31/73/19 25/74/19 28/75/19 32/76/19
f 32/77/20 28/78/20 27/79/20 29/80/20
f 30/81/21 31/82/21 32/83/21 29/84/21
f 25/85/22 26/86/22 27/87/22 28/88/22
f 37/89/23 35/90/23 34/91/23 38/92/23
f 38/93/24 34/94/24 33/95/24 39/96/24
f 39/97/25 33/98/25 36/99/25 40/100/25
f 40/101/26 36/102/26 35/103/26 37/104/26
f 44/105/27 43/106/27 42/107/27 41/108/27
f 46/109/28 47/110/28 48/111/28 45/112/28
f 49/113/29 50/114/29 51/115/29 52/116/29
f 54/117/30 53/118/30 55/119/30 56/120/30
f 57/121/31 58/122/31 59/123/31 60/124/31
f 64/125/32 63/126/32 62/127/32 61/128/32
f 65/129/33 66/130/33 67/131/33 68/132/33
f 70/133/34 69/134/34 71/135/34 72/136/34
f 73/137/35 74/138/35 75/139/35 76/140/35
f 77/141/36 78/142/36 79/143/36 80/144/36
f 81/145/37 82/146/37 83/147/37 84/148/37