mtllib coresample.mtl

o cube
v 0.65625 0.813801 0.912913
v 0.71875 0.769607 0.957107
v 0.71875 0.946383 0.78033
v 0.65625 0.946383 0.78033
v 0.28125 0.769606 0.957107
v 0.34375 0.813801 0.912913
v 0.28125 0.946383 0.78033
v 0.34375 0.946383 0.78033
v 0.65625 0.813801 0.912913
v 0.71875 0.769607 0.957107
v 0.71875 0.946383 0.78033
v 0.65625 0.946383 0.78033
v 0.71875 0.239277 0.073223
v 0.65625 0.239277 0.073223
v 0.28125 0.769606 0.957107
v 0.34375 0.813801 0.912913
v 0.65625 0.106694 0.205806
v 0.71875 0.0625 0.25
v 0.28125 0.946383 0.78033
v 0.34375 0.946383 0.78033
v 0.34375 0.239276 0.073223
v 0.28125 0.239277 0.073223
v 0.28125 0.0625 0.25
v 0.34375 0.106694 0.205806
v 0.34375000000000255 0.10755037500000209 0.20666237499999962
v 0.28125000000000433 0.06335637500000224 0.25085637499999947
v 0.28125000000000444 0.24013337499999798 0.07408037500000086
v 0.34375000000000455 0.24013337499999798 0.07408037500000086
v 0.7187499999999957 0.0633563750000028 0.2508573749999997
v 0.6562499999999981 0.10755037500000086 0.20666237500000006
v 0.7187499999999976 0.24013337499999865 0.07408037500000053
v 0.6562499999999971 0.2401333749999982 0.07408037500000064
v 0.3125000000000001 0.75 0.875
v 0.3125000000000001 0.75 0.125
v 0.3124999999999999 5.551115123125783e-17 0.875
v 0.3124999999999999 5.551115123125783e-17 0.125
v 0.6875000000000001 0.75 0.875
v 0.6875000000000001 0.75 0.125
v 0.6874999999999999 -5.551115123125783e-17 0.875
v 0.6874999999999999 -5.551115123125783e-17 0.125
v 0.31250000000000144 0.7499999999999992 0.1249999999999985
v 0.31250000000000155 0.7500000000000023 0.8749999999999984
v 0.31249999999999845 -7.771561172376096e-16 0.12500000000000155
v 0.31249999999999856 2.3314683517128287e-15 0.8750000000000016
v 0.6875000000000014 0.7499999999999977 0.12499999999999845
v 0.6875000000000016 0.7500000000000008 0.8749999999999984
v 0.6874999999999984 -2.3314683517128287e-15 0.1250000000000015
v 0.6874999999999986 7.771561172376096e-16 0.8750000000000016
vt 0.5625 0.0625
vt 0.625 0
vt 0.625 0.25
vt 0.5625 0.25
vt 0.1875 0
vt 0.625 0
vt 0.5625 0.0625
vt 0.25 0.0625
vt 0.25 0.0625
vt 0.25 0.25
vt 0.1875 0.25
vt 0.1875 0
vt 0.875 1
vt 0.875 0
vt 0.9375 0
vt 0.9375 1
vt 0.1875 0
vt 0.1875 1
vt 0 1
vt 0 0
vt 0.625 1
vt 0.625 0
vt 0.875 0
vt 0.875 1
vt 0.875 1
vt 0.9375 1
vt 0.9375 0
vt 0.875 0
vt 0.1875 1
vt 0.1875 0
vt 0.5 0
vt 0.5 1
vt 0.125 0
vt 0.5625 0
vt 0.5625 1
vt 0.125 1
vt 0.1875 0
vt 0 0
vt 0 1
vt 0.1875 1
vt 0.625 1
vt 0.875 1
vt 0.875 0
vt 0.625 0
vt 0.5625 0.0625
vt 0.625 0
vt 0.625 0.25
vt 0.5625 0.25
vt 0.1875 0
vt 0.625 0
vt 0.5625 0.0625
vt 0.25 0.0625
vt 0.25 0.0625
vt 0.25 0.25
vt 0.1875 0.25
vt 0.1875 0
vt 1 0
vt 1 1
vt 0 1
vt 0 0
vt 1 0
vt 1 1
vt 0 1
vt 0 0
vt 1 1
vt 1 0
vt 0 0
vt 0 1
vt 1 1
vt 1 0
vt 0 0
vt 0 1
vn 0.0000028284191238490276 0.7071087811831005 0.7071047811786809
vn -0.0000016162414590748428 0.7071056383249105 0.7071079240444903
vn 0 0.7071094478486178 0.7071041145144206
vn 0 0.7071072811865696 -0.707106281186172
vn -1 0 0
vn 1 0 0
vn 0 0.7071067811865476 -0.7071067811865476
vn 0 0.7071067811865475 -0.7071067811865477
vn 0 -0.7071067811865476 0.7071067811865476
vn 1 0 0
vn -1 0 0
vn -0.000002828419116632697 -0.7071047811786869 -0.7071087811830945
vn 0.0000016162414603309456 -0.7071079240444922 -0.7071056383249087
vn 3.848773775336872e-15 -0.7071041145144262 -0.7071094478486122
vn -1 2.9605947323337506e-16 0
vn -1 2.9605947323337506e-16 0
vn 1 -3.996802888650564e-15 -1.4802973661667096e-16
vn 1 -3.996802888650564e-15 -1.4802973661667096e-16
usemtl m_4287a18c-012d-dff8-fe83-8dca66eb51a2
f 1/1/1 2/2/1 3/3/1 4/4/1
f 5/5/2 2/6/2 1/7/2 6/8/2
f 6/9/3 8/10/3 7/11/3 5/12/3
f 11/13/4 13/14/4 14/15/4 12/16/4
f 17/17/5 9/18/5 12/19/5 14/20/5
f 10/21/6 18/22/6 13/23/6 11/24/6
f 19/25/7 20/26/7 21/27/7 22/28/7
f 24/29/8 16/30/8 9/31/8 17/32/8
f 23/33/9 18/34/9 10/35/9 15/36/9
f 24/37/10 21/38/10 20/39/10 16/40/10
f 15/41/11 19/42/11 22/43/11 23/44/11
f 25/45/12 26/46/12 27/47/12 28/48/12
f 29/49/13 26/50/13 25/51/13 30/52/13
f 30/53/14 32/54/14 31/55/14 29/56/14
usemtl m_c3e7b4de-bef3-56b5-e98b-2643b7403b81
f 33/57/15 34/58/15 36/59/15 35/60/15
f 37/61/16 38/62/16 40/63/16 39/64/16
f 41/65/17 42/66/17 44/67/17 43/68/17
f 45/69/18 46/70/18 48/71/18 47/72/18