mtllib circuit_table.mtl

o desk
v 0.062501 0.8125 0.0625
v 0.062501 0.000001 0.0625
v 0.062501 0.000001 0.9375
v 0.062501 0.8125 0.9375
v 0.562501 0.8125 0.0625
v 0.562501 0.000001 0.0625
v 0.562501 0.8125 0.9375
v 0.562501 0.000001 0.9375
v 0.000001 1 1
v 0.000001 1 0
v 0.000001 0.8125 0
v 0.000001 0.8125 1
v 2 1 0
v 2 0.8125 0
v 2 0.8125 1
v 2 1 1
v 1.875 1.3125 0.5
v 1.875 1.3125 0.125
v 1.5 1.3125 0.125
v 1.5 1.3125 0.5
v 1.875 1.125 0.5
v 1.5 1.125 0.5
v 1.5 1 0.5
v 1.875 1 0.5
v 1.875 1 0.125
v 1.875 1.125 0.125
v 1.71875 1.265678 0.567094
v 1.71875 1.127003 0.359081
v 1.71875 1.075 0.39375
v 1.71875 1.213675 0.601763
v 1.5 1.125 0.125
v 1.5 1 0.125
v 1.78125 1.265678 0.567094
v 1.78125 1.213675 0.601763
v 1.78125 1.075 0.39375
v 1.78125 1.127003 0.359081
v 1.75 0.8125 0
v 1.75 0.8125 0.875
v 1.75 0.000001 0.875
v 1.75 0.000001 0
v 1.25 0.8125 0
v 1.25 0.000001 0
v 1.25 0.000001 0.875
v 1.25 0.8125 0.875
v 1.75 0.8125 0.9375
v 1.75 0.8125 0.75
v 1.75 0.000001 0.75
v 1.75 0.000001 0.9375
v 1.9375 0.8125 0.75
v 1.9375 0.000001 0.75
v 1.9375 0.8125 0.9375
v 1.9375 0.000001 0.9375
v 1.75 0.8125 0.0625
v 1.9375 0.8125 0.0625
v 1.9375 0.000001 0.0625
v 1.75 0.000001 0.0625
v 1.9375 0.8125 0.25
v 1.9375 0.000001 0.25
v 1.75 0.8125 0.25
v 1.75 0.000001 0.25
v 0.250001 0.6875 1
v 0.250001 0.6875 0.9375
v 0.250001 0.5625 0.9375
v 0.250001 0.5625 1
v 0.375001 0.6875 0.9375
v 0.375001 0.6875 1
v 0.375001 0.5625 1
v 0.375001 0.5625 0.9375
v 0.250001 0.3125 1
v 0.250001 0.3125 0.9375
v 0.250001 0.1875 0.9375
v 0.250001 0.1875 1
v 0.375001 0.3125 0.9375
v 0.375001 0.3125 1
v 0.375001 0.1875 1
v 0.375001 0.1875 0.9375
v 1.71875 1.335015 0.671101
v 1.71875 1.265678 0.567094
v 1.71875 1.213675 0.6017629999999999
v 1.71875 1.2830120000000003 0.705769
v 1.78125 1.335015 0.671101
v 1.78125 1.2830120000000003 0.705769
v 1.78125 1.213675 0.6017629999999999
v 1.78125 1.265678 0.567094
vt 0.166667 0.3125
vt 0.166667 0.04166700000000001
vt 0.458333 0.04166700000000001
vt 0.458333 0.3125
vt 0.625 0.3125
vt 0.625 0.04166700000000001
vt 0.458333 0.04166700000000001
vt 0.458333 0.3125
vt 0.458333 0.3125
vt 0.166667 0.3125
vt 0.166667 0.04166700000000001
vt 0.458333 0.04166700000000001
vt 0.166667 0.3125
vt 0 0.3125
vt 0 0.04166700000000001
vt 0.166667 0.04166700000000001
vt 0.958333 0.291667
vt 0.958333 0.583333
vt 0.791667 0.583333
vt 0.791667 0.291667
vt 0 0.604167
vt 0.333333 0.604167
vt 0.333333 0.666667
vt 0 0.666667
vt 0 0.604167
vt 0.666667 0.604167
vt 0.666667 0.666667
vt 0 0.666667
vt 0 1
vt 0 0.74947925
vt 0.5002605 0.74947925
vt 0.5002605 1
vt 0.333333 0.666667
vt 0 0.666667
vt 0 0.604167
vt 0.333333 0.604167
vt 0.666667 0.666667
vt 0 0.666667
vt 0 0.604167
vt 0.666667 0.604167
vt 0.666667 0.666667
vt 0.666667 1
vt 0 1
vt 0 0.666667
vt 0.9791670000000002 0.5833330000000001
vt 0.9791670000000002 0.7083336666666666
vt 0.8541670000000002 0.7083336666666666
vt 0.8541670000000002 0.5833330000000001
vt 0.854167 0.625
vt 0.729167 0.625
vt 0.729167 0.583333
vt 0.854167 0.583333
vt 0.854167 0.7916666666666666
vt 0.854167 0.7499996666666666
vt 0.729167 0.7499996666666666
vt 0.729167 0.7916666666666666
vt 0.916667 1
vt 0.833333 1
vt 0.833333 0.979167
vt 0.916667 0.979167
vt 0.8541666666666667 0.9375
vt 0.729167 0.9375
vt 0.729167 1
vt 0.854167 1
vt 0.8541666666666666 0.6875
vt 0.7291666666666666 0.6875
vt 0.729167 0.625
vt 0.854167 0.625
vt 0.854167 0.895833
vt 0.729167 0.895833
vt 0.729167 0.791667
vt 0.854167 0.791667
vt 0.8541666666666667 0.9375
vt 0.854167 1
vt 0.729167 1
vt 0.729167 0.9375
vt 0.854167 0.7916666666666666
vt 0.729167 0.7916666666666666
vt 0.729167 0.7499996666666666
vt 0.854167 0.7499996666666666
vt 0.916667 1
vt 0.916667 0.979167
vt 0.833333 0.979167
vt 0.833333 1
vt 0.916667 1
vt 0.833333 1
vt 0.833333 0.979167
vt 0.916667 0.979167
vt 0.916667 1
vt 0.916667 0.979167
vt 0.833333 0.979167
vt 0.833333 1
vt 0.291667 0.583333
vt 0 0.583333
vt 0 0.3125
vt 0.291667 0.3125
vt 0 0.583333
vt 0 0.3125
vt 0.291667 0.3125
vt 0.291667 0.583333
vt 0.458333 0.583333
vt 0.291667 0.583333
vt 0.291667 0.3125
vt 0.458333 0.3125
vt 0.458333 0.583333
vt 0.458333 0.3125
vt 0.625 0.3125
vt 0.625 0.583333
vt 0.791667 0.291667
vt 0.791667 0.583333
vt 0.625 0.583333
vt 0.625 0.291667
vt 0.729167 1
vt 0.666667 1
vt 0.666667 0.729167
vt 0.729167 0.729167
vt 0.729167 1
vt 0.666667 1
vt 0.666667 0.729167
vt 0.729167 0.729167
vt 0.729167 1
vt 0.666667 1
vt 0.666667 0.729167
vt 0.729167 0.729167
vt 0.729167 1
vt 0.666667 1
vt 0.666667 0.729167
vt 0.729167 0.729167
vt 0.729167 0.729167
vt 0.666667 0.729167
vt 0.666667 0.666667
vt 0.729167 0.666667
vt 0.729167 1
vt 0.666667 1
vt 0.666667 0.729167
vt 0.729167 0.729167
vt 0.729167 1
vt 0.666667 1
vt 0.666667 0.729167
vt 0.729167 0.729167
vt 0.729167 1
vt 0.666667 1
vt 0.666667 0.729167
vt 0.729167 0.729167
vt 0.729167 0.729167
vt 0.666667 0.729167
vt 0.666667 0.666667
vt 0.729167 0.666667
vt 0.0625 0.04166700000000001
vt 0.041667 0.04166700000000001
vt 0.041667 0
vt 0.0625 0
vt 0.041667 0.04166700000000001
vt 0.0625 0.04166700000000001
vt 0.0625 0
vt 0.041667 0
vt 0.041667 0.04166700000000001
vt 0 0.04166700000000001
vt 0 0
vt 0.041667 0
vt 0.0625 0.04166700000000001
vt 0.041667 0.04166700000000001
vt 0.041667 0
vt 0.0625 0
vt 0.041667 0
vt 0.0625 0
vt 0.0625 0.04166700000000001
vt 0.041667 0.04166700000000001
vt 0.0625 0.04166700000000001
vt 0.041667 0.04166700000000001
vt 0.041667 0
vt 0.0625 0
vt 0.041667 0.04166700000000001
vt 0.0625 0.04166700000000001
vt 0.0625 0
vt 0.041667 0
vt 0.041667 0.04166700000000001
vt 0 0.04166700000000001
vt 0 0
vt 0.041667 0
vt 0.0625 0.04166700000000001
vt 0.041667 0.04166700000000001
vt 0.041667 0
vt 0.0625 0
vt 0.041667 0
vt 0.0625 0
vt 0.0625 0.04166700000000001
vt 0.041667 0.04166700000000001
vt 0.875 0.895833
vt 0.875 0.9375
vt 0.854167 0.9375
vt 0.854167 0.895833
vt 0.895833 0.895833
vt 0.875 0.895833
vt 0.875 0.9375
vt 0.895833 0.9375
vt 0.895833 0.895833
vt 0.895833 0.9375
vt 0.875 0.9375
vt 0.875 0.895833
vt 0.875 0.895833
vt 0.854167 0.895833
vt 0.854167 0.9375
vt 0.875 0.9375
vt 0.875 0.916667
vt 0.875 0.895833
vt 0.895833 0.895833
vt 0.895833 0.916667
vn -1 0 0
vn 0 0 -1
vn 1 0 0
vn 0 0 1
vn 0 -1 0
vn -1 0 0
vn 0 0 -1
vn 0 -1 0
vn 1 0 0
vn 0 0 1
vn 0 1 0
vn 0 1 0
vn 0 0 1
vn 1 0 0
vn -1 0 0
vn -1 0 0
vn 0 0 1
vn 0 0 -1
vn 1 0 0
vn -1 0 0
vn 1 0 0
vn 0 0.8320509097211406 -0.5546992731491746
vn 0 -0.8320509097211407 0.5546992731491744
vn 1 0 0
vn -1 0 0
vn 0 0 -1
vn 0 0 1
vn 0 -1 0
vn -1 0 0
vn 0 0 -1
vn 1 0 0
vn 0 0 1
vn 0 -1 0
vn 0 0 -1
vn 1 0 0
vn 0 0 1
vn 0 -1 0
vn -1 0 0
vn 1 0 0
vn 0 0 1
vn 0 -1 0
vn 0 1 0
vn -1 0 0
vn 1 0 0
vn 0 0 1
vn 0 -1 0
vn 0 1 0
vn -1 0 0
vn 1 0 0
vn 0 0.8320539866181685 -0.5546946577648039
vn 0 -0.83205152511024 0.554698350062197
vn 0 0.554692811523943 0.8320552174246992
usemtl m_4c90c8a7-e4e9-e44b-31d5-85b346ef4c1b
f 1/1/1 2/2/1 3/3/1 4/4/1
f 5/5/2 6/6/2 2/7/2 1/8/2
f 5/9/3 7/10/3 8/11/3 6/12/3
f 7/13/4 4/14/4 3/15/4 8/16/4
f 6/17/5 8/18/5 3/19/5 2/20/5
f 9/21/6 10/22/6 11/23/6 12/24/6
f 10/25/7 13/26/7 14/27/7 11/28/7
usemtl m_3c3269eb-81e8-09a0-9eae-4005aa410a7e
f 12/29/8 11/30/8 14/31/8 15/32/8
usemtl m_4c90c8a7-e4e9-e44b-31d5-85b346ef4c1b
f 13/33/9 16/34/9 15/35/9 14/36/9
f 16/37/10 9/38/10 12/39/10 15/40/10
f 16/41/11 13/42/11 10/43/11 9/44/11
f 17/45/12 18/46/12 19/47/12 20/48/12
f 21/49/13 22/50/13 23/51/13 24/52/13
f 21/53/14 24/54/14 25/55/14 26/56/14
f 27/57/15 28/58/15 29/59/15 30/60/15
f 20/61/16 19/62/16 31/63/16 22/64/16
f 17/65/17 20/66/17 22/67/17 21/68/17
f 19/69/18 18/70/18 25/71/18 32/72/18
f 17/73/19 21/74/19 26/75/19 18/76/19
f 22/77/20 31/78/20 32/79/20 23/80/20
f 33/81/21 34/82/21 35/83/21 36/84/21
f 33/85/22 36/86/22 28/87/22 27/88/22
f 34/89/23 30/90/23 29/91/23 35/92/23
f 37/93/24 38/94/24 39/95/24 40/96/24
f 41/97/25 42/98/25 43/99/25 44/100/25
f 41/101/26 37/102/26 40/103/26 42/104/26
f 44/105/27 43/106/27 39/107/27 38/108/27
f 40/109/28 39/110/28 43/111/28 42/112/28
f 45/113/29 46/114/29 47/115/29 48/116/29
f 46/117/30 49/118/30 50/119/30 47/120/30
f 49/121/31 51/122/31 52/123/31 50/124/31
f 51/125/32 45/126/32 48/127/32 52/128/32
f 48/129/33 47/130/33 50/131/33 52/132/33
f 53/133/34 54/134/34 55/135/34 56/136/34
f 54/137/35 57/138/35 58/139/35 55/140/35
f 57/141/36 59/142/36 60/143/36 58/144/36
f 60/145/37 56/146/37 55/147/37 58/148/37
f 61/149/38 62/150/38 63/151/38 64/152/38
f 65/153/39 66/154/39 67/155/39 68/156/39
f 66/157/40 61/158/40 64/159/40 67/160/40
f 64/161/41 63/162/41 68/163/41 67/164/41
f 66/165/42 65/166/42 62/167/42 61/168/42
f 69/169/43 70/170/43 71/171/43 72/172/43
f 73/173/44 74/174/44 75/175/44 76/176/44
f 74/177/45 69/178/45 72/179/45 75/180/45
f 72/181/46 71/182/46 76/183/46 75/184/46
f 74/185/47 73/186/47 70/187/47 69/188/47
f 77/189/48 78/190/48 79/191/48 80/192/48
f 81/193/49 82/194/49 83/195/49 84/196/49
f 81/197/50 84/198/50 78/199/50 77/200/50
f 82/201/51 80/202/51 79/203/51 83/204/51
f 77/205/52 80/206/52 82/207/52 81/208/52