mtllib toolbox.mtl

o cube
v 0.2506725596526514 -0.2499999999999999 -0.3743274403473432
v 0.2506725596526513 -0.2499999999999999 0.37567255965265367
v 0.2506725596526513 -0.7499999999999992 0.37567255965265367
v 0.2506725596526514 -0.7499999999999992 -0.3743274403473432
v -0.24932744034734589 -0.2499999999999999 -0.3743274403473431
v -0.24932744034734589 -0.1250000000000009 -0.3743274403473431
v 0.2506725596526514 -0.1250000000000009 -0.3743274403473432
v 0.0006725596526525601 -0.12499999999999878 0.18817255965265367
v 0.0006725596526525601 -0.12499999999999878 0.12567255965265556
v 0.0006725596526536703 -8.881784197001252e-16 0.1256725596526555
v 0.0006725596526536703 -8.881784197001252e-16 0.18817255965265345
v 0.0006725596526524491 0.062499999999996336 0.18817255965265356
v 0.0006725596526524491 0.062499999999996336 -0.18682744034733834
v 0.0006725596526537814 -9.992007221626409e-16 -0.18682744034733834
v 0.2506725596526514 -0.7499999999999992 -0.3743274403473432
v -0.24932744034734589 -0.7499999999999992 -0.3743274403473431
v 0.2506725596526513 -0.7499999999999992 0.37567255965265367
v 0.0006725596526536703 -8.881784197001252e-16 -0.12432744034733989
v 0.0006725596526525601 -0.12499999999999878 -0.12432744034734011
v 0.0006725596526525601 -0.12499999999999878 -0.18682744034733811
v -0.24932744034734633 -0.7499999999999992 0.37567255965265334
v -0.24932744034734633 -0.2499999999999999 0.37567255965265334
v -0.24932744034734633 -0.1250000000000009 0.37567255965265334
v 0.2506725596526513 -0.1250000000000009 0.37567255965265367
vt 0.375 0.9375
vt 0 0.9375
vt 0 0.6875
vt 0.375 0.6875
vt 0.375 0.625
vt 0.625 0.625
vt 0.625 0.6875
vt 0.375 0.6875
vt 0.375 0.28125
vt 0.40625 0.28125
vt 0.40625 0.34375
vt 0.375 0.34375
vt 0.375 0.375
vt 0.375 0.34375
vt 0.5625 0.34375
vt 0.5625 0.375
vt 0.625 0.625
vt 0.375 0.625
vt 0.375 0.375
vt 0.625 0.375
vt 0.53125 0.28125
vt 0.5625 0.28125
vt 0.5625 0.34375
vt 0.53125 0.34375
vt 0.375 0.28125
vt 0.375 0.34375
vt 0.40625 0.34375
vt 0.40625 0.28125
vt 0.53125 0.28125
vt 0.53125 0.34375
vt 0.5625 0.34375
vt 0.5625 0.28125
vt 0.375 0.375
vt 0.5625 0.375
vt 0.5625 0.34375
vt 0.375 0.34375
vt 0 0.625
vt 0 0.375
vt 0.375 0.375
vt 0.375 0.625
vt 0 0.125
vt 0.375 0.125
vt 0.375 0.375
vt 0 0.375
vt 0 0.6875
vt 0 0.625
vt 0.375 0.625
vt 0.375 0.6875
vt 0.375 0.75
vt 0.75 0.75
vt 0.75 1
vt 0.375 1
vt 0 0.9375
vt 0.375 0.9375
vt 0.375 1
vt 0 1
vt 0.375 0.625
vt 0.375 0.6875
vt 0.625 0.6875
vt 0.625 0.625
vt 0.625 0.625
vt 0.625 0.375
vt 0.375 0.375
vt 0.375 0.625
vn 1 0 1.4802973661668723e-16
vn -2.2204460492503377e-16 0 -1
vn 1 -8.881784197001402e-15 2.220446049250313e-16
vn 1 1.9539925233403623e-14 5.181040781584071e-16
vn -2.2204460492503377e-16 0 -1
vn 1 -9.769962616701551e-15 2.220446049250313e-16
vn -1 8.881784197001402e-15 -2.220446049250313e-16
vn -1 8.881784197001405e-15 -1.9984014443253433e-15
vn -1 -2.131628207280391e-14 -2.220446049250313e-16
vn -1 0 -5.181040781584078e-16
vn 0 -1 0
vn -1 0 -5.181040781584078e-16
vn 0 1 0
vn 1 0 1.4802973661668723e-16
vn -7.771561172376123e-16 0 1
vn -7.771561172376122e-16 0 1
usemtl m_bc32eebb-494f-a3bb-f5ea-c0470090f9e8
f 1/1/1 2/2/1 3/3/1 4/4/1
f 1/5/2 5/6/2 6/7/2 7/8/2
f 8/9/3 9/10/3 10/11/3 11/12/3
f 12/13/4 11/14/4 14/15/4 13/16/4
f 5/17/5 1/18/5 15/19/5 16/20/5
f 19/21/6 20/22/6 14/23/6 18/24/6
f 8/25/7 11/26/7 10/27/7 9/28/7
f 19/29/8 18/30/8 14/31/8 20/32/8
f 12/33/9 13/34/9 14/35/9 11/36/9
f 5/37/10 16/38/10 21/39/10 22/40/10
f 21/41/11 16/42/11 15/43/11 17/44/11
f 6/45/12 5/46/12 22/47/12 23/48/12
f 24/49/13 7/50/13 6/51/13 23/52/13
f 2/53/14 1/54/14 7/55/14 24/56/14
f 2/57/15 24/58/15 23/59/15 22/60/15
f 22/61/16 21/62/16 17/63/16 2/64/16