mtllib charging_station.mtl

o base
v 0.875 0.125 0.8125
v 0.875 0.125 0.125
v 0.8125 0.125 0.125
v 0.8125 0.125 0.8125
v 0.8125 0.1875 0.1875
v 0.1875 0.1875 0.1875
v 0.25 0.1875 0.25
v 0.75 0.1875 0.25
v 0.5625 1 0.9375
v 0.4375 1 0.9375
v 0.4375 0.75 0.9375
v 0.5625 0.75 0.9375
v 0.5625 0.75 0.875
v 0.5625 1 0.875
v 0.4375 1 0.875
v 0.4375 1 0.4375
v 0.4375 0.9375 0.4375
v 0.4375 0.9375 0.875
v 0.5625 1 0.4375
v 0.5625 0.9375 0.4375
v 0.5625 0.9375 0.875
v 0.4375 0.75 0.875
v 0.75 0.25 1
v 0.75 0.25 0.875
v 0.75 0.75 0.875
v 0.75 0.75 1
v 0.25 0.75 0.875
v 0.25 0.75 1
v 0.375 0.25 0.875
v 0.375 0.25 1
v 0.375 0.125 1
v 0.375 0.125 0.875
v 0.25 0.25 1
v 0.25 0.25 0.875
v 0.25 0.125 0.875
v 0.25 0.125 1
v 0.625 0.25 1
v 0.625 0.25 0.875
v 0.625 0.125 0.875
v 0.625 0.125 1
v 0.75 0.125 1
v 0.75 0.125 0.875
v 0.8125 0.125 0.1875
v 0.8125 0.1875 0.8125
v 0.125 0.125 0.8125
v 0.1875 0.125 0.8125
v 0.1875 0.125 0.125
v 0.125 0.125 0.125
v 0.1875 0.125 0.1875
v 0.1875 0.1875 0.8125
v 0.25 0.25 0.25
v 0.75 0.25 0.25
v 0.75 0.25 0.75
v 0.25 0.25 0.75
v 0.25 0.1875 0.75
v 0.75 0.1875 0.75
v 0.875 0 1
v 0.875 0 0.125
v 0.875 0.125 1
v 0.125 0.125 1
v 0.125 0 0.125
v 0.125 0 1
v 0.75 0.6875 0.25
v 0.75 0.6875 0.75
v 0.25 0.6875 0.75
v 0.25 0.6875 0.25
v 0.75 0.8125 0.75
v 0.25 0.8125 0.75
v 0.25 0.8125 0.25
v 0.75 0.8125 0.25
v 0.8125 0.9375 0.8125
v 0.8125 0.9375 0.1875
v 0.1875 0.9375 0.1875
v 0.1875 0.9375 0.8125
v 0.1875 0.8125 0.8125
v 0.8125 0.8125 0.8125
v 0.1875 0.8125 0.1875
v 0.8125 0.8125 0.1875
v 0.46875 0.125098 0.093873
v 0.46875 0.312598 0.093873
v 0.46875 0.3125 0.031373
v 0.46875 0.125 0.031373
v 0.53125 0.312598 0.093873
v 0.53125 0.125098 0.093873
v 0.53125 0.125 0.031373
v 0.53125 0.3125 0.031373
v 0.875 0.125 0.125
v 0.125 0.125 0.125
v 0.875 0.125 0
v 0.125 0.125 0
v 0.65625 0.125098 0.093873
v 0.65625 0.312598 0.093873
v 0.65625 0.3125 0.031373
v 0.65625 0.125 0.031373
v 0.71875 0.312598 0.093873
v 0.71875 0.125098 0.093873
v 0.71875 0.125 0.031373
v 0.71875 0.3125 0.031373
v 0.28125 0.125098 0.093873
v 0.28125 0.312598 0.093873
v 0.28125 0.3125 0.031373
v 0.28125 0.125 0.031373
v 0.34375 0.312598 0.093873
v 0.34375 0.125098 0.093873
v 0.34375 0.125 0.031373
v 0.34375 0.3125 0.031373
v 0.875 0 0
v 0.125 0 0
vt 0.09375 0.09375
vt 0.4375 0.09375
vt 0.4375 0.0625
vt 0.09375 0.0625
vt 0.375 0.65625
vt 0.6875 0.65625
vt 0.65625 0.6875
vt 0.40625 0.6875
vt 0.6875 0.9375
vt 0.6875 1
vt 0.46875 1
vt 0.46875 0.9375
vt 0.46875 0.9375
vt 0.46875 0.90625
vt 0.6875 0.90625
vt 0.6875 0.9375
vt 0.46875 0.90625
vt 0.6875 0.90625
vt 0.6875 0.9375
vt 0.46875 0.9375
vt 0.6875 1
vt 0.6875 0.9375
vt 0.71875 0.9375
vt 0.71875 1
vt 0.6875 0.9375
vt 0.46875 0.9375
vt 0.46875 0.90625
vt 0.6875 0.90625
vt 0.46875 0.9375
vt 0.6875 0.9375
vt 0.6875 1
vt 0.46875 1
vt 0.6875 1
vt 0.46875 1
vt 0.46875 0.9375
vt 0.6875 0.9375
vt 0.46875 0.9375
vt 0.46875 0.90625
vt 0.6875 0.90625
vt 0.6875 0.9375
vt 0.6875 0.9375
vt 0.71875 0.9375
vt 0.71875 1
vt 0.6875 1
vt 0.6875 0.9375
vt 0.6875 1
vt 0.46875 1
vt 0.46875 0.9375
vt 0.625 0.625
vt 0.6875 0.625
vt 0.6875 0.375
vt 0.625 0.375
vt 0.625 0.625
vt 0.6875 0.625
vt 0.6875 0.375
vt 0.625 0.375
vt 0.6875 0.375
vt 0.625 0.375
vt 0.625 0.3125
vt 0.6875 0.3125
vt 0.6875 0.375
vt 0.625 0.375
vt 0.625 0.3125
vt 0.6875 0.3125
vt 0.6875 0.375
vt 0.6875 0.3125
vt 0.625 0.3125
vt 0.625 0.375
vt 0.6875 0.375
vt 0.625 0.375
vt 0.625 0.3125
vt 0.6875 0.3125
vt 0.6875 0.375
vt 0.625 0.375
vt 0.625 0.3125
vt 0.6875 0.3125
vt 0.625 0.125
vt 0.625 0.375
vt 0.375 0.375
vt 0.375 0.125
vt 0.375 0.375
vt 0.625 0.375
vt 0.625 0.625
vt 0.375 0.625
vt 0.625 0.625
vt 0.6875 0.625
vt 0.6875 0.375
vt 0.625 0.375
vt 0.625 0.625
vt 0.6875 0.625
vt 0.6875 0.375
vt 0.625 0.375
vt 0.6875 0.375
vt 0.625 0.375
vt 0.625 0.3125
vt 0.6875 0.3125
vt 0.6875 0.375
vt 0.6875 0.3125
vt 0.625 0.3125
vt 0.625 0.375
vt 0.6875 0.375
vt 0.625 0.375
vt 0.625 0.3125
vt 0.6875 0.3125
vt 0.6875 0.65625
vt 0.375 0.65625
vt 0.375 0.625
vt 0.6875 0.625
vt 0.09375 0.09375
vt 0.09375 0.0625
vt 0.4375 0.0625
vt 0.4375 0.09375
vt 0.6875 0.65625
vt 0.375 0.65625
vt 0.375 0.625
vt 0.6875 0.625
vt 0.6875 0.65625
vt 0.375 0.65625
vt 0.375 0.625
vt 0.6875 0.625
vt 0.6875 0.65625
vt 0.375 0.65625
vt 0.375 0.625
vt 0.6875 0.625
vt 0.09375 0.09375
vt 0.40625 0.09375
vt 0.40625 0.125
vt 0.09375 0.125
vt 0.3125 0.96875
vt 0.0625 0.96875
vt 0.0625 0.9375
vt 0.3125 0.9375
vt 0.3125 0.6875
vt 0.3125 0.9375
vt 0.0625 0.9375
vt 0.0625 0.6875
vt 0.03125 0.9375
vt 0.03125 0.6875
vt 0.0625 0.6875
vt 0.0625 0.9375
vt 0.34375 0.6875
vt 0.34375 0.9375
vt 0.3125 0.9375
vt 0.3125 0.6875
vt 0.0625 0.65625
vt 0.3125 0.65625
vt 0.3125 0.6875
vt 0.0625 0.6875
vt 0 0
vt 0.4375 0
vt 0.4375 0.0625
vt 0 0.0625
vt 0.0625 0.03125
vt 0.4375 0.03125
vt 0.4375 0.125
vt 0.0625 0.125
vt 0.4375 0
vt 0 0
vt 0 0.0625
vt 0.4375 0.0625
vt 0.375 0.65625
vt 0.6875 0.65625
vt 0.65625 0.6875
vt 0.40625 0.6875
vt 0.6875 0.65625
vt 0.65625 0.6875
vt 0.40625 0.6875
vt 0.375 0.65625
vt 0.375 0.65625
vt 0.6875 0.65625
vt 0.65625 0.6875
vt 0.40625 0.6875
vt 0.3125 0.6875
vt 0.3125 0.9375
vt 0.0625 0.9375
vt 0.0625 0.6875
vt 0.3125 0.9375
vt 0.0625 0.9375
vt 0.0625 1
vt 0.3125 1
vt 0.375 0.9375
vt 0.375 0.6875
vt 0.3125 0.6875
vt 0.3125 0.9375
vt 0.0625 0.9375
vt 0.0625 0.6875
vt 0 0.6875
vt 0 0.9375
vt 0.0625 0.9375
vt 0.3125 0.9375
vt 0.3125 1
vt 0.0625 1
vt 1 0.625
vt 0.6875 0.625
vt 0.6875 0.3125
vt 1 0.3125
vt 0.6875 0.6875
vt 0.375 0.6875
vt 0.375 0.625
vt 0.6875 0.625
vt 0.6875 0.6875
vt 0.375 0.6875
vt 0.375 0.625
vt 0.6875 0.625
vt 0.6875 0.6875
vt 0.375 0.6875
vt 0.375 0.625
vt 0.6875 0.625
vt 0.6875 0.6875
vt 0.375 0.6875
vt 0.375 0.625
vt 0.6875 0.625
vt 0.375 0.65625
vt 0.40625 0.6875
vt 0.65625 0.6875
vt 0.6875 0.65625
vt 0.375 0.65625
vt 0.40625 0.6875
vt 0.65625 0.6875
vt 0.6875 0.65625
vt 0.6875 0.65625
vt 0.375 0.65625
vt 0.40625 0.6875
vt 0.65625 0.6875
vt 0.375 0.65625
vt 0.40625 0.6875
vt 0.65625 0.6875
vt 0.6875 0.65625
vt 0.8125 0.84375
vt 0.8125 0.9375
vt 0.78125 0.9375
vt 0.78125 0.84375
vt 0.8125 0.84375
vt 0.8125 0.9375
vt 0.78125 0.9375
vt 0.78125 0.84375
vt 0.8125 0.84375
vt 0.8125 0.9375
vt 0.78125 0.9375
vt 0.78125 0.84375
vt 0.8125 0.84375
vt 0.8125 0.9375
vt 0.78125 0.9375
vt 0.78125 0.84375
vt 0.78125 0.90625
vt 0.8125 0.90625
vt 0.8125 0.9375
vt 0.78125 0.9375
vt 0.0625 0.09375
vt 0.4375 0.09375
vt 0.4375 0.125
vt 0.0625 0.125
vt 0.4375 0.09375
vt 0.0625 0.09375
vt 0.0625 0.03125
vt 0.4375 0.03125
vt 0.8125 0.84375
vt 0.8125 0.9375
vt 0.78125 0.9375
vt 0.78125 0.84375
vt 0.8125 0.84375
vt 0.8125 0.9375
vt 0.78125 0.9375
vt 0.78125 0.84375
vt 0.8125 0.84375
vt 0.8125 0.9375
vt 0.78125 0.9375
vt 0.78125 0.84375
vt 0.8125 0.84375
vt 0.8125 0.9375
vt 0.78125 0.9375
vt 0.78125 0.84375
vt 0.78125 0.90625
vt 0.8125 0.90625
vt 0.8125 0.9375
vt 0.78125 0.9375
vt 0.8125 0.84375
vt 0.8125 0.9375
vt 0.78125 0.9375
vt 0.78125 0.84375
vt 0.8125 0.84375
vt 0.8125 0.9375
vt 0.78125 0.9375
vt 0.78125 0.84375
vt 0.8125 0.84375
vt 0.8125 0.9375
vt 0.78125 0.9375
vt 0.78125 0.84375
vt 0.8125 0.84375
vt 0.8125 0.9375
vt 0.78125 0.9375
vt 0.78125 0.84375
vt 0.78125 0.90625
vt 0.8125 0.90625
vt 0.8125 0.9375
vt 0.78125 0.9375
vt 0.0625 0
vt 0.0625 0.0625
vt 0.4375 0.0625
vt 0.4375 0
vt 0.4375 0.0625
vt 0.0625 0.0625
vt 0.0625 0
vt 0.4375 0
vt 0.0625 0.0625
vt 0.0625 0
vt 0 0
vt 0 0.0625
vt 0.46875 0.0625
vt 0.40625 0.0625
vt 0.40625 0
vt 0.46875 0
vt 0 0.125
vt 0.375 0.125
vt 0.375 0.625
vt 0 0.625
vn 0 1 0
vn 0 1 0
vn 0 0 1
vn 1 0 0
vn -1 0 0
vn 0 0 -1
vn 1 0 0
vn 0 0 -1
vn 0 1 0
vn -1 0 0
vn 0 1 0
vn 0 -1 0
vn 1 0 0
vn 0 1 0
vn 1 0 0
vn -1 0 0
vn 0 0 -1
vn 0 0 1
vn -1 0 0
vn 0 0 1
vn 0 0 -1
vn -1 0 0
vn 0 -1 0
vn 1 0 0
vn 0 0 -1
vn 0 0 1
vn 1 0 0
vn 0 1 0
vn -1 0 0
vn 0 0 -1
vn 0 0 1
vn 0 1 0
vn 0 0 -1
vn 0 1 0
vn -1 0 0
vn 1 0 0
vn 0 0 1
vn 1 0 0
vn 0 1 0
vn -1 0 0
vn 0 1 0
vn 0 1 0
vn 0 1 0
vn 0 -1 0
vn 0 0 1
vn -1 0 0
vn 1 0 0
vn 0 0 -1
vn 0 1 0
vn 0 0 1
vn -1 0 0
vn 1 0 0
vn 0 0 -1
vn 0 -1 0
vn 0 -1 0
vn 0 -1 0
vn 0 -1 0
vn -1 0 0
vn 1 0 0
vn 0 0 -1
vn 0 0 1
vn 0 0.9999987706902669 -0.0015679980724421301
vn 0 0 0
vn 0 1 0
vn -1 0 0
vn 1 0 0
vn 0 0 -1
vn 0 0 1
vn 0 0.9999987706902669 -0.0015679980724421301
vn -1 0 0
vn 1 0 0
vn 0 0 -1
vn 0 0 1
vn 0 0.9999987706902669 -0.0015679980724421301
vn 0 0 1
vn 0 0 -1
vn -1 0 0
vn 1 0 0
vn 0 -1 0
usemtl m_ddbb0b17-c8ab-f3af-8738-97afb82c5c36
f 1/1/1 2/2/1 3/3/1 4/4/1
f 5/5/2 6/6/2 7/7/2 8/8/2
f 9/9/3 10/10/3 11/11/3 12/12/3
f 12/13/4 13/14/4 14/15/4 9/16/4
f 15/17/5 16/18/5 17/19/5 18/20/5
f 16/21/6 19/22/6 20/23/6 17/24/6
f 19/25/7 14/26/7 21/27/7 20/28/7
f 14/29/8 13/30/8 22/31/8 15/32/8
f 16/33/9 15/34/9 14/35/9 19/36/9
f 10/37/10 15/38/10 22/39/10 11/40/10
f 9/41/11 14/42/11 15/43/11 10/44/11
f 17/45/12 20/46/12 21/47/12 18/48/12
f 23/49/13 24/50/13 25/51/13 26/52/13
f 26/53/14 25/54/14 27/55/14 28/56/14
f 29/57/15 30/58/15 31/59/15 32/60/15
f 33/61/16 34/62/16 35/63/16 36/64/16
f 29/65/17 32/66/17 35/67/17 34/68/17
f 30/69/18 33/70/18 36/71/18 31/72/18
f 37/73/19 38/74/19 39/75/19 40/76/19
f 23/77/20 26/78/20 28/79/20 33/80/20
f 24/81/21 34/82/21 27/83/21 25/84/21
f 28/85/22 27/86/22 34/87/22 33/88/22
f 33/89/23 34/90/23 24/91/23 23/92/23
f 24/93/24 23/94/24 41/95/24 42/96/24
f 24/97/25 42/98/25 39/99/25 38/100/25
f 23/101/26 37/102/26 40/103/26 41/104/26
f 4/105/27 43/106/27 5/107/27 44/108/27
f 45/109/28 46/110/28 47/111/28 48/112/28
f 49/113/29 46/114/29 50/115/29 6/116/29
f 43/117/30 49/118/30 6/119/30 5/120/30
f 46/121/31 4/122/31 44/123/31 50/124/31
f 3/125/32 47/126/32 49/127/32 43/128/32
f 8/129/33 7/130/33 51/131/33 52/132/33
f 53/133/34 52/134/34 51/135/34 54/136/34
f 7/137/35 55/138/35 54/139/35 51/140/35
f 56/141/36 8/142/36 52/143/36 53/144/36
f 55/145/37 56/146/37 53/147/37 54/148/37
f 57/149/38 58/150/38 2/151/38 59/152/38
f 1/153/39 45/154/39 60/155/39 59/156/39
f 61/157/40 62/158/40 60/159/40 48/160/40
f 50/161/41 44/162/41 56/163/41 55/164/41
f 50/165/42 55/166/42 7/167/42 6/168/42
f 44/169/43 5/170/43 8/171/43 56/172/43
f 63/173/44 64/174/44 65/175/44 66/176/44
f 67/177/45 68/178/45 65/179/45 64/180/45
f 68/181/46 69/182/46 66/183/46 65/184/46
f 70/185/47 67/186/47 64/187/47 63/188/47
f 69/189/48 70/190/48 63/191/48 66/192/48
f 71/193/49 72/194/49 73/195/49 74/196/49
f 71/197/50 74/198/50 75/199/50 76/200/50
f 74/201/51 73/202/51 77/203/51 75/204/51
f 72/205/52 71/206/52 76/207/52 78/208/52
f 73/209/53 72/210/53 78/211/53 77/212/53
f 78/213/54 70/214/54 69/215/54 77/216/54
f 75/217/55 68/218/55 67/219/55 76/220/55
f 75/221/56 77/222/56 69/223/56 68/224/56
f 76/225/57 67/226/57 70/227/57 78/228/57
f 79/229/58 80/230/58 81/231/58 82/232/58
f 83/233/59 84/234/59 85/235/59 86/236/59
f 82/237/60 81/238/60 86/239/60 85/240/60
f 84/241/61 83/242/61 80/243/61 79/244/61
f 86/245/62 81/246/62 80/247/62 83/248/62
f 48/249/63 2/250/63 87/251/63 88/252/63
f 88/253/64 87/254/64 89/255/64 90/256/64
f 91/257/65 92/258/65 93/259/65 94/260/65
f 95/261/66 96/262/66 97/263/66 98/264/66
f 94/265/67 93/266/67 98/267/67 97/268/67
f 96/269/68 95/270/68 92/271/68 91/272/68
f 98/273/69 93/274/69 92/275/69 95/276/69
f 99/277/70 100/278/70 101/279/70 102/280/70
f 103/281/71 104/282/71 105/283/71 106/284/71
f 102/285/72 101/286/72 106/287/72 105/288/72
f 104/289/73 103/290/73 100/291/73 99/292/73
f 106/293/74 101/294/74 100/295/74 103/296/74
f 57/297/75 59/298/75 60/299/75 62/300/75
f 90/301/76 89/302/76 107/303/76 108/304/76
f 90/305/77 108/306/77 61/307/77 88/308/77
f 89/309/78 87/310/78 58/311/78 107/312/78
f 108/313/79 107/314/79 57/315/79 62/316/79