mtllib assembler.mtl

o base
v -1.0000000000000002 0 -0.9999999999999998
v -0.9999999999999998 0 2
v -1.0000000000000002 -1 -0.9999999999999998
v -0.9999999999999998 -1 2
v 2 0 2
v 2 0 -1.0000000000000002
v 2 -1 2
v 2 -1 -1.0000000000000002
vt 0 0.3125
vt 0.375 0.3125
vt 0.375 0.1875
vt 0 0.1875
vt 0.375 0.4375
vt 0.75 0.4375
vt 0.75 0.3125
vt 0.375 0.3125
vt 0 0.4375
vt 0.375 0.4375
vt 0.375 0.3125
vt 0 0.3125
vt 0.375 0.4375
vt 0.75 0.4375
vt 0.75 0.3125
vt 0.375 0.3125
vt 0.625 0.625
vt 1 0.625
vt 1 0.25
vt 0.625 0.25
vt 0.625 0.625
vt 1 0.625
vt 1 0.25
vt 0.625 0.25
vn 1.2246467991473532e-16 0 1
vn -1 0 1.2246467991473532e-16
vn -1.2246467991473532e-16 0 -1
vn 1 0 -1.2246467991473532e-16
vn 0 1 0
vn 0 -1 0
usemtl m_ff8d1876-c950-f489-c31b-5f2848f9adc4
f 4/4/1 7/3/1 5/2/1 2/1/1
f 3/8/2 4/7/2 2/6/2 1/5/2
f 8/12/3 3/11/3 1/10/3 6/9/3
f 7/16/4 8/15/4 6/14/4 5/13/4
usemtl m_c3cc8a39-63d5-a474-d1b6-db7f3a45bfb5
f 6/20/5 1/19/5 2/18/5 5/17/5
f 7/24/6 4/23/6 3/22/6 8/21/6
o top
v -0.8125000000000002 2 -0.7499999999999998
v -0.8124999999999998 2 1.75
v -0.8125000000000002 0 -0.7499999999999998
v -0.8124999999999998 0 1.75
v 1.8125 2 1.75
v 1.8125 2 -0.7500000000000002
v 1.8125 0 1.75
v 1.8125 0 -0.7500000000000002
vt 0.3125 1
vt 0.640625 1
vt 0.640625 0.75
vt 0.3125 0.75
vt 0 1
vt 0.3125 1
vt 0.3125 0.75
vt 0 0.75
vt 0.640625 1
vt 0.96875 1
vt 0.96875 0.75
vt 0.640625 0.75
vt 0 1
vt 0.3125 1
vt 0.3125 0.75
vt 0 0.75
vt 0.3125 0.75
vt 0.640625 0.75
vt 0.640625 0.4375
vt 0.3125 0.4375
vn 1.2246467991473532e-16 0 1
vn -1 0 1.2246467991473532e-16
vn -1.2246467991473532e-16 0 -1
vn 1 0 -1.2246467991473532e-16
vn 0 1 0
usemtl m_ff8d1876-c950-f489-c31b-5f2848f9adc4
f 12/28/7 15/27/7 13/26/7 10/25/7
f 11/32/8 12/31/8 10/30/8 9/29/8
f 16/36/9 11/35/9 9/34/9 14/33/9
f 15/40/10 16/39/10 14/38/10 13/37/10
f 14/44/11 9/43/11 10/42/11 13/41/11
o belt1
v 0.18750000000000022 0.125 1.75
v 0.18750000000000022 0.125 2
v 0.18750000000000022 0 1.75
v 0.18750000000000022 0 2
v 0.8125000000000002 0.125 2
v 0.8125000000000002 0.125 1.75
v 0.8125000000000002 0 2
v 0.8125000000000002 0 1.75
vt 0.1875 0
vt 0.8125 0
vt 0.8125 0.125
vt 0.1875 0.125
vt 0.1875 1
vt 0.8125 1
vt 0.8125 0.75
vt 0.1875 0.75
vn 1.2246467991473532e-16 0 1
vn 0 1 0
usemtl m_9754dfc8-8e82-3b5e-9e27-42c7217c12a4
f 20/48/12 23/47/12 21/46/12 18/45/12
f 22/52/13 17/51/13 18/50/13 21/49/13
o 1t
v 0.18750000000000022 1 1.75
v 0.18750000000000022 1 2
v 0.18750000000000022 0.8125 1.75
v 0.18750000000000022 0.8125 2
v 0.8125000000000002 1 2
v 0.8125000000000002 1 1.75
v 0.8125000000000002 0.8125 2
v 0.8125000000000002 0.8125 1.75
vt 0.078125 0.71875
vt 0.15625 0.71875
vt 0.15625 0.6953125
vt 0.078125 0.6953125
vt 0.078125 0.75
vt 0.15625 0.75
vt 0.15625 0.71875
vt 0.078125 0.71875
vt 0.078125 0.75
vt 0.15625 0.75
vt 0.15625 0.71875
vt 0.078125 0.71875
vn 1.2246467991473532e-16 0 1
vn 0 1 0
vn 0 -1 0
usemtl m_ff8d1876-c950-f489-c31b-5f2848f9adc4
f 28/56/14 31/55/14 29/54/14 26/53/14
f 30/60/15 25/59/15 26/58/15 29/57/15
f 31/64/16 28/63/16 27/62/16 32/61/16
o 1l
v 2.220446049250313e-16 1 1.75
v 2.220446049250313e-16 1 2
v 2.220446049250313e-16 0 1.75
v 2.220446049250313e-16 0 2
v 0.18750000000000022 1 2
v 0.18750000000000022 1 1.75
v 0.18750000000000022 0 2
v 0.18750000000000022 0 1.75
vt 0 0.75
vt 0.0234375 0.75
vt 0.0234375 0.625
vt 0 0.625
vt 0.0234375 0.75
vt 0.0546875 0.75
vt 0.0546875 0.625
vt 0.0234375 0.625
vt 0.0234375 0.75
vt 0.0546875 0.75
vt 0.0546875 0.625
vt 0.0234375 0.625
vt 0.0546875 0.75
vt 0.078125 0.75
vt 0.078125 0.71875
vt 0.0546875 0.71875
vn 1.2246467991473532e-16 0 1
vn -1 0 1.2246467991473532e-16
vn 1 0 -1.2246467991473532e-16
vn 0 1 0
usemtl m_ff8d1876-c950-f489-c31b-5f2848f9adc4
f 36/68/17 39/67/17 37/66/17 34/65/17
f 35/72/18 36/71/18 34/70/18 33/69/18
f 39/76/19 40/75/19 38/74/19 37/73/19
f 38/80/20 33/79/20 34/78/20 37/77/20
o 1r
v 0.8125000000000002 1 1.75
v 0.8125000000000002 1 2
v 0.8125000000000002 0 1.75
v 0.8125000000000002 0 2
v 1.0000000000000002 1 2
v 1 1 1.75
v 1.0000000000000002 0 2
v 1 0 1.75
vt 0.0234375 0.75
vt 0 0.75
vt 0 0.625
vt 0.0234375 0.625
vt 0.0234375 0.75
vt 0.0546875 0.75
vt 0.0546875 0.625
vt 0.0234375 0.625
vt 0.0234375 0.75
vt 0.0546875 0.75
vt 0.0546875 0.625
vt 0.0234375 0.625
vt 0.0546875 0.75
vt 0.078125 0.75
vt 0.078125 0.71875
vt 0.0546875 0.71875
vn 1.2246467991473532e-16 0 1
vn -1 0 1.2246467991473532e-16
vn 1 0 -1.2246467991473532e-16
vn 0 1 0
usemtl m_ff8d1876-c950-f489-c31b-5f2848f9adc4
f 44/84/21 47/83/21 45/82/21 42/81/21
f 43/88/22 44/87/22 42/86/22 41/85/22
f 47/92/23 48/91/23 46/90/23 45/89/23
f 46/96/24 41/95/24 42/94/24 45/93/24
o belt2
v 0.18749999999999978 0.125 -1
v 0.18749999999999978 0.125 -0.75
v 0.18749999999999978 0 -1
v 0.18749999999999978 0 -0.75
v 0.8124999999999998 0.125 -0.75
v 0.8124999999999998 0.125 -1
v 0.8124999999999998 0 -0.75
v 0.8124999999999998 0 -1
vt 0.1875 1
vt 0.8125 1
vt 0.8125 0.875
vt 0.1875 0.875
vt 0.1875 0.25
vt 0.8125 0.25
vt 0.8125 0
vt 0.1875 0
vn -1.2246467991473532e-16 0 -1
vn 0 1 0
usemtl m_9754dfc8-8e82-3b5e-9e27-42c7217c12a4
f 56/100/25 51/99/25 49/98/25 54/97/25
f 54/104/26 49/103/26 50/102/26 53/101/26
o 2l
v 0.8124999999999998 1 -1
v 0.8124999999999998 1 -0.75
v 0.8124999999999998 0 -1
v 0.8124999999999998 0 -0.75
v 0.9999999999999998 1 -0.75
v 0.9999999999999998 1 -1
v 0.9999999999999998 0 -0.75
v 0.9999999999999998 0 -1
vt 0.0234375 0.75
vt 0.0546875 0.75
vt 0.0546875 0.625
vt 0.0234375 0.625
vt 0 0.75
vt 0.0234375 0.75
vt 0.0234375 0.625
vt 0 0.625
vt 0.0234375 0.75
vt 0.0546875 0.75
vt 0.0546875 0.625
vt 0.0234375 0.625
vt 0.0546875 0.75
vt 0.078125 0.75
vt 0.078125 0.71875
vt 0.0546875 0.71875
vn -1 0 1.2246467991473532e-16
vn -1.2246467991473532e-16 0 -1
vn 1 0 -1.2246467991473532e-16
vn 0 1 0
usemtl m_ff8d1876-c950-f489-c31b-5f2848f9adc4
f 59/108/27 60/107/27 58/106/27 57/105/27
f 64/112/28 59/111/28 57/110/28 62/109/28
f 63/116/29 64/115/29 62/114/29 61/113/29
f 62/120/30 57/119/30 58/118/30 61/117/30
o 2r
v -2.220446049250313e-16 1 -1
v -1.1102230246251565e-16 1 -0.75
v -2.220446049250313e-16 0 -1
v -1.1102230246251565e-16 0 -0.75
v 0.18749999999999978 1 -0.75
v 0.18749999999999978 1 -1
v 0.18749999999999978 0 -0.75
v 0.18749999999999978 0 -1
vt 0.0234375 0.75
vt 0.0546875 0.75
vt 0.0546875 0.625
vt 0.0234375 0.625
vt 0.0234375 0.75
vt 0 0.75
vt 0 0.625
vt 0.0234375 0.625
vt 0.0234375 0.75
vt 0.0546875 0.75
vt 0.0546875 0.625
vt 0.0234375 0.625
vt 0.0546875 0.75
vt 0.078125 0.75
vt 0.078125 0.71875
vt 0.0546875 0.71875
vn -1 0 1.2246467991473532e-16
vn -1.2246467991473532e-16 0 -1
vn 1 0 -1.2246467991473532e-16
vn 0 1 0
usemtl m_ff8d1876-c950-f489-c31b-5f2848f9adc4
f 67/124/31 68/123/31 66/122/31 65/121/31
f 72/128/32 67/127/32 65/126/32 70/125/32
f 71/132/33 72/131/33 70/130/33 69/129/33
f 70/136/34 65/135/34 66/134/34 69/133/34
o 2t
v 0.18749999999999978 1 -1
v 0.18749999999999978 1 -0.75
v 0.18749999999999978 0.8125 -1
v 0.18749999999999978 0.8125 -0.75
v 0.8124999999999998 1 -0.75
v 0.8124999999999998 1 -1
v 0.8124999999999998 0.8125 -0.75
v 0.8124999999999998 0.8125 -1
vt 0.078125 0.71875
vt 0.15625 0.71875
vt 0.15625 0.6953125
vt 0.078125 0.6953125
vt 0.078125 0.75
vt 0.15625 0.75
vt 0.15625 0.71875
vt 0.078125 0.71875
vt 0.078125 0.75
vt 0.15625 0.75
vt 0.15625 0.71875
vt 0.078125 0.71875
vn -1.2246467991473532e-16 0 -1
vn 0 1 0
vn 0 -1 0
usemtl m_ff8d1876-c950-f489-c31b-5f2848f9adc4
f 80/140/35 75/139/35 73/138/35 78/137/35
f 78/144/36 73/143/36 74/142/36 77/141/36
f 79/148/37 76/147/37 75/146/37 80/145/37