mtllib crusher.mtl

o base
v 1 0 0.999999
v 1 0 1.999999
v 1 -0.5 1.999999
v 1 -0.5 0.999999
v 0 0 0.999999
v 0 -0.5 1
v 0 -0.5 1.999999
v 0 0 1.999999
v 3 -0.5 -1.000001
v -2 -0.5 -1
v -2 -0.5 2
v 3 -0.5 1.999999
v 3 -1 1.999999
v -2 -1 2
v -2 -1 -1
v 3 -1 -1.000001
v -1 0.5 1
v -2 0.5 1
v -2 -0.5 1
v -1 -0.5 1
v -2 0.5 0
v -1 0.5 0
v -1 -0.5 0
v -2 -0.5 0
v 0 0.5 1
v 1 0.5 1
v 0 0.5 0
v 1 0.5 0
v 1 -0.5 0
v 0 -0.5 0
v -2 1 1.500001
v -1 1 1.5
v -1 0 1.5
v -2 0 1.5
v -2 1 2.000001
v -1 1 2
v -1 0 2
v -2 0 2
v -1.75 0 1.875
v -1.875 0 1.875
v -1.875 -0.5 1.875
v -1.75 -0.5 1.875
v -1.875 0 1.625
v -1.75 0 1.625
v -1.75 -0.5 1.625
v -1.875 -0.5 1.625
v -1.125 0 1.875
v -1.25 0 1.875
v -1.25 -0.5 1.875
v -1.125 -0.5 1.875
v -1.25 0 1.625
v -1.125 0 1.625
v -1.125 -0.5 1.625
v -1.25 -0.5 1.625
v 3 1 -1
v 3 1 2
v 2 1 2
v 2 -0.5 2
v 2 1 -1
v 2 -0.5 -1.000001
v -1.1875 0.25 1.1875
v -1.8125 0.25 1.1875
v -1.8125 -0.5 1.1875
v -1.1875 -0.5 1.1875
v -1.1875 0.25 1
v -1.8125 0.25 1
v -1.8125 -0.5 1
v -1.1875 -0.5 1
v -0.75 1.625 0.8125
v -1 1.625 0.8125
v -1 -0.3125 0.8125
v -0.75 -0.3125 0.8125
v -1 1.625 0.1875
v -0.75 1.625 0.1875
v -0.75 -0.3125 0.1875
v -1 -0.3125 0.1875
v -0.5 0.5 1.75
v -0.75 0.5 1.75
v -0.75 -0.5 1.75
v -0.5 -0.5 1.75
v -0.75 0.5 1.5
v -0.5 0.5 1.5
v -0.5 -0.5 1.5
v -0.75 -0.5 1.5
v 1.8125 0.5 1.8125
v -0.8125 0.5 1.8125
v -0.8125 0.5 -0.8125
v 1.8125 0.5 -0.8125
v 1.5625 2 1.5625
v 1.5625 2 -0.5625
v 1.5625 0.75 -0.5625
v 1.5625 0.75 1.562501
v -0.8125 2 -0.8125
v 1.8125 1.999999 -0.8125
v -0.5625 1.999999 -0.5625
v -0.5625 0.75 -0.5625
v -0.8125 2 1.8125
v -0.5625 2 1.562501
v -0.562501 0.750001 1.5625
v 1.8125 2 1.8125
v 1.5625 2 -0.8125
v -0.5625 2 -0.8125
v 1.5625 2 1.8125
v -0.5625 2 1.8125
v -0.5 0.5 -0.5
v -0.75 0.5 -0.5
v -0.75 -0.5 -0.5
v -0.5 -0.5 -0.5
v -0.75 0.5 -0.75
v -0.5 0.5 -0.75
v -0.5 -0.5 -0.75
v -0.75 -0.5 -0.75
v 1.5 0.5 -0.75
v 1.75 0.5 -0.75
v 1.75 -0.5 -0.749999
v 1.5 -0.5 -0.749999
v 1.75 0.5 -0.5
v 1.5 0.5 -0.5
v 1.5 -0.5 -0.5
v 1.75 -0.5 -0.499999
v 1.5 0.5 1.5
v 1.75 0.5 1.5
v 1.75 -0.5 1.500001
v 1.5 -0.5 1.500001
v 1.75 0.5 1.75
v 1.5 0.5 1.75
v 1.5 -0.5 1.750001
v 1.75 -0.5 1.750001
v -1.8125 0.25 -0.1875
v -1.1875 0.25 -0.1875
v -1.1875 -0.5 -0.1875
v -1.8125 -0.5 -0.1875
v -1.8125 0.25 0
v -1.1875 0.25 0
v -1.8125 -0.5 0
v -1.1875 -0.5 0
vt 0.875 0.25
vt 1 0.25
vt 1 0.1875
vt 0.875 0.1875
vt 1 0.25
vt 1 0.1875
vt 0.875 0.1875
vt 0.875 0.25
vt 0 1
vt 0.625 1
vt 0.625 0.625
vt 0 0.625
vt 0.625 0.25
vt 0 0.25
vt 0 0.625
vt 0.625 0.625
vt 0.875 0.25
vt 1 0.25
vt 1 0.125
vt 0.875 0.125
vt 0.875 0.25
vt 1 0.25
vt 1 0.125
vt 0.875 0.125
vt 1 0.25
vt 1 0.125
vt 0.875 0.125
vt 0.875 0.25
vt 0.75 0.25
vt 0.75 0.125
vt 0.875 0.125
vt 0.875 0.25
vt 0.75 0.25
vt 0.875 0.25
vt 0.875 0.125
vt 0.75 0.125
vt 0.875 0.25
vt 0.875 0.125
vt 0.75 0.125
vt 0.75 0.25
vt 0.75 0.25
vt 0.875 0.25
vt 0.875 0.125
vt 0.75 0.125
vt 0 0.1875
vt 0.625 0.1875
vt 0.625 0.125
vt 0 0.125
vt 0 0.25
vt 0.625 0.25
vt 0.625 0.1875
vt 0 0.1875
vt 0.375 0.125
vt 0.375 0.0625
vt 0 0.0625
vt 0 0.125
vt 0.375 0.0625
vt 0 0.0625
vt 0 0.125
vt 0.375 0.125
vt 0.875 0.25
vt 1 0.25
vt 1 0.125
vt 0.875 0.125
vt 0.875 0.25
vt 1 0.25
vt 1 0.1875
vt 0.875 0.1875
vt 1 0.1875
vt 0.875 0.1875
vt 0.875 0.25
vt 1 0.25
vt 1 0.25
vt 1 0.125
vt 0.9375 0.125
vt 0.9375 0.25
vt 0.875 0.25
vt 0.9375 0.25
vt 0.9375 0.125
vt 0.875 0.125
vt 0.375 0.75
vt 0.5 0.75
vt 0.5 0.6875
vt 0.375 0.6875
vt 0.71875 0.5625
vt 0.703125 0.5625
vt 0.703125 0.5
vt 0.71875 0.5
vt 0.71875 0.5625
vt 0.703125 0.5625
vt 0.703125 0.5
vt 0.71875 0.5
vt 0.71875 0.5625
vt 0.71875 0.5
vt 0.75 0.5
vt 0.75 0.5625
vt 0.75 0.5625
vt 0.71875 0.5625
vt 0.71875 0.5
vt 0.75 0.5
vt 0.71875 0.5625
vt 0.703125 0.5625
vt 0.703125 0.5
vt 0.71875 0.5
vt 0.71875 0.5625
vt 0.703125 0.5625
vt 0.703125 0.5
vt 0.71875 0.5
vt 0.71875 0.5625
vt 0.71875 0.5
vt 0.75 0.5
vt 0.75 0.5625
vt 0.75 0.5625
vt 0.71875 0.5625
vt 0.71875 0.5
vt 0.75 0.5
vt 0.75 0.625
vt 0.875 0.625
vt 0.875 0.5
vt 0.75 0.5
vt 0 1
vt 0.375 1
vt 0.375 0.8125
vt 0 0.8125
vt 0 0.375
vt 0.125 0.375
vt 0.125 0.1875
vt 0 0.1875
vt 0.375 0.8125
vt 0.375 0.625
vt 0 0.625
vt 0 0.8125
vt 0.375 0.625
vt 0.375 0.5
vt 0 0.5
vt 0 0.625
vt 0 0.375
vt 0.125 0.375
vt 0.125 0.1875
vt 0 0.1875
vt 0.53125 0.671875
vt 0.65625 0.671875
vt 0.65625 0.546875
vt 0.53125 0.546875
vt 0.53125 0.671875
vt 0.53125 0.546875
vt 0.40625 0.546875
vt 0.40625 0.671875
vt 0.40625 0.671875
vt 0.53125 0.671875
vt 0.53125 0.546875
vt 0.40625 0.546875
vt 0.132812 0.46093800000000007
vt 0.210938 0.46093800000000007
vt 0.210938 0.36718800000000007
vt 0.132812 0.36718800000000007
vt 0.132812 0.484375
vt 0.210938 0.484375
vt 0.210938 0.46093800000000007
vt 0.132812 0.46093800000000007
vt 0.132812 0.46093800000000007
vt 0.132812 0.36718800000000007
vt 0.109375 0.36718800000000007
vt 0.109375 0.46093800000000007
vt 0.109375 0.46093800000000007
vt 0.132812 0.46093800000000007
vt 0.132812 0.36718800000000007
vt 0.109375 0.36718800000000007
vt 0.078125 0.453125
vt 0.109375 0.453125
vt 0.109375 0.21093799999999996
vt 0.078125 0.21093799999999996
vt 0.078125 0.453125
vt 0.109375 0.453125
vt 0.109375 0.21093799999999996
vt 0.078125 0.21093799999999996
vt 0 0.453125
vt 0 0.484375
vt 0.078125 0.484375
vt 0.078125 0.453125
vt 0.078125 0.484375
vt 0.078125 0.453125
vt 0 0.453125
vt 0 0.484375
vt 0.078125 0.453125
vt 0.078125 0.21093799999999996
vt 0 0.21093799999999996
vt 0 0.453125
vt 0 0.453125
vt 0.078125 0.453125
vt 0.078125 0.21093799999999996
vt 0 0.21093799999999996
vt 0.328125 0.671875
vt 0.359375 0.671875
vt 0.359375 0.546875
vt 0.328125 0.546875
vt 0.328125 0.671875
vt 0.359375 0.671875
vt 0.359375 0.546875
vt 0.328125 0.546875
vt 0.359375 0.671875
vt 0.359375 0.546875
vt 0.328125 0.546875
vt 0.328125 0.671875
vt 0.328125 0.671875
vt 0.359375 0.671875
vt 0.359375 0.546875
vt 0.328125 0.546875
vt 0.65625 0.671875
vt 0.328125 0.671875
vt 0.328125 1
vt 0.65625 1
vt 0.03125 0.2109375
vt 0.296875 0.2109375
vt 0.296875 0.0546875
vt 0.03125 0.0546875
vt 0 0.671875
vt 0.328125 0.671875
vt 0.328125 0.484375
vt 0 0.484375
vt 0.03125 0.2109375
vt 0.296875 0.2109375
vt 0.296875 0.0546875
vt 0.03125 0.0546875
vt 0 0.2109375
vt 0.328125 0.2109375
vt 0.328125 0.0234375
vt 0 0.0234375
vt 0.03125 0.2109375
vt 0.296875 0.2109375
vt 0.296875 0.0546875
vt 0.03125 0.0546875
vt 0.03125 0.2109375
vt 0.296875 0.2109375
vt 0.296875 0.0546875
vt 0.03125 0.0546875
vt 0.03125 0.96875
vt 0.296875 0.96875
vt 0.296875 0.703125
vt 0.03125 0.703125
vt 0 0.2109375
vt 0.328125 0.2109375
vt 0.328125 0.0234375
vt 0 0.0234375
vt 0 0.671875
vt 0.328125 0.671875
vt 0.328125 0.484375
vt 0 0.484375
vt 0.625 0.96875
vt 0.625 1
vt 0.359375 1
vt 0.359375 0.96875
vt 0.65625 0.671875
vt 0.65625 1
vt 0.625 1
vt 0.625 0.671875
vt 0.359375 0.671875
vt 0.359375 1
vt 0.328125 1
vt 0.328125 0.671875
vt 0.625 0.671875
vt 0.625 0.703125
vt 0.359375 0.703125
vt 0.359375 0.671875
vt 0.328125 0.671875
vt 0.359375 0.671875
vt 0.359375 0.546875
vt 0.328125 0.546875
vt 0.328125 0.671875
vt 0.359375 0.671875
vt 0.359375 0.546875
vt 0.328125 0.546875
vt 0.359375 0.671875
vt 0.359375 0.546875
vt 0.328125 0.546875
vt 0.328125 0.671875
vt 0.328125 0.671875
vt 0.359375 0.671875
vt 0.359375 0.546875
vt 0.328125 0.546875
vt 0.328125 0.671875
vt 0.359375 0.671875
vt 0.359375 0.546875
vt 0.328125 0.546875
vt 0.328125 0.671875
vt 0.359375 0.671875
vt 0.359375 0.546875
vt 0.328125 0.546875
vt 0.359375 0.671875
vt 0.359375 0.546875
vt 0.328125 0.546875
vt 0.328125 0.671875
vt 0.328125 0.671875
vt 0.359375 0.671875
vt 0.359375 0.546875
vt 0.328125 0.546875
vt 0.328125 0.671875
vt 0.359375 0.671875
vt 0.359375 0.546875
vt 0.328125 0.546875
vt 0.328125 0.671875
vt 0.359375 0.671875
vt 0.359375 0.546875
vt 0.328125 0.546875
vt 0.359375 0.671875
vt 0.359375 0.546875
vt 0.328125 0.546875
vt 0.328125 0.671875
vt 0.328125 0.671875
vt 0.359375 0.671875
vt 0.359375 0.546875
vt 0.328125 0.546875
vt 0.132812 0.46093800000000007
vt 0.210938 0.46093800000000007
vt 0.210938 0.36718800000000007
vt 0.132812 0.36718800000000007
vt 0.132812 0.484375
vt 0.210938 0.484375
vt 0.210938 0.46093800000000007
vt 0.132812 0.46093800000000007
vt 0.132812 0.46093800000000007
vt 0.132812 0.36718800000000007
vt 0.109375 0.36718800000000007
vt 0.109375 0.46093800000000007
vt 0.109375 0.46093800000000007
vt 0.132812 0.46093800000000007
vt 0.132812 0.36718800000000007
vt 0.109375 0.36718800000000007
vn 1 0 0
vn -1 0 0
vn 0 1 0
vn 0 -1 0
vn 0 1 0
vn 0 0 1
vn 0 0 -1
vn 0.000001000000000028256 0 0.9999999999995002
vn 0 0 -1
vn -1 0 0
vn 1 0 0
vn 1.999999999835427e-7 0 0.9999999999999801
vn -1.999999999835427e-7 0 -0.9999999999999801
vn -1 0 0
vn 1 0 0
vn -9.999999999172336e-7 0 -0.9999999999995002
vn 0 1 0
vn 0 -1 0
vn -1 0 0
vn 1 0 0
vn 0 0 1
vn 0 0 1
vn 0 0 -1
vn -1 0 0
vn 1 0 0
vn 0 0 1
vn 0 0 -1
vn -1 0 0
vn 1 0 0
vn 0.000001000000000138778 -0.000001000000000138778 0.9999999999990001
vn 1 0 0
vn 0 0 1
vn -1 0 0
vn 0 1 0
vn 0 6.666666666116742e-7 -0.9999999999997778
vn 0 1 0
vn -1 0 0
vn 1 0 0
vn 0 0 1
vn 0 1 0
vn -1 0 0
vn 1 0 0
vn 0 0 1
vn 0 0 -1
vn 0 1 0
vn 0 -1 0
vn -1 0 0
vn 1 0 0
vn 0 0 1
vn 0 0 -1
vn -1 0 0
vn 1 0 0
vn 0 -1 0
vn -1 0 0
vn 0 0 -1
vn 0 0 1
vn -1 0 0
vn 0.99999999999968 -8.000006400235616e-7 3.764707122291934e-13
vn -4.7058823525520127e-7 -7.999999999338421e-7 -0.9999999999995693
vn 0 0.9999999999998893 -4.705882353075976e-7
vn 1 0 0
vn 0 0 1
vn 0 1 0
vn 0.000003999999999638644 0.9999999999919276 -3.809523809179661e-7
vn 0 1 0
vn 0 1 0
vn 0 0 1
vn 0 0 -1
vn -1 0 0
vn 1 0 0
vn 0 -0.000001000000000028256 -0.9999999999995002
vn 0 0 1
vn 1 0 0
vn -1 0 0
vn 0 -9.999999999172336e-7 -0.9999999999995002
vn 0 9.999999999172336e-7 0.9999999999995002
vn 1 0 0
vn -1 0 0
vn 0 0 -1
vn 0 1 0
vn -1 0 0
vn 1 0 0
usemtl m_14b4311b-2fd5-cc7e-54c0-bbdce81a83f4
f 1/1/1 2/2/1 3/3/1 4/4/1
f 5/5/2 6/6/2 7/7/2 8/8/2
f 9/9/3 10/10/3 11/11/3 12/12/3
f 13/13/4 14/14/4 15/15/4 16/16/4
f 1/17/5 5/18/5 8/19/5 2/20/5
f 17/21/6 18/22/6 19/23/6 20/24/6
f 21/25/7 22/26/7 23/27/7 24/28/7
f 25/29/8 6/30/8 4/31/8 26/32/8
f 27/33/9 28/34/9 29/35/9 30/36/9
f 27/37/10 30/38/10 6/39/10 25/40/10
f 28/41/11 26/42/11 4/43/11 29/44/11
f 12/45/12 11/46/12 14/47/12 13/48/12
f 10/49/13 9/50/13 16/51/13 15/52/13
f 10/53/14 15/54/14 14/55/14 11/56/14
f 13/57/15 16/58/15 9/59/15 12/60/15
f 31/61/16 32/62/16 33/63/16 34/64/16
f 32/65/17 31/66/17 35/67/17 36/68/17
f 37/69/18 38/70/18 34/71/18 33/72/18
f 31/73/19 34/74/19 38/75/19 35/76/19
f 32/77/20 36/78/20 37/79/20 33/80/20
usemtl m_86c443cb-2517-ee9e-0846-779c42f70aec
f 2/81/21 8/82/21 7/83/21 3/84/21
f 39/85/22 40/86/22 41/87/22 42/88/22
f 43/89/23 44/90/23 45/91/23 46/92/23
f 43/93/24 46/94/24 41/95/24 40/96/24
f 44/97/25 39/98/25 42/99/25 45/100/25
f 47/101/26 48/102/26 49/103/26 50/104/26
f 51/105/27 52/106/27 53/107/27 54/108/27
f 51/109/28 54/110/28 49/111/28 48/112/28
f 52/113/29 47/114/29 50/115/29 53/116/29
f 36/117/30 35/118/30 38/119/30 37/120/30
f 55/121/31 56/122/31 12/123/31 9/124/31
f 56/125/32 57/126/32 58/127/32 12/128/32
f 59/129/33 60/130/33 58/131/33 57/132/33
f 55/133/34 59/134/34 57/135/34 56/136/34
f 59/137/35 55/138/35 9/139/35 60/140/35
usemtl m_298095a3-eb2b-441d-e91a-5b930086eb3c
f 22/141/36 21/142/36 18/143/36 17/144/36
f 21/145/37 24/146/37 19/147/37 18/148/37
f 22/149/38 17/150/38 20/151/38 23/152/38
f 61/153/39 62/154/39 63/155/39 64/156/39
f 65/157/40 66/158/40 62/159/40 61/160/40
f 66/161/41 67/162/41 63/163/41 62/164/41
f 65/165/42 61/166/42 64/167/42 68/168/42
f 69/169/43 70/170/43 71/171/43 72/172/43
f 73/173/44 74/174/44 75/175/44 76/176/44
f 74/177/45 73/178/45 70/179/45 69/180/45
f 72/181/46 71/182/46 76/183/46 75/184/46
f 73/185/47 76/186/47 71/187/47 70/188/47
f 74/189/48 69/190/48 72/191/48 75/192/48
f 77/193/49 78/194/49 79/195/49 80/196/49
f 81/197/50 82/198/50 83/199/50 84/200/50
f 81/201/51 84/202/51 79/203/51 78/204/51
f 82/205/52 77/206/52 80/207/52 83/208/52
f 85/209/53 86/210/53 87/211/53 88/212/53
f 89/213/54 90/214/54 91/215/54 92/216/54
f 93/217/55 94/218/55 88/219/55 87/220/55
f 90/221/56 95/222/56 96/223/56 91/224/56
f 97/225/57 93/226/57 87/227/57 86/228/57
f 95/229/58 98/230/58 99/231/58 96/232/58
f 98/233/59 89/234/59 92/235/59 99/236/59
f 91/237/60 96/238/60 99/239/60 92/240/60
f 94/241/61 100/242/61 85/243/61 88/244/61
f 100/245/62 97/246/62 86/247/62 85/248/62
f 90/249/63 101/250/63 102/251/63 95/252/63
f 100/253/64 94/254/64 101/255/64 103/256/64
f 104/257/65 102/258/65 93/259/65 97/260/65
f 103/261/66 89/262/66 98/263/66 104/264/66
f 105/265/67 106/266/67 107/267/67 108/268/67
f 109/269/68 110/270/68 111/271/68 112/272/68
f 109/273/69 112/274/69 107/275/69 106/276/69
f 110/277/70 105/278/70 108/279/70 111/280/70
f 113/281/71 114/282/71 115/283/71 116/284/71
f 117/285/72 118/286/72 119/287/72 120/288/72
f 117/289/73 120/290/73 115/291/73 114/292/73
f 118/293/74 113/294/74 116/295/74 119/296/74
f 121/297/75 122/298/75 123/299/75 124/300/75
f 125/301/76 126/302/76 127/303/76 128/304/76
f 125/305/77 128/306/77 123/307/77 122/308/77
f 126/309/78 121/310/78 124/311/78 127/312/78
f 129/313/79 130/314/79 131/315/79 132/316/79
f 130/317/80 129/318/80 133/319/80 134/320/80
f 129/321/81 132/322/81 135/323/81 133/324/81
f 130/325/82 134/326/82 136/327/82 131/328/82
o plane
v 1.4999999999999998 0.49999999999999983 -0.6249999999999999
v 1.4999999999999998 -0.49999999999999983 -0.6250000000000001
v -0.4999999999999998 0.49999999999999983 -0.6249999999999999
v -0.4999999999999998 -0.49999999999999983 -0.6250000000000001
v 1.50625 0.4999999999999995 1.625
v 1.50625 -0.5000000000000004 1.625
v -0.5062500000000001 -0.5000000000000004 1.625
v -0.5062500000000001 0.4999999999999995 1.625
v -0.49999999999999056 0.499999999999997 -0.6249999999999999
v -0.49999999999999056 -0.499999999999997 -0.6250000000000001
v 1.4999999999999907 -0.499999999999997 -0.6250000000000001
v 1.4999999999999907 0.499999999999997 -0.6249999999999999
v -0.4999999999999927 0.4999999999999972 1.625
v -0.4999999999999927 -0.49999999999999817 1.625
v 1.4999999999999925 -0.49999999999999817 1.625
v 1.4999999999999925 0.4999999999999972 1.625
vt 0.109375 0.3515625
vt 0.109375 0.2265625
vt 0.359375 0.2265625
vt 0.359375 0.3515625
vt 0.109375 0.3515625
vt 0.109375 0.2265625
vt 0.359375 0.2265625
vt 0.359375 0.3515625
vt 0.359375 0.3515625
vt 0.359375 0.2265625
vt 0.109375 0.2265625
vt 0.109375 0.3515625
vt 0.359375 0.3515625
vt 0.359375 0.2265625
vt 0.109375 0.2265625
vt 0.109375 0.3515625
vn 0 2.255140518769849e-16 -1
vn 0 2.220446049250313e-16 -1
vn -3.469446951953647e-17 -2.220446049250313e-16 1
vn 0 -2.220446049250313e-16 1
usemtl m_298095a3-eb2b-441d-e91a-5b930086eb3c
f 137/329/83 138/330/83 140/331/83 139/332/83
f 141/333/84 142/334/84 143/335/84 144/336/84
f 145/337/85 146/338/85 147/339/85 148/340/85
f 149/341/86 150/342/86 151/343/86 152/344/86