mtllib excavator.mtl

o excavator
v -0.5 0.000001 -5
v -0.5 -0.999999 -5
v -0.5 -0.999999 -2.000001
v -0.500001 0.000001 -2
v 0.999999 2.000001 -2.625001
v 0.999999 1.000001 -2.625
v 0.999999 1.000001 -2.5
v 0.999999 2.000001 -2.500001
v 1.874999 2.000001 -2.625001
v 1.874999 1.000001 -2.625
v 1.499999 0.000001 -2
v 1.5 -0.999999 -2
v 1.5 -0.999999 -5
v 1.5 0.000001 -5
v 1.999999 2.000001 -2.500001
v 1.999999 1.000001 -2.5
v 2 1.000001 -4.5
v 1.999999 2.000001 -4.5
v 1.874999 2.000001 -4.5
v 1.874999 2.000001 -2.500001
v 1.874999 1.000001 -2.5
v 0.999999 2.000001 -4.5
v 1 1.000001 -4.5
v 1 1.000001 -4.375
v 0.999999 2 -4.375
v 1.874999 2.000001 -4.375
v 1.875 1.000001 -4.375
v 0 1.000001 -5
v 0 0.000001 -5
v -1 0.000001 -5
v -1 1 -5
v 2 1.000001 -5
v 1 1.000001 -5
v 0.999999 1.000001 -2
v 1.999999 1.000001 -2
v 2 0.000001 -5
v 1 0.000001 -5
v -0.75 -0.624999 -3.875
v -0.75 -0.624999 -2
v -0.5 -0.624999 -2
v -0.5 -0.624999 -3.875
v 1.75 0.000001 -4.125
v 1.75 -0.874999 -4.125
v 1.5 -0.874999 -4.125
v 1.5 0.000001 -4.125
v -0.5 -0.374999 -2.5
v -0.5 -0.374999 -2
v -0.75 -0.374999 -2
v -0.75 -0.374999 -2.5
v 1.75 -0.124999 -3.375
v 1.5 -0.124999 -3.375
v 1.5 -0.124999 -2
v 1.75 -0.124999 -2
v -0.75 -0.124999 -2
v -0.75 -0.124999 -2.5
v -0.75 -0.499999 -3.875001
v -0.75 -0.499999 -4.125
v -0.75 -0.874999 -4.125
v -0.75 -0.874999 -3.875001
v -0.5 -0.874999 -3.875001
v -0.5 -0.874999 -2
v -0.75 -0.874999 -2
v -0.000001 2 -2.000001
v -0.000001 1 -2
v -1.000001 1 -2
v -1.000001 2 -2.000001
v -1 1.5 -4.5
v -1 -0.499999 -4.5
v -1 -0.499999 -2.5
v -1.000001 1.5 -2.500001
v -0.500001 -0.499999 -2.500001
v -0.5 0.000001 -2.5
v -1 0.000001 -2.5
v -0.5 -0.499999 -4.5
v -1 0.000001 -4.5
v -0.5 0.000001 -4.5
v 1.875 1.000001 -4.5
v -0.000001 1.5 -4.5
v 0 1.000001 -4.500001
v -1 1.000001 -4.500001
v -0.000001 1.5 -2.500001
v -1 1 -2.500001
v -0.000001 1 -2.5
v 0.999999 2 1
v -0.000001 2 1
v 0 -0.999999 1
v 1 -0.999999 1
v 1.75 -0.874999 -3.875001
v 1.5 -0.874999 -3.875001
v 1.75 -0.624999 -2
v 1.75 -0.874999 -2
v 1.75 -0.624999 -3.875
v 1.5 -0.874999 -2
v -0.5 -0.874999 -4.125
v -0.5 -0.124999 -2
v -0.5 -0.124999 -2.5
v -0.5 -0.499999 -4.125
v 1.75 0.000001 -3.875001
v 1.5 -0.374999 -3.625
v 1.75 -0.374999 -3.625
v 1.75 -0.374999 -3.375
v 1.5 -0.374999 -3.375
v 1.75 -0.374999 -2
v 1.5 -0.374999 -2
v 1.5 -0.624999 -3.875
v 1.5 -0.624999 -2
v 1.5 0.000001 -3.875001
v 1.75 0.000001 -3.375
v 1.75 0.000001 -3.625
v 1.5 0.000001 -3.625
v 1.5 0.000001 -3.375
v -0.5 -0.499999 -3.875001
v 1.999999 -0.249999 -0.250001
v 2 -0.749999 -0.250001
v 2 -0.749999 -0.750001
v 1.999999 -0.249999 -0.750001
v 1.499999 -0.249999 -0.750001
v 1.499999 -0.249999 -0.250001
v 1.5 -0.749999 -0.750001
v 1.499999 -0.749999 -0.250001
v 1.499999 2.000001 0
v 1.5 -0.999999 0
v 1.5 -0.999999 -1
v 1.499999 2.000001 -1
v 1.812499 -0.374999 -0.750001
v 1.812499 -0.624999 -0.750001
v 1.8125 -0.624999 -1.000001
v 1.812499 -0.374999 -1.000001
v 1.5 -0.374999 -1.000001
v 1.5 -0.374999 -0.750001
v 1.5 -0.624999 -1.000001
v 1.5 -0.624999 -0.750001
v -1 -0.999999 -2.000001
v -1 -0.999999 1
v -1.000001 2 1
v -0.000001 0.000001 -2.000001
v 0 -0.999999 -2.000001
v -1.000001 0 -2.000001
v 1.999999 0.750001 -0.25
v 1.999999 0.250001 -0.250001
v 1.999999 0.250001 -0.750001
v 1.999999 0.750001 -0.75
v 1.499999 0.750001 -0.75
v 1.499999 0.750001 -0.25
v 1.499999 0.250001 -0.750001
v 1.499999 0.250001 -0.250001
v 1.999999 1.750001 -0.250001
v 1.999999 1.250001 -0.25
v 1.999999 1.250001 -0.75
v 1.999999 1.750001 -0.750001
v 1.499999 1.750001 -0.750001
v 1.499999 1.750001 -0.250001
v 1.499999 1.250001 -0.75
v 1.499999 1.250001 -0.25
v 1.812499 1.625001 -0.750001
v 1.812499 1.375001 -0.750001
v 1.812499 1.375001 -1.000001
v 1.812499 1.625001 -1.000001
v 1.499999 1.625001 -1.000001
v 1.499999 1.625001 -0.750001
v 1.499999 1.375001 -1.000001
v 1.499999 1.375001 -0.750001
v 1.812499 0.625001 -0.75
v 1.812499 0.375001 -0.750001
v 1.812499 0.375001 -1
v 1.812499 0.625001 -1
v 1.499999 0.625001 -1
v 1.499999 0.625001 -0.75
v 1.5 0.375001 -1
v 1.5 0.375001 -0.750001
v 1.999999 0 -2.000001
v 1.999999 2.000001 0
v 0.999999 2.000001 0
v 1.999999 2.000001 1
v 0 -0.999999 -5
v 1 1 0
v 0 1.000001 0
v -0.000001 2.000001 0
v 1 -0.999999 -5
v 0 -0.999999 0
v 1 -0.999999 0
v 0 0.000001 0
v 1 0.000001 0
v 0 0.000001 -4.5
v 1 -0.999999 -2.000001
v 0.999999 0 -2.000001
v 2 -0.999999 0
v 2 -0.999999 1
v 0 -0.999999 -4.5
v 0 -0.499999 -2.5
v 0 -0.499999 -4.5
v 0.999999 2 -2.000001
v 0 -0.999999 -2.5
v 2 -0.999999 -2.000001
v 2 -0.999999 -1
v 1 -0.999999 -1
v 0.999999 2.000001 -1
v 1.999999 2.000001 -1
v 1.999999 2.000001 -2
v 0 0.000001 -2.5
vt 0.8125 0.109375
vt 0.9375 0.109375
vt 0.9375 0.484375
vt 0.8125 0.484375
vt 0.875 0.609375
vt 0.875 0.484375
vt 0.890625 0.484375
vt 0.890625 0.609375
vt 0.765625 0.609375
vt 0.765625 0.484375
vt 0.875 0.484375
vt 0.875 0.609375
vt 0.8125 0.109375
vt 0.9375 0.109375
vt 0.9375 0.484375
vt 0.8125 0.484375
vt 0.515625 0.609375
vt 0.515625 0.484375
vt 0.765625 0.484375
vt 0.765625 0.609375
vt 0.515625 0.625
vt 0.515625 0.609375
vt 0.765625 0.609375
vt 0.765625 0.625
vt 0.515625 0.609375
vt 0.5 0.609375
vt 0.5 0.484375
vt 0.515625 0.484375
vt 0.875 0.609375
vt 0.875 0.484375
vt 0.890625 0.484375
vt 0.890625 0.609375
vt 0.875 0.609375
vt 0.765625 0.609375
vt 0.765625 0.484375
vt 0.875 0.484375
vt 0 0.625
vt 0 0.5
vt 0.125 0.5
vt 0.125 0.625
vt 0.125 1
vt 0.125 0.875
vt 0.5 0.875
vt 0.5 1
vt 0 0.625
vt 0 0.5
vt 0.125 0.5
vt 0.125 0.625
vt 0.796875 0.03125
vt 0.5625 0.03125
vt 0.5625 0
vt 0.796875 0
vt 0.5 0.109375
vt 0.5 0
vt 0.53125 0
vt 0.53125 0.109375
vt 0.757812 0
vt 0.695312 0
vt 0.695312 0.03125
vt 0.757812 0.03125
vt 0.765625 0.03125
vt 0.765625 0
vt 0.59375 0
vt 0.59375 0.03125
vt 0.695312 0.03125
vt 0.757812 0.03125
vt 0.757812 0
vt 0.695312 0
vt 0.5625 0.046875
vt 0.53125 0.046875
vt 0.53125 0
vt 0.5625 0
vt 0.796875 0
vt 0.5625 0
vt 0.5625 0.03125
vt 0.796875 0.03125
vt 0.5 0.375
vt 0.5 0.25
vt 0.375 0.25
vt 0.375 0.375
vt 0.5 0.359375
vt 0.5 0.109375
vt 0.75 0.109375
vt 0.75 0.359375
vt 0.6875 0.359375
vt 0.6875 0.421875
vt 0.75 0.421875
vt 0.75 0.359375
vt 0.5 0.421875
vt 0.75 0.421875
vt 0.75 0.359375
vt 0.5 0.359375
vt 0.5625 0.421875
vt 0.5625 0.359375
vt 0.5 0.359375
vt 0.5 0.421875
vt 0.890625 0.609375
vt 0.890625 0.5
vt 0.90625 0.5
vt 0.90625 0.609375
vt 0.875 0.609375
vt 0.765625 0.609375
vt 0.765625 0.484375
vt 0.875 0.484375
vt 0.515625 0.609375
vt 0.515625 0.484375
vt 0.765625 0.484375
vt 0.765625 0.609375
vt 0.5 0.609375
vt 0.5 0.484375
vt 0.515625 0.484375
vt 0.515625 0.609375
vt 0.890625 0.609375
vt 0.890625 0.5
vt 0.90625 0.5
vt 0.90625 0.609375
vt 0.765625 0.609375
vt 0.765625 0.484375
vt 0.875 0.484375
vt 0.875 0.609375
vt 0.5625 0.484375
vt 0.5 0.484375
vt 0.5 0.359375
vt 0.5625 0.359375
vt 0.125 0.875
vt 0.125 0.75
vt 0.1875 0.75
vt 0.1875 0.875
vt 0.125 0.875
vt 0.125 0.75
vt 0.1875 0.75
vt 0.1875 0.875
vt 0.5 0.484375
vt 0.5 0.359375
vt 0.75 0.359375
vt 0.75 0.484375
vt 0.6875 0.359375
vt 0.75 0.359375
vt 0.75 0.484375
vt 0.6875 0.484375
vt 0.375 0.375
vt 0.25 0.375
vt 0.25 0
vt 0.375 0
vt 0.5625 0.0625
vt 0.5625 0.03125
vt 0.59375 0.03125
vt 0.59375 0.0625
vt 0.5625 0.03125
vt 0.796875 0.03125
vt 0.796875 0
vt 0.5625 0
vt 0.5625 0.03125
vt 0.5625 0
vt 0.796875 0
vt 0.796875 0.03125
vt 0.796875 0
vt 0.796875 0.03125
vt 0.5625 0.03125
vt 0.5625 0
vt 0.5625 0.0625
vt 0.59375 0.0625
vt 0.59375 0.03125
vt 0.5625 0.03125
vt 0.757812 0.03125
vt 0.695312 0.03125
vt 0.695312 0
vt 0.757812 0
vt 0.5 0.046875
vt 0.53125 0.046875
vt 0.53125 0
vt 0.5 0
vt 0.5625 0.109375
vt 0.5625 0
vt 0.53125 0
vt 0.53125 0.109375
vt 0.5625 0.0625
vt 0.5625 0.03125
vt 0.59375 0.03125
vt 0.59375 0.0625
vt 0.59375 0.03125
vt 0.59375 0
vt 0.765625 0
vt 0.765625 0.03125
vt 0.765625 0
vt 0.765625 0.03125
vt 0.59375 0.03125
vt 0.59375 0
vt 0.796875 0.03125
vt 0.796875 0
vt 0.5625 0
vt 0.5625 0.03125
vt 0.5 0.109375
vt 0.53125 0.109375
vt 0.53125 0.03125
vt 0.5 0.03125
vt 0.5625 0.046875
vt 0.5625 0
vt 0.53125 0
vt 0.53125 0.046875
vt 0.5 0.046875
vt 0.5 0
vt 0.53125 0
vt 0.53125 0.046875
vt 0.5 0.046875
vt 0.53125 0.046875
vt 0.53125 0.03125
vt 0.5 0.03125
vt 0.5 0.046875
vt 0.5 0.03125
vt 0.53125 0.03125
vt 0.53125 0.046875
vt 0.59375 0.09375
vt 0.59375 0.03125
vt 0.65625 0.03125
vt 0.65625 0.09375
vt 0.65625 0.09375
vt 0.65625 0.03125
vt 0.71875 0.03125
vt 0.71875 0.09375
vt 0.71875 0.03125
vt 0.71875 0.09375
vt 0.65625 0.09375
vt 0.65625 0.03125
vt 0.71875 0.09375
vt 0.65625 0.09375
vt 0.65625 0.03125
vt 0.71875 0.03125
vt 0.65625 0.09375
vt 0.65625 0.03125
vt 0.71875 0.03125
vt 0.71875 0.09375
vt 0.0625 0.375
vt 0.0625 0
vt 0.1875 0
vt 0.1875 0.375
vt 0.757812 0.0625
vt 0.757812 0.03125
vt 0.789062 0.03125
vt 0.789062 0.0625
vt 0.796875 0.0625
vt 0.757812 0.0625
vt 0.757812 0.03125
vt 0.796875 0.03125
vt 0.757812 0.03125
vt 0.796875 0.03125
vt 0.796875 0.0625
vt 0.757812 0.0625
vt 0.796875 0.0625
vt 0.757812 0.0625
vt 0.757812 0.03125
vt 0.796875 0.03125
vt 0.875 1
vt 0.875 0.625
vt 0.5 0.625
vt 0.5 1
vt 0.125 0.75
vt 0.125 0.625
vt 0 0.625
vt 0 0.75
vt 0.59375 0.09375
vt 0.59375 0.03125
vt 0.65625 0.03125
vt 0.65625 0.09375
vt 0.65625 0.09375
vt 0.65625 0.03125
vt 0.71875 0.03125
vt 0.71875 0.09375
vt 0.71875 0.03125
vt 0.71875 0.09375
vt 0.65625 0.09375
vt 0.65625 0.03125
vt 0.71875 0.09375
vt 0.65625 0.09375
vt 0.65625 0.03125
vt 0.71875 0.03125
vt 0.65625 0.09375
vt 0.65625 0.03125
vt 0.71875 0.03125
vt 0.71875 0.09375
vt 0.59375 0.09375
vt 0.59375 0.03125
vt 0.65625 0.03125
vt 0.65625 0.09375
vt 0.65625 0.09375
vt 0.65625 0.03125
vt 0.71875 0.03125
vt 0.71875 0.09375
vt 0.71875 0.03125
vt 0.71875 0.09375
vt 0.65625 0.09375
vt 0.65625 0.03125
vt 0.71875 0.09375
vt 0.65625 0.09375
vt 0.65625 0.03125
vt 0.71875 0.03125
vt 0.65625 0.09375
vt 0.65625 0.03125
vt 0.71875 0.03125
vt 0.71875 0.09375
vt 0.757812 0.0625
vt 0.757812 0.03125
vt 0.789062 0.03125
vt 0.789062 0.0625
vt 0.796875 0.0625
vt 0.757812 0.0625
vt 0.757812 0.03125
vt 0.796875 0.03125
vt 0.757812 0.03125
vt 0.796875 0.03125
vt 0.796875 0.0625
vt 0.757812 0.0625
vt 0.796875 0.0625
vt 0.757812 0.0625
vt 0.757812 0.03125
vt 0.796875 0.03125
vt 0.757812 0.0625
vt 0.757812 0.03125
vt 0.789062 0.03125
vt 0.789062 0.0625
vt 0.796875 0.0625
vt 0.757812 0.0625
vt 0.757812 0.03125
vt 0.796875 0.03125
vt 0.757812 0.03125
vt 0.796875 0.03125
vt 0.796875 0.0625
vt 0.757812 0.0625
vt 0.796875 0.0625
vt 0.757812 0.0625
vt 0.757812 0.03125
vt 0.796875 0.03125
vt 0.125 0.625
vt 0.125 0.5
vt 0.5 0.5
vt 0.5 0.625
vt 0.4375 0.875
vt 0.4375 0.75
vt 0.5 0.75
vt 0.5 0.875
vt 0.4375 0.875
vt 0.4375 0.75
vt 0.5 0.75
vt 0.5 0.875
vt 0.3125 0.75
vt 0.1875 0.75
vt 0.1875 0.625
vt 0.3125 0.625
vt 0.8125 0.484375
vt 0.75 0.484375
vt 0.75 0.109375
vt 0.8125 0.109375
vt 0.8125 0.046875
vt 0.9375 0.046875
vt 0.9375 0.109375
vt 0.8125 0.109375
vt 0.25 0.25
vt 0.375 0.25
vt 0.375 0.375
vt 0.25 0.375
vt 0.8125 0.046875
vt 0.9375 0.046875
vt 0.9375 0.109375
vt 0.8125 0.109375
vt 0.375 0.75
vt 0.5 0.75
vt 0.5 0.625
vt 0.375 0.625
vt 0.375 0.125
vt 0.25 0.125
vt 0.25 0
vt 0.375 0
vt 0.5 0.75
vt 0.5 0.875
vt 0.4375 0.875
vt 0.4375 0.75
vt 0.8125 0.109375
vt 0.9375 0.109375
vt 0.9375 0.484375
vt 0.8125 0.484375
vt 0.1875 0.75
vt 0.3125 0.75
vt 0.3125 0.625
vt 0.1875 0.625
vt 0.8125 0.421875
vt 0.9375 0.421875
vt 0.9375 0.484375
vt 0.8125 0.484375
vt 0.5 0.359375
vt 0.75 0.359375
vt 0.75 0.109375
vt 0.5 0.109375
vt 0.4375 0.875
vt 0.4375 0.75
vt 0.5 0.75
vt 0.5 0.875
vt 0 0.375
vt 0.25 0.375
vt 0.25 0
vt 0 0
vt 0.875 0.171875
vt 0.9375 0.171875
vt 0.9375 0.421875
vt 0.875 0.421875
vt 0 0.5
vt 0.125 0.5
vt 0.125 0.375
vt 0 0.375
vt 0.8125 0.484375
vt 0.75 0.484375
vt 0.75 0.109375
vt 0.8125 0.109375
vt 0.125 1
vt 0 1
vt 0 0.625
vt 0.125 0.625
vt 1 1
vt 0.875 1
vt 0.875 0.625
vt 1 0.625
vt 0 0.75
vt 0 0.625
vt 0.125 0.625
vt 0.125 0.75
vt 1 0.625
vt 0.9375 0.625
vt 0.9375 0.5
vt 1 0.5
vt 0.5 0.75
vt 0.375 0.75
vt 0.375 0.625
vt 0.5 0.625
vt 0.1875 0.25
vt 0.0625 0.25
vt 0.0625 0.125
vt 0.1875 0.125
vt 0.9375 0.625
vt 1 0.625
vt 1 0.5
vt 0.9375 0.5
vt 0.375 0.375
vt 0.375 0
vt 0.5 0
vt 0.5 0.375
vt 0.125 0.5
vt 0 0.5
vt 0 0.375
vt 0.125 0.375
vt 0.375 0.375
vt 0.375 0
vt 0.5 0
vt 0.5 0.375
vt 0 0.375
vt 0 0
vt 0.0625 0
vt 0.0625 0.375
vt 0.1875 0.375
vt 0.1875 0
vt 0.25 0
vt 0.25 0.375
vt 0.5 0.375
vt 0.5 0.5
vt 0.125 0.5
vt 0.125 0.375
vt 0.125 0.875
vt 0.125 0.75
vt 0.1875 0.75
vt 0.1875 0.875
vt 0.1875 0.75
vt 0.1875 0.875
vt 0.125 0.875
vt 0.125 0.75
vt 0.125 0.875
vt 0.125 0.75
vt 0.5 0.75
vt 0.5 0.875
vt 0.5 0.75
vt 0.5 0.875
vt 0.125 0.875
vt 0.125 0.75
vt 0.8125 0.109375
vt 0.9375 0.109375
vt 0.9375 0.171875
vt 0.8125 0.171875
vt 0 0.375
vt 0 0
vt 0.25 0
vt 0.25 0.375
vt 0.875 1
vt 1 1
vt 1 0.625
vt 0.875 0.625
vt 0.5 0.375
vt 0.5 0.25
vt 0.375 0.25
vt 0.375 0.375
vn -1 0 0
vn -1 0 0
vn 0 -0.0000010000000001392778 -0.9999999999995001
vn 0.9999999999995002 9.999999999172336e-7 0
vn 0.999999999999875 5.00000000028693e-13 4.999999999588042e-7
vn 0 1 0
vn 0 0.000001000000000139278 0.9999999999995002
vn -0.9999999999995002 -0.0000010000000000282557 0
vn 0 0 1
vn 0 0 -1
vn 0 1 0
vn 0 0 -1
vn 0 1 0
vn 0 0 -1
vn 0 -1 0
vn 0 1 0
vn -1 0 0
vn -1 0 0
vn 0 -1 0
vn 0 -0.000001000000000139278 -0.9999999999995001
vn -1 0 0
vn 0.0000020000040002795565 -0.0000020000040002795565 0.999999999996
vn 0 -1 0
vn 0 0 -1
vn 0 1 0
vn 0 0.0000010000000001392778 0.9999999999995001
vn -0.9999999999993752 -9.999999999171083e-7 -4.999999999585542e-7
vn 0 0 -1
vn 0 0.9999999999680002 0.000008000000000862225
vn 0 0 -1
vn 0 0.0000020000040002835566 -0.9999999999980002
vn -1 0 0
vn -9.999999999152333e-7 0.9999999999975 -0.000002000003999838467
vn 0 1 0
vn -0.0000010000010001402782 -2.000002000116023e-12 0.9999999999995001
vn 0 0 1
vn 0 -1 0
vn -1 0 0
vn 1 0 0
vn 0 -1 0
vn 0 -1 0
vn 0 1 0
vn 0 0 -1
vn 1 0 0
vn 0 -1 0
vn 1 0 0
vn 0 -1 0
vn 0 1 0
vn 0 0.000001600000000221597 0.9999999999987201
vn 1 0 0
vn 0 0 -1
vn 0 0 1
vn 0 0.000008000000000862228 0.999999999968
vn 0.999999999998 0.0000019999999998314666 0
vn 0 1 0
vn 0 -1 0
vn 0 0 1
vn 0 0 -1
vn 0.9999999999999445 3.333333333058926e-7 0
vn 0.9999999999920002 0 0.000003999999999638936
vn 0 1 0
vn 0 -1 0
vn 0 0 1
vn -0.9999999999999445 -3.3333344441704083e-7 0
vn 0 0 -1
vn 1 0 0
vn 0 1 0
vn 0 -1 0
vn 0 -0.000001999999999942489 0.999999999998
vn 0 0.0000020000000000535112 -0.999999999998
vn 1 0 0
vn 0 1 0
vn 0 -1 0
vn 0 0.000001999999999942489 0.999999999998
vn 0 -0.0000020000000000535112 -0.999999999998
vn 1 0 0
vn 0 1 0
vn 0 -1 0
vn 0 0 1
vn 1 0 0
vn 0 1 0
vn 0 -1 0
vn 0 -0.000004000000000083023 0.9999999999920002
vn 0.9999999999999445 -3.3333311113041123e-13 3.3333344441692966e-7
vn 0 1 0
vn -0.9999999999980002 -2.000006000129024e-12 -0.000002000003999843467
vn 0 0.9999999999995002 0.0000010000000001392782
vn 0 -1 0
vn 0 0 -1
vn 0 0 -1
vn 0 0 -1
vn 0 -1 0
vn 0 0 -1
vn 0 -1 0
vn -1 0 0
vn 0 -1 0
vn 1 0 0
vn 0.999999999999875 5.000002500000624e-7 0
vn 1 0 0
vn -0.9999999999999445 -3.3333344445404823e-7 1.6666663891700097e-13
vn 1 0 0
vn 0 -1 0
vn 0 -1 0
vn 0 0 1
vn 0 1 0
vn 0 0 -1
vn 0 1 0
vn 0 0.9999999999995002 0.0000010000000001392782
vn 0 0 -1
vn 0 -1 0
vn 0.9999999999999446 3.333333333058926e-7 0
vn -9.999990001397777e-7 0.9999999999990001 -9.999990001397777e-7
vn 0.9999999999999445 3.333333333058926e-7 0
vn 0 0 -1
vn 0 0 1
vn 0 0 1
vn 0.9999999999980002 -2.000006000289558e-12 0.000002000004000004001
vn 0 -1 0
vn -0.9999999999999445 0 -3.333334444540482e-7
vn 0 -0.9999999999999445 -3.33333444444463e-7
vn 0.9999999999995002 9.999999999995002e-7 0
vn 0.9999999999999445 3.333333333333148e-7 0
vn 0 -1 0
vn 0 0 -1
usemtl m_963ce5fd-7a3c-50e2-d9e3-4445607013d5
f 1/1/1 2/2/1 3/3/1 4/4/1
f 5/5/2 6/6/2 7/7/2 8/8/2
f 9/9/3 10/10/3 6/11/3 5/12/3
f 11/13/4 12/14/4 13/15/4 14/16/4
f 15/17/5 16/18/5 17/19/5 18/20/5
f 18/21/6 19/22/6 20/23/6 15/24/6
f 15/25/7 20/26/7 21/27/7 16/28/7
f 22/29/8 23/30/8 24/31/8 25/32/8
f 26/33/9 25/34/9 24/35/9 27/36/9
f 28/37/10 29/38/10 30/39/10 31/40/10
f 32/41/11 33/42/11 34/43/11 35/44/11
f 32/45/12 36/46/12 37/47/12 33/48/12
f 38/49/13 39/50/13 40/51/13 41/52/13
f 42/53/14 43/54/14 44/55/14 45/56/14
f 46/57/15 47/58/15 48/59/15 49/60/15
f 50/61/16 51/62/16 52/63/16 53/64/16
f 54/65/17 55/66/17 49/67/17 48/68/17
f 56/69/18 57/70/18 58/71/18 59/72/18
f 60/73/19 61/74/19 62/75/19 59/76/19
f 63/77/20 64/78/20 65/79/20 66/80/20
f 67/81/21 68/82/21 69/83/21 70/84/21
f 69/85/22 71/86/22 72/87/22 73/88/22
f 74/89/23 71/90/23 69/91/23 68/92/23
f 74/93/24 68/94/24 75/95/24 76/96/24
f 9/97/25 5/98/25 8/99/25 20/100/25
f 20/101/26 8/102/26 7/103/26 21/104/26
f 19/105/27 77/106/27 21/107/27 20/108/27
f 18/109/28 17/110/28 77/111/28 19/112/28
f 19/113/29 22/114/29 25/115/29 26/116/29
f 19/117/30 77/118/30 23/119/30 22/120/30
f 78/121/31 79/122/31 80/123/31 67/124/31
f 31/125/32 30/126/32 75/127/32 80/128/32
f 28/129/33 31/130/33 80/131/33 79/132/33
f 78/133/34 67/134/34 70/135/34 81/136/34
f 70/137/35 82/138/35 83/139/35 81/140/35
f 84/141/36 85/142/36 86/143/36 87/144/36
f 44/145/37 43/146/37 88/147/37 89/148/37
f 39/149/38 38/150/38 59/151/38 62/152/38
f 90/153/39 91/154/39 88/155/39 92/156/39
f 89/157/40 88/158/40 91/159/40 93/160/40
f 94/161/41 60/162/41 59/163/41 58/164/41
f 55/165/42 54/166/42 95/167/42 96/168/42
f 57/169/43 97/170/43 94/171/43 58/172/43
f 98/173/44 88/174/44 43/175/44 42/176/44
f 99/177/45 100/178/45 101/179/45 102/180/45
f 53/181/46 103/182/46 101/183/46 50/184/46
f 102/185/47 101/186/47 103/187/47 104/188/47
f 92/189/48 105/190/48 106/191/48 90/192/48
f 98/193/49 107/194/49 105/195/49 92/196/49
f 108/197/50 101/198/50 100/199/50 109/200/50
f 109/201/51 100/202/51 99/203/51 110/204/51
f 108/205/52 111/206/52 51/207/52 50/208/52
f 56/209/53 38/210/53 41/211/53 112/212/53
f 113/213/54 114/214/54 115/215/54 116/216/54
f 116/217/55 117/218/55 118/219/55 113/220/55
f 119/221/56 115/222/56 114/223/56 120/224/56
f 113/225/57 118/226/57 120/227/57 114/228/57
f 116/229/58 115/230/58 119/231/58 117/232/58
f 121/233/59 122/234/59 123/235/59 124/236/59
f 125/237/60 126/238/60 127/239/60 128/240/60
f 128/241/61 129/242/61 130/243/61 125/244/61
f 131/245/62 127/246/62 126/247/62 132/248/62
f 125/249/63 130/250/63 132/251/63 126/252/63
f 66/253/64 133/254/64 134/255/64 135/256/64
f 136/257/65 137/258/65 133/259/65 138/260/65
f 139/261/66 140/262/66 141/263/66 142/264/66
f 142/265/67 143/266/67 144/267/67 139/268/67
f 145/269/68 141/270/68 140/271/68 146/272/68
f 139/273/69 144/274/69 146/275/69 140/276/69
f 142/277/70 141/278/70 145/279/70 143/280/70
f 147/281/71 148/282/71 149/283/71 150/284/71
f 150/285/72 151/286/72 152/287/72 147/288/72
f 153/289/73 149/290/73 148/291/73 154/292/73
f 147/293/74 152/294/74 154/295/74 148/296/74
f 150/297/75 149/298/75 153/299/75 151/300/75
f 155/301/76 156/302/76 157/303/76 158/304/76
f 158/305/77 159/306/77 160/307/77 155/308/77
f 161/309/78 157/310/78 156/311/78 162/312/78
f 155/313/79 160/314/79 162/315/79 156/316/79
f 163/317/80 164/318/80 165/319/80 166/320/80
f 166/321/81 167/322/81 168/323/81 163/324/81
f 169/325/82 165/326/82 164/327/82 170/328/82
f 163/329/83 168/330/83 170/331/83 164/332/83
f 35/333/84 171/334/84 36/335/84 32/336/84
f 83/337/85 82/338/85 65/339/85 64/340/85
f 82/341/86 73/342/86 138/343/86 65/344/86
f 172/345/87 173/346/87 84/347/87 174/348/87
f 2/349/88 175/350/88 137/351/88 3/352/88
f 29/353/89 175/354/89 2/355/89 1/356/89
f 176/357/90 177/358/90 178/359/90 173/360/90
f 14/361/91 13/362/91 179/363/91 37/364/91
f 180/365/92 181/366/92 87/367/92 86/368/92
f 182/369/93 183/370/93 181/371/93 180/372/93
f 30/373/94 29/374/94 184/375/94 75/376/94
f 37/377/95 179/378/95 185/379/95 186/380/95
f 181/381/96 187/382/96 188/383/96 87/384/96
f 184/385/97 189/386/97 175/387/97 29/388/97
f 78/389/98 81/390/98 190/391/98 191/392/98
f 79/393/99 184/394/99 29/395/99 28/396/99
f 173/397/100 192/398/100 185/399/100 181/400/100
f 190/401/101 193/402/101 189/403/101 191/404/101
f 185/405/102 194/406/102 195/407/102 196/408/102
f 179/409/103 13/410/103 12/411/103 185/412/103
f 85/413/104 135/414/104 134/415/104 86/416/104
f 63/417/105 66/418/105 135/419/105 85/420/105
f 171/421/106 194/422/106 185/423/106 186/424/106
f 124/425/107 197/426/107 173/427/107 121/428/107
f 173/429/108 178/430/108 85/431/108 84/432/108
f 177/433/109 176/434/109 183/435/109 182/436/109
f 196/437/110 123/438/110 122/439/110 181/440/110
f 198/441/111 195/442/111 194/443/111 199/444/111
f 199/445/112 192/446/112 197/447/112 198/448/112
f 174/449/113 188/450/113 187/451/113 172/452/113
f 172/453/114 187/454/114 122/455/114 121/456/114
f 124/457/115 123/458/115 195/459/115 198/460/115
f 174/461/116 84/462/116 87/463/116 188/464/116
f 64/465/117 136/466/117 200/467/117 83/468/117
f 73/469/118 200/470/118 136/471/118 138/472/118
f 33/473/119 37/474/119 186/475/119 34/476/119
f 37/477/120 36/478/120 171/479/120 186/480/120
f 136/481/121 137/482/121 193/483/121 200/484/121
f 178/485/122 180/486/122 137/487/122 63/488/122
f 133/489/123 137/490/123 86/491/123 134/492/123
f 199/493/124 35/494/124 34/495/124 192/496/124