mtllib fermenter.mtl

o base
v -0.9999999999999996 -0.5 2
v 2.0000000000000004 -0.5 1.9999999999999996
v -0.9999999999999996 -1 2
v 2.0000000000000004 -1 1.9999999999999996
v 2 -0.5 -1.0000000000000004
v -1.0000000000000002 -0.5 -0.9999999999999998
v 2 -1 -1.0000000000000004
v -1.0000000000000002 -1 -0.9999999999999998
vt 0.25 1
vt 0.625 1
vt 0.625 0.9375
vt 0.25 0.9375
vt 0.375 0.125
vt 0 0.125
vt 0 0.0625
vt 0.375 0.0625
vt 0.375 0.125
vt 0 0.125
vt 0 0.0625
vt 0.375 0.0625
vt 0.375 0.125
vt 0 0.125
vt 0 0.0625
vt 0.375 0.0625
vt 1 0.625
vt 0.625 0.625
vt 0.625 1
vt 1 1
vt 1 0.625
vt 0.625 0.625
vt 0.625 0.25
vt 1 0.25
vn 1 0 -2.220446049250313e-16
vn 2.220446049250313e-16 0 1
vn -1 0 2.220446049250313e-16
vn -2.220446049250313e-16 0 -1
vn 0 1 0
vn 0 -1 0
usemtl m_e5733767-6a57-a95e-58cd-5b7c4ccc0870
f 4/4/1 7/3/1 5/2/1 2/1/1
usemtl m_d2c134a4-698d-25b9-71b1-93101c7965a4
f 3/8/2 4/7/2 2/6/2 1/5/2
f 8/12/3 3/11/3 1/10/3 6/9/3
f 7/16/4 8/15/4 6/14/4 5/13/4
f 6/20/5 1/19/5 2/18/5 5/17/5
f 7/24/6 4/23/6 3/22/6 8/21/6
o output
v 1.0000006250000002 0 1
v 2.000000625 0 0.9999999999999996
v 1.0000006250000002 -0.5 1
v 2.000000625 -0.5 0.9999999999999996
v 2.000000625 0 -3.3306690738754696e-16
v 1.0000006249999998 0 -1.1102230246251565e-16
v 2.000000625 -0.5 -3.3306690738754696e-16
v 1.0000006249999998 -0.5 -1.1102230246251565e-16
vt 0.03125 0.6328125
vt 0.15625 0.6328125
vt 0.15625 0.5703125
vt 0.03125 0.5703125
vt 1 0.25
vt 0.875 0.25
vt 0.875 0.1875
vt 1 0.1875
vt 1 0.25
vt 0.875 0.25
vt 0.875 0.1875
vt 1 0.1875
vt 1 0.25
vt 0.875 0.25
vt 0.875 0.1875
vt 1 0.1875
vt 1 0.125
vt 0.875 0.125
vt 0.875 0.25
vt 1 0.25
vt 0.453125 0.1875
vt 0.328125 0.1875
vt 0.328125 0.0625
vt 0.453125 0.0625
vn 1 0 -2.220446049250313e-16
vn 2.220446049250313e-16 0 1
vn -1 0 2.220446049250313e-16
vn -2.220446049250313e-16 0 -1
vn 0 1 0
vn 0 -1 0
usemtl m_e5733767-6a57-a95e-58cd-5b7c4ccc0870
f 12/28/7 15/27/7 13/26/7 10/25/7
usemtl m_d2c134a4-698d-25b9-71b1-93101c7965a4
f 11/32/8 12/31/8 10/30/8 9/29/8
f 16/36/9 11/35/9 9/34/9 14/33/9
f 15/40/10 16/39/10 14/38/10 13/37/10
f 14/44/11 9/43/11 10/42/11 13/41/11
usemtl none
f 15/48/12 12/47/12 11/46/12 16/45/12
o fence1
v 0.6875 0 0.9375
v 0.9375 0 0.9375
v 0.6875 -0.5 0.9375
v 0.9375 -0.5 0.9375
v 0.9375 0 0.6875
v 0.6875 0 0.6875
v 0.9375 -0.5 0.6875
v 0.6875 -0.5 0.6875
vt 0 0.6328125
vt 0.03125 0.6328125
vt 0.03125 0.5703125
vt 0 0.5703125
vt 0 0.6328125
vt 0.03125 0.6328125
vt 0.03125 0.5703125
vt 0 0.5703125
vt 0 0.6328125
vt 0.03125 0.6328125
vt 0.03125 0.5703125
vt 0 0.5703125
vt 0 0.6328125
vt 0.03125 0.6328125
vt 0.03125 0.5703125
vt 0 0.5703125
vn 1 0 -2.220446049250313e-16
vn 2.220446049250313e-16 0 1
vn -1 0 2.220446049250313e-16
vn -2.220446049250313e-16 0 -1
usemtl m_e5733767-6a57-a95e-58cd-5b7c4ccc0870
f 20/52/13 23/51/13 21/50/13 18/49/13
f 19/56/14 20/55/14 18/54/14 17/53/14
f 24/60/15 19/59/15 17/58/15 22/57/15
f 23/64/16 24/63/16 22/62/16 21/61/16
o fence2
v -0.9374999999999998 0 0.9375000000000004
v -0.6874999999999998 0 0.9375000000000002
v -0.9374999999999998 -0.5 0.9375000000000004
v -0.6874999999999998 -0.5 0.9375000000000002
v -0.6875 0 0.6875000000000002
v -0.9375 0 0.6875000000000002
v -0.6875 -0.5 0.6875000000000002
v -0.9375 -0.5 0.6875000000000002
vt 0 0.6328125
vt 0.03125 0.6328125
vt 0.03125 0.5703125
vt 0 0.5703125
vt 0 0.6328125
vt 0.03125 0.6328125
vt 0.03125 0.5703125
vt 0 0.5703125
vt 0 0.6328125
vt 0.03125 0.6328125
vt 0.03125 0.5703125
vt 0 0.5703125
vt 0 0.6328125
vt 0.03125 0.6328125
vt 0.03125 0.5703125
vt 0 0.5703125
vn 1 0 -2.220446049250313e-16
vn 2.220446049250313e-16 0 1
vn -1 0 2.220446049250313e-16
vn -2.220446049250313e-16 0 -1
usemtl m_e5733767-6a57-a95e-58cd-5b7c4ccc0870
f 28/68/17 31/67/17 29/66/17 26/65/17
f 27/72/18 28/71/18 26/70/18 25/69/18
f 32/76/19 27/75/19 25/74/19 30/73/19
f 31/80/20 32/79/20 30/78/20 29/77/20
o fence3
v 0.6874999999999998 0 -0.6875
v 0.9374999999999998 0 -0.6875000000000002
v 0.6874999999999998 -0.5 -0.6875
v 0.9374999999999998 -0.5 -0.6875000000000002
v 0.9374999999999996 0 -0.9375000000000002
v 0.6874999999999998 0 -0.9375
v 0.9374999999999996 -0.5 -0.9375000000000002
v 0.6874999999999998 -0.5 -0.9375
vt 0 0.6328125
vt 0.03125 0.6328125
vt 0.03125 0.5703125
vt 0 0.5703125
vt 0 0.6328125
vt 0.03125 0.6328125
vt 0.03125 0.5703125
vt 0 0.5703125
vt 0 0.6328125
vt 0.03125 0.6328125
vt 0.03125 0.5703125
vt 0 0.5703125
vt 0 0.6328125
vt 0.03125 0.6328125
vt 0.03125 0.5703125
vt 0 0.5703125
vn 1 0 -2.220446049250313e-16
vn 2.220446049250313e-16 0 1
vn -1 0 2.220446049250313e-16
vn -2.220446049250313e-16 0 -1
usemtl m_e5733767-6a57-a95e-58cd-5b7c4ccc0870
f 36/84/21 39/83/21 37/82/21 34/81/21
f 35/88/22 36/87/22 34/86/22 33/85/22
f 40/92/23 35/91/23 33/90/23 38/89/23
f 39/96/24 40/95/24 38/94/24 37/93/24
o fence4
v -0.9375000000000002 0 -0.6874999999999998
v -0.6875000000000002 0 -0.6874999999999998
v -0.9375000000000002 -0.5 -0.6874999999999998
v -0.6875000000000002 -0.5 -0.6874999999999998
v -0.6875000000000002 0 -0.9374999999999998
v -0.9375000000000002 0 -0.9374999999999998
v -0.6875000000000002 -0.5 -0.9374999999999998
v -0.9375000000000002 -0.5 -0.9374999999999998
vt 0 0.6328125
vt 0.03125 0.6328125
vt 0.03125 0.5703125
vt 0 0.5703125
vt 0 0.6328125
vt 0.03125 0.6328125
vt 0.03125 0.5703125
vt 0 0.5703125
vt 0 0.6328125
vt 0.03125 0.6328125
vt 0.03125 0.5703125
vt 0 0.5703125
vt 0 0.6328125
vt 0.03125 0.6328125
vt 0.03125 0.5703125
vt 0 0.5703125
vn 1 0 -2.220446049250313e-16
vn 2.220446049250313e-16 0 1
vn -1 0 2.220446049250313e-16
vn -2.220446049250313e-16 0 -1
usemtl m_e5733767-6a57-a95e-58cd-5b7c4ccc0870
f 44/100/25 47/99/25 45/98/25 42/97/25
f 43/104/26 44/103/26 42/102/26 41/101/26
f 48/108/27 43/107/27 41/106/27 46/105/27
f 47/112/28 48/111/28 46/110/28 45/109/28
o energy
v -0.9999999999999996 1 2
v 3.3306690738754696e-16 1 2
v -0.9999999999999996 -0.5 2
v 3.3306690738754696e-16 -0.5 2
v 1.1102230246251565e-16 1 1
v -0.9999999999999998 1 1.0000000000000004
v 1.1102230246251565e-16 -0.5 1
v -0.9999999999999998 -0.5 1.0000000000000004
vt 0.375 0.375
vt 0.25 0.375
vt 0.25 0.1875
vt 0.375 0.1875
vt 0.25 0.375
vt 0.125 0.375
vt 0.125 0.1875
vt 0.25 0.1875
vt 0.125 0.375
vt 0 0.375
vt 0 0.1875
vt 0.125 0.1875
vt 0.375 0.375
vt 0.25 0.375
vt 0.25 0.1875
vt 0.375 0.1875
vt 0.125 0.375
vt 0 0.375
vt 0 0.5
vt 0.125 0.5
vn 1 0 -2.220446049250313e-16
vn 2.220446049250313e-16 0 1
vn -1 0 2.220446049250313e-16
vn -2.220446049250313e-16 0 -1
vn 0 1 0
usemtl m_88d2b546-ddc7-e916-9c31-cbd5ab4e52cb
f 52/116/29 55/115/29 53/114/29 50/113/29
f 51/120/30 52/119/30 50/118/30 49/117/30
f 56/124/31 51/123/31 49/122/31 54/121/31
f 55/128/32 56/127/32 54/126/32 53/125/32
f 54/132/33 49/131/33 50/130/33 53/129/33
o redstone
v 1.0000000000000004 1 2
v 2.0000000000000004 1 1.9999999999999996
v 1.0000000000000004 0 2
v 2.0000000000000004 0 1.9999999999999996
v 2 1 1.4999999999999996
v 1.0000000000000002 1 1.4999999999999998
v 2 0 1.4999999999999996
v 1.0000000000000002 0 1.4999999999999998
vt 0.9375 0.25
vt 0.875 0.25
vt 0.875 0.125
vt 0.9375 0.125
vt 0.875 0.625
vt 0.75 0.625
vt 0.75 0.5
vt 0.875 0.5
vt 1 0.25
vt 0.9375 0.25
vt 0.9375 0.125
vt 1 0.125
vt 1 0.25
vt 0.875 0.25
vt 0.875 0.125
vt 1 0.125
vt 1 0.25
vt 0.9375 0.25
vt 0.9375 0.125
vt 1 0.125
vt 1 0.25
vt 0.9375 0.25
vt 0.9375 0.125
vt 1 0.125
vn 1 0 -2.220446049250313e-16
vn 2.220446049250313e-16 0 1
vn -1 0 2.220446049250313e-16
vn -2.220446049250313e-16 0 -1
vn 0 1 0
vn 0 -1 0
usemtl m_d2c134a4-698d-25b9-71b1-93101c7965a4
f 60/136/34 63/135/34 61/134/34 58/133/34
usemtl m_88d2b546-ddc7-e916-9c31-cbd5ab4e52cb
f 59/140/35 60/139/35 58/138/35 57/137/35
usemtl m_d2c134a4-698d-25b9-71b1-93101c7965a4
f 64/144/36 59/143/36 57/142/36 62/141/36
f 63/148/37 64/147/37 62/146/37 61/145/37
f 62/152/38 57/151/38 58/150/38 61/149/38
f 63/156/39 60/155/39 59/154/39 64/153/39
o leg1
v 1.75 0 1.875
v 1.875 0 1.875
v 1.75 -0.5 1.875
v 1.875 -0.5 1.875
v 1.875 0 1.625
v 1.75 0 1.625
v 1.875 -0.5 1.625
v 1.75 -0.5 1.625
vt 0.71875 0.5625
vt 0.75 0.5625
vt 0.75 0.5
vt 0.71875 0.5
vt 0.703125 0.5625
vt 0.71875 0.5625
vt 0.71875 0.5
vt 0.703125 0.5
vt 0.71875 0.5625
vt 0.75 0.5625
vt 0.75 0.5
vt 0.71875 0.5
vt 0.703125 0.5625
vt 0.71875 0.5625
vt 0.71875 0.5
vt 0.703125 0.5
vn 1 0 -2.220446049250313e-16
vn 2.220446049250313e-16 0 1
vn -1 0 2.220446049250313e-16
vn -2.220446049250313e-16 0 -1
usemtl m_88d2b546-ddc7-e916-9c31-cbd5ab4e52cb
f 68/160/40 71/159/40 69/158/40 66/157/40
f 67/164/41 68/163/41 66/162/41 65/161/41
f 72/168/42 67/167/42 65/166/42 70/165/42
f 71/172/43 72/171/43 70/170/43 69/169/43
o leg2
v 1.1250000000000004 0 1.875
v 1.2500000000000004 0 1.875
v 1.1250000000000004 -0.5 1.875
v 1.2500000000000004 -0.5 1.875
v 1.2500000000000002 0 1.625
v 1.1250000000000002 0 1.625
v 1.2500000000000002 -0.5 1.625
v 1.1250000000000002 -0.5 1.625
vt 0.71875 0.5625
vt 0.75 0.5625
vt 0.75 0.5
vt 0.71875 0.5
vt 0.703125 0.5625
vt 0.71875 0.5625
vt 0.71875 0.5
vt 0.703125 0.5
vt 0.71875 0.5625
vt 0.75 0.5625
vt 0.75 0.5
vt 0.71875 0.5
vt 0.703125 0.5625
vt 0.71875 0.5625
vt 0.71875 0.5
vt 0.703125 0.5
vn 1 0 -2.220446049250313e-16
vn 2.220446049250313e-16 0 1
vn -1 0 2.220446049250313e-16
vn -2.220446049250313e-16 0 -1
usemtl m_88d2b546-ddc7-e916-9c31-cbd5ab4e52cb
f 76/176/44 79/175/44 77/174/44 74/173/44
f 75/180/45 76/179/45 74/178/45 73/177/45
f 80/184/46 75/183/46 73/182/46 78/181/46
f 79/188/47 80/187/47 78/186/47 77/185/47
o bottom
v -0.9999999999999998 0.1875 1.0000000000000004
v 1 0.1875 1
v -0.9999999999999998 0 1.0000000000000004
v 1 0 1
v 0.9999999999999996 0.1875 -1.0000000000000002
v -1.0000000000000002 0.1875 -0.9999999999999998
v 0.9999999999999996 0 -1.0000000000000002
v -1.0000000000000002 0 -0.9999999999999998
vt 0 0.65625
vt 0.25 0.65625
vt 0.25 0.6328125
vt 0 0.6328125
vt 0 0.65625
vt 0.25 0.65625
vt 0.25 0.6328125
vt 0 0.6328125
vt 0 0.65625
vt 0.25 0.65625
vt 0.25 0.6328125
vt 0 0.6328125
vt 0 0.65625
vt 0.25 0.65625
vt 0.25 0.6328125
vt 0 0.6328125
vt 0.25 1
vt 0 1
vt 0 0.75
vt 0.25 0.75
vt 0.25 1
vt 0 1
vt 0 0.75
vt 0.25 0.75
vn 1 0 -2.220446049250313e-16
vn 2.220446049250313e-16 0 1
vn -1 0 2.220446049250313e-16
vn -2.220446049250313e-16 0 -1
vn 0 1 0
vn 0 -1 0
usemtl m_e5733767-6a57-a95e-58cd-5b7c4ccc0870
f 84/192/48 87/191/48 85/190/48 82/189/48
f 83/196/49 84/195/49 82/194/49 81/193/49
f 88/200/50 83/199/50 81/198/50 86/197/50
f 87/204/51 88/203/51 86/202/51 85/201/51
f 86/208/52 81/207/52 82/206/52 85/205/52
f 87/212/53 84/211/53 83/210/53 88/209/53
o pipe2
v -0.125 -0.25 0.625
v 1 -0.25 0.625
v -0.125 -0.5 0.625
v 1 -0.5 0.625
v 1 -0.25 0.3749999999999999
v -0.125 -0.25 0.3750000000000001
v 1 -0.5 0.3749999999999999
v -0.125 -0.5 0.3750000000000001
vt 0.25 0.9375
vt 0.390625 0.9375
vt 0.390625 0.90625
vt 0.25 0.90625
vt 0.25 0.9375
vt 0.28125 0.9375
vt 0.28125 0.90625
vt 0.25 0.90625
vt 0.25 0.9375
vt 0.390625 0.9375
vt 0.390625 0.90625
vt 0.25 0.90625
vt 0.28125 0.90625
vt 0.28125 0.9375
vt 0.421875 0.9375
vt 0.421875 0.90625
vn 2.220446049250313e-16 0 1
vn -1 0 2.220446049250313e-16
vn -2.220446049250313e-16 0 -1
vn 0 1 0
usemtl m_e5733767-6a57-a95e-58cd-5b7c4ccc0870
f 91/216/54 92/215/54 90/214/54 89/213/54
f 96/220/55 91/219/55 89/218/55 94/217/55
f 95/224/56 96/223/56 94/222/56 93/221/56
f 94/228/57 89/227/57 90/226/57 93/225/57
o pipe3
v -0.125 -0.25 0.3750000000000001
v 0.125 -0.25 0.375
v -0.125 -0.5 0.3750000000000001
v 0.125 -0.5 0.375
v 0.12499999999999989 -0.25 -0.12499999999999989
v -0.1250000000000001 -0.25 -0.12499999999999989
v 0.12499999999999989 -0.5 -0.12499999999999989
v -0.1250000000000001 -0.5 -0.12499999999999989
vt 0.359375 0.90625
vt 0.421875 0.90625
vt 0.421875 0.9375
vt 0.359375 0.9375
vt 0.421875 0.90625
vt 0.3515625 0.90625
vt 0.3515625 0.9375
vt 0.421875 0.9375
vt 0.25 0.90625
vt 0.25 0.9375
vt 0.28125 0.9375
vt 0.28125 0.90625
vt 0.3125 0.90625
vt 0.25 0.90625
vt 0.25 0.9375
vt 0.3125 0.9375
vn 1 0 -2.220446049250313e-16
vn -1 0 2.220446049250313e-16
vn -2.220446049250313e-16 0 -1
vn 0 1 0
usemtl m_e5733767-6a57-a95e-58cd-5b7c4ccc0870
f 100/232/58 103/231/58 101/230/58 98/229/58
f 104/236/59 99/235/59 97/234/59 102/233/59
f 103/240/60 104/239/60 102/238/60 101/237/60
f 102/244/61 97/243/61 98/242/61 101/241/61
o pipe1
v -0.1250000000000001 0 0.1250000000000001
v 0.125 0 0.125
v -0.1250000000000001 -0.25 0.1250000000000001
v 0.125 -0.25 0.125
v 0.12499999999999989 0 -0.12499999999999989
v -0.1250000000000001 0 -0.12499999999999989
v 0.12499999999999989 -0.25 -0.12499999999999989
v -0.1250000000000001 -0.25 -0.12499999999999989
vt 0.25 0.90625
vt 0.25 0.9375
vt 0.28125 0.9375
vt 0.28125 0.90625
vt 0.25 0.90625
vt 0.25 0.9375
vt 0.28125 0.9375
vt 0.28125 0.90625
vt 0.25 0.90625
vt 0.25 0.9375
vt 0.28125 0.9375
vt 0.28125 0.90625
vt 0.25 0.90625
vt 0.25 0.9375
vt 0.28125 0.9375
vt 0.28125 0.90625
vn 1 0 -2.220446049250313e-16
vn 2.220446049250313e-16 0 1
vn -1 0 2.220446049250313e-16
vn -2.220446049250313e-16 0 -1
usemtl m_e5733767-6a57-a95e-58cd-5b7c4ccc0870
f 108/248/62 111/247/62 109/246/62 106/245/62
f 107/252/63 108/251/63 106/250/63 105/249/63
f 112/256/64 107/255/64 105/254/64 110/253/64
f 111/260/65 112/259/65 110/258/65 109/257/65
o in1
v -1.0000000000000002 0.875 -0.18749999999999967
v -0.9375000000000002 0.875 -0.18749999999999967
v -1.0000000000000002 0.25 -0.18749999999999967
v -0.9375000000000002 0.25 -0.18749999999999967
v -0.9375000000000002 0.875 -0.8124999999999998
v -1.0000000000000002 0.875 -0.8124999999999998
v -0.9375000000000002 0.25 -0.8124999999999998
v -1.0000000000000002 0.25 -0.8124999999999998
vt 0.46875 0.0625
vt 0.546875 0.0625
vt 0.546875 -0.015625
vt 0.46875 -0.015625
vt 0.3125 0.53125
vt 0.34375 0.53125
vt 0.34375 0.375
vt 0.3125 0.375
vt 0.15625 0.53125
vt 0.3125 0.53125
vt 0.3125 0.375
vt 0.15625 0.375
vt 0.3125 0.53125
vt 0.34375 0.53125
vt 0.34375 0.375
vt 0.3125 0.375
vt 0.15625 0.375
vt 0 0.375
vt 0 0.3515625
vt 0.15625 0.3515625
vt 0.15625 0.375
vt 0 0.375
vt 0 0.3515625
vt 0.15625 0.3515625
vn 1 0 -2.220446049250313e-16
vn 2.220446049250313e-16 0 1
vn -1 0 2.220446049250313e-16
vn -2.220446049250313e-16 0 -1
vn 0 1 0
vn 0 -1 0
usemtl none
f 116/264/66 119/263/66 117/262/66 114/261/66
usemtl m_9cdaa25b-650e-7854-3861-9f7e946b50c4
f 115/268/67 116/267/67 114/266/67 113/265/67
f 120/272/68 115/271/68 113/270/68 118/269/68
f 119/276/69 120/275/69 118/274/69 117/273/69
f 118/280/70 113/279/70 114/278/70 117/277/70
f 119/284/71 116/283/71 115/282/71 120/281/71
o in2
v -0.8125000000000002 0.875 -0.9374999999999998
v -0.18750000000000033 0.875 -0.9374999999999998
v -0.8125000000000002 0.25 -0.9374999999999998
v -0.18750000000000033 0.25 -0.9374999999999998
v -0.18750000000000033 0.875 -0.9999999999999998
v -0.8125000000000002 0.875 -0.9999999999999998
v -0.18750000000000033 0.25 -0.9999999999999998
v -0.8125000000000002 0.25 -0.9999999999999998
vt 0.3125 0.53125
vt 0.34375 0.53125
vt 0.34375 0.375
vt 0.3125 0.375
vt 0.625 0.0625
vt 0.703125 0.0625
vt 0.703125 -0.015625
vt 0.625 -0.015625
vt 0.3125 0.53125
vt 0.34375 0.53125
vt 0.34375 0.375
vt 0.3125 0.375
vt 0.15625 0.53125
vt 0.3125 0.53125
vt 0.3125 0.375
vt 0.15625 0.375
vt 0.3125 0.53125
vt 0.34375 0.53125
vt 0.34375 0.375
vt 0.3125 0.375
vt 0.3125 0.53125
vt 0.34375 0.53125
vt 0.34375 0.375
vt 0.3125 0.375
vn 1 0 -2.220446049250313e-16
vn 2.220446049250313e-16 0 1
vn -1 0 2.220446049250313e-16
vn -2.220446049250313e-16 0 -1
vn 0 1 0
vn 0 -1 0
usemtl m_9cdaa25b-650e-7854-3861-9f7e946b50c4
f 124/288/72 127/287/72 125/286/72 122/285/72
usemtl none
f 123/292/73 124/291/73 122/290/73 121/289/73
usemtl m_9cdaa25b-650e-7854-3861-9f7e946b50c4
f 128/296/74 123/295/74 121/294/74 126/293/74
f 127/300/75 128/299/75 126/298/75 125/297/75
f 126/304/76 121/303/76 122/302/76 125/301/76
f 127/308/77 124/307/77 123/306/77 128/305/77
o out
v 0.9375 0.875 0.8125
v 1 0.875 0.8125
v 0.9375 0.25 0.8125
v 1 0.25 0.8125
v 1 0.875 0.1874999999999999
v 0.9375 0.875 0.1874999999999999
v 1 0.25 0.1874999999999999
v 0.9375 0.25 0.1874999999999999
vt 0 0.53125
vt 0.15625 0.53125
vt 0.15625 0.375
vt 0 0.375
vt 0.3125 0.53125
vt 0.34375 0.53125
vt 0.34375 0.375
vt 0.3125 0.375
vt 0.15625 0.53125
vt 0.3125 0.53125
vt 0.3125 0.375
vt 0.15625 0.375
vt 0.3125 0.53125
vt 0.34375 0.53125
vt 0.34375 0.375
vt 0.3125 0.375
vt 0.15625 0.375
vt 0 0.375
vt 0 0.3515625
vt 0.15625 0.3515625
vt 0.15625 0.375
vt 0 0.375
vt 0 0.3515625
vt 0.15625 0.3515625
vn 1 0 -2.220446049250313e-16
vn 2.220446049250313e-16 0 1
vn -1 0 2.220446049250313e-16
vn -2.220446049250313e-16 0 -1
vn 0 1 0
vn 0 -1 0
usemtl m_9cdaa25b-650e-7854-3861-9f7e946b50c4
f 132/312/78 135/311/78 133/310/78 130/309/78
f 131/316/79 132/315/79 130/314/79 129/313/79
usemtl none
f 136/320/80 131/319/80 129/318/80 134/317/80
usemtl m_9cdaa25b-650e-7854-3861-9f7e946b50c4
f 135/324/81 136/323/81 134/322/81 133/321/81
f 134/328/82 129/327/82 130/326/82 133/325/82
f 135/332/83 132/331/83 131/330/83 136/329/83
o tank
v 0.9375 2 0.9375
v 0.9375 2 -0.9375
v 0.9375 0.1875 0.9375
v 0.9375 0.1875 -0.9375
v -0.9375 2 -0.9375
v -0.9375 2 0.9375
v -0.9375 0.1875 -0.9375
v -0.9375 0.1875 0.9375
vt 0.46875 1
vt 0.9375 1
vt 0.9375 0.546875
vt 0.46875 0.546875
vt 0.46875 1
vt 0.9375 1
vt 0.9375 0.546875
vt 0.46875 0.546875
vt 0.46875 1
vt 0.9375 1
vt 0.9375 0.546875
vt 0.46875 0.546875
vt 0.46875 1
vt 0.9375 1
vt 0.9375 0.546875
vt 0.46875 0.546875
vt 0.46875 0.53125
vt 0 0.53125
vt 0 1
vt 0.46875 1
vt 0.7890625 0.7578125
vt 0.5546875 0.7578125
vt 0.5546875 0.5234375
vt 0.7890625 0.5234375
vn 0 0 -1
vn 1 0 0
vn 0 0 1
vn -1 0 0
vn 0 1 0
vn 0 -1 0
usemtl m_9cdaa25b-650e-7854-3861-9f7e946b50c4
f 140/336/84 143/335/84 141/334/84 138/333/84
f 139/340/85 140/339/85 138/338/85 137/337/85
f 144/344/86 139/343/86 137/342/86 142/341/86
f 143/348/87 144/347/87 142/346/87 141/345/87
f 142/352/88 137/351/88 138/350/88 141/349/88
usemtl none
f 143/356/89 140/355/89 139/354/89 144/353/89