mtllib sawmill.mtl

o conveyors
v 3 0.125 0.0625
v 3 0.125 0.9375
v 3 0 0.9375
v 3 0 0.0625
v 2.3125 0.125 0.0625
v 2 0.125 0.0625
v 2 0.125 0.40625
v 2.3125 0.125 0.40625
v 1 0.125 0.0625
v 1 0.125 0.40625
v -2 0.125 0.0625
v -2 0 0.0625
v -2 0 0.9375
v -2 0.125 0.9375
v -1 0.125 0.0625
v -1 0.125 0.9375
v 0.6875 0.125 0.0625
v 0 0.125 0.0625
v 0 0.125 0.9375
v 0.6875 0.125 0.9375
v -1.9375 0 0.0625
v -1.9375 0 0.9375
v 2.9375 0 0.0625
v 2.9375 0 0.9375
v 0.6875 0.125 0.40625
v 2.3125 0.125 0.9375
v 2 0.125 0.59375
v 1 0.125 0.59375
v 1 0.125 0.9375
v 2 0.125 0.9375
v 2.3125 0.125 0.59375
v 0.6875 0.125 0.59375
vt 0.0625 1
vt 0.9375 1
vt 0.9375 0.875
vt 0.0625 0.875
vt 0.0625 0.6875
vt 0.0625 1
vt 0.40625 1
vt 0.40625 0.6875
vt 0.0625 0
vt 0.0625 1
vt 0.40625 1
vt 0.40625 0
vt 0.0625 0
vt 0.0625 0.125
vt 0.9375 0.125
vt 0.9375 0
vt 0.0625 0
vt 0.0625 1
vt 0.9375 1
vt 0.9375 0
vt 0.0625 0.3125
vt 0.0625 1
vt 0.9375 1
vt 0.9375 0.3125
vt 0.0625 0.9375
vt 0.0625 1
vt 0.9375 1
vt 0.9375 0.9375
vt 0.0625 1
vt 0.9375 1
vt 0.9375 0.9375
vt 0.0625 0.9375
vt 0.0625 0
vt 0.0625 0.296875
vt 0.40625 0.296875
vt 0.40625 0
vt 0.0625 0
vt 0.0625 0.6875
vt 0.9375 0.6875
vt 0.9375 0
vt 0.0625 0
vt 0.0625 1
vt 0.9375 1
vt 0.9375 0
vt 0.59375 0
vt 0.59375 1
vt 0.9375 1
vt 0.9375 0
vt 0.59375 0.6875
vt 0.59375 1
vt 0.9375 1
vt 0.9375 0.6875
vt 0.59375 0
vt 0.59375 0.296875
vt 0.9375 0.296875
vt 0.9375 0
vn 1 0 0
vn 0 1 0
vn 0 1 0
vn -1 0 0
vn 0 1 0
vn 0 1 0
vn 0 -1 0
vn 0 -1 0
vn 0 1 0
vn 0 1 0
vn 0 1 0
vn 0 1 0
vn 0 1 0
vn 0 1 0
usemtl m_88cc1a0e-ce25-b176-a77f-dcd8895f2652
f 1/1/1 2/2/1 3/3/1 4/4/1
f 5/5/2 6/6/2 7/7/2 8/8/2
f 6/9/3 9/10/3 10/11/3 7/12/3
f 11/13/4 12/14/4 13/15/4 14/16/4
f 15/17/5 11/18/5 14/19/5 16/20/5
f 17/21/6 18/22/6 19/23/6 20/24/6
f 12/25/7 21/26/7 22/27/7 13/28/7
f 23/29/8 4/30/8 3/31/8 24/32/8
f 9/33/9 17/34/9 25/35/9 10/36/9
f 1/37/10 5/38/10 26/39/10 2/40/10
f 18/41/11 15/42/11 16/43/11 19/44/11
f 27/45/12 28/46/12 29/47/12 30/48/12
f 31/49/13 27/50/13 30/51/13 26/52/13
f 28/53/14 32/54/14 20/55/14 29/56/14
o base
v 0.6875 0.125 0.59375
v -0.75 1 1.125
v -0.75 1 0.9375
v -0.75 -0.5 0.9375
v -0.75 -0.5 1.125
v 3 -0.5 -1
v 3 -1 -1
v -2 -1 -1
v -2 -0.5 -1
v 3 -0.5 2
v 3 -1 2
v -2 -1 2
v -2 -0.5 2
v 2 0 1
v 2 0 2
v 2 -0.5 2
v 2 -0.5 1
v 1 0 1
v 1 -0.5 1
v 1 -0.5 2
v 1 0 2
v 1 -1 2
v 2 -1 2
v -1 1 1.5
v -1 0 1.5
v -2 0 1.5
v -2 1 1.5
v -2 1 2
v -1 1 2
v -2 0 2
v -1 0 2
v 2 1 0
v 2 -0.5 0
v 2 -0.5 -1
v 2 1 -1
v -1 1 -1
v -1 -0.5 -1
v -1 1 0
v 2.8125 0 1
v 2.8125 0 0.8125
v 2.8125 -0.5 0.8125
v 2.8125 -0.5 1
v 3 0 1
v 3 -0.5 0.8125
v 3 0 0.8125
v -1.8125 -0.5 1
v -1.8125 0 1
v -2 0 0.8125
v -2 -0.5 0.8125
v -1.8125 -0.5 0.8125
v -1.8125 0 0.8125
v 3 0 0
v 3 0 0.1875
v 3 -0.5 0.1875
v 2.8125 -0.5 0
v 2.8125 0 0
v 2.8125 -0.5 0.1875
v 2.8125 0 0.1875
v -1.8125 0 0
v -1.8125 0 0.1875
v -1.8125 -0.5 0.1875
v -1.8125 -0.5 0
v -2 -0.5 0.1875
v -2 0 0.1875
v 1 0 1
v 1 -0.5 1
v 1.1875 -0.5 1
v 1.1875 0 1
v 0.9375 0 0.8125
v 0.9375 -0.5 0.8125
v 1.125 -0.5 0.8125
v 1.125 0 0.8125
v -1.25 0 1.875
v -1.25 -0.5 1.875
v -1.125 -0.5 1.875
v -1.125 0 1.875
v -1.125 0 1.625
v -1.125 -0.5 1.625
v -1.25 -0.5 1.625
v -1.25 0 1.625
v -1.875 0 1.875
v -1.875 -0.5 1.875
v -1.75 -0.5 1.875
v -1.75 0 1.875
v -1.75 0 1.625
v -1.75 -0.5 1.625
v -1.875 -0.5 1.625
v -1.875 0 1.625
v -0.75 1 1.125
v -0.75 0.125 1.125
v -0.125 0.125 1.125
v -0.125 1 1.125
v 3 0.1875 0.0625
v 3 0.1875 0
v 0 0.1875 0
v 0 0.1875 0.0625
v 3 0.1875 1
v 3 0.1875 0.9375
v 0 0.1875 0.9375
v 0 0.1875 1
v -0.125 1 0.9375
v -0.125 0.1875 0.9375
v -0.75 0.1875 0.9375
v -0.75 1 0.9375
v -0.6875 0.8125 0.0625
v -0.6875 0.25 0.0625
v -0.6875 0.25 0.0625
v -0.6875 0.8125 0.0625
v -0.6875 0.25 0.9375
v -0.6875 0.8125 0.9375
v -0.625 0.8125 0
v -0.625 0.125 0
v -0.625 0.125 1
v -0.625 0.8125 1
v -0.25 0.8125 0
v -0.25 0.8125 1
v -0.25 0.125 1
v -0.25 0.125 0
v 0.6875 0.125 0.40625
v 2.3125 0.125 0.59375
v 2.3125 0.125 0.40625
v -0.6875 0.8125 0.9375
v -0.6875 0.25 0.9375
v -0.75 0.875 1.75
v -0.75 0.125 1.75
v -0.125 0.125 1.75
v -0.125 0.875 1.75
v -0.75 0.875 1.125
v -0.125 0.875 1.125
v -0.8125 0.125 1.8125
v -0.8125 -0.625 1.8125
v -0.0625 -0.625 1.8125
v -0.0625 0.125 1.8125
v -0.8125 0.125 1.0625
v -0.0625 0.125 1.0625
v -0.0625 -0.625 1.0625
v -0.8125 -0.625 1.0625
v 1 -0.125 1.625
v -0.0625 -0.125 1.625
v -0.0625 -0.5 1.625
v 1 -0.5 1.625
v 1 -0.125 1.25
v -0.0625 -0.125 1.25
v 1 -0.5 1.25
v -0.0625 -0.5 1.25
v -0.125 -0.5 1.125
v -0.125 -0.5 0.9375
v -0.75 -0.5 1
v -0.125 1 0
v -0.125 1 0.0625
v -0.125 0.1875 0.0625
v -0.125 0.1875 0
v -0.75 1 0
v -0.75 0.1875 0
v -0.75 0.1875 0.0625
v -0.75 1 0.0625
v -2 0 1
v -2 -0.5 1
v -0.75 0 1
v 3 0 0
v 3 0 1
v 3 -0.5 1
v 3 -0.5 0
v -0.125 0 1
v -0.125 -0.5 1
v 1 -0.5 1
v 1 0 1
v -0.125 0.8125 0.0625
v -0.125 0.8125 0.9375
v -0.75 0.8125 0.9375
v -0.75 0.8125 0.0625
v -2 0.1875 0.0625
v -2 0 0.0625
v 0 0 0.0625
v -2 0.1875 1
v 0 0 1
v 0 0 0.9375
v 3 0 0.9375
v 0 0 0
v -2 0.1875 0.9375
v -2 0 0.9375
v -2 0.1875 0
v 3 0 0.0625
v 2 0 1
v 2 -0.5 1
v 3 -0.5 1
v 3 0 1
v 2 0 1
v 2 -0.5 1
v 1.875 0 1
v 1.875 -0.5 1
v 1.875 0 0.8125
v 1.875 -0.5 0.8125
v 2 -0.5 0.8125
v 2 0 0.8125
v 1.9990006249999999 0 0
v 3 0 0
v 3 -0.5 0
v 1.9990006249999999 -0.5 0
v 1.9990006249999999 0 0
v 1.9990006249999999 -0.5 0
v -2 0 0
v -2 -0.5 0
v -1 -0.5 0
v -0.1875 0.8125 0.0625
v -0.1875 0.25 0.0625
v -0.1875 0.25 0.9375
v -0.1875 0.8125 0.9375
v -0.1875 0.8125 0.0625
v -0.1875 0.25 0.0625
v -0.1875 0.8125 0.9375
v -0.1875 0.25 0.9375
v -1.0000000000000013 -7.494005416219807e-16 3.972516759986888e-16
v -1.0000000000000013 -0.5 3.972516759986888e-16
v -1.999999999999997 -0.5 -5.2562121322097255e-16
v -1.999999999999997 -7.494005416219807e-16 -5.2562121322097255e-16
vt 0.583333125 0.770833125
vt 0.583333125 0.270833125
vt 0.645833125 0.270833125
vt 0.645833125 0.770833125
vt 0 0.25
vt 0 0.1875
vt 0.625 0.1875
vt 0.625 0.25
vt 0.375 0.125
vt 0 0.125
vt 0 0.0625
vt 0.375 0.0625
vt 0.375 0.0625
vt 0.375 0.125
vt 0 0.125
vt 0 0.0625
vt 1 0.25
vt 0.875 0.25
vt 0.875 0.1875
vt 1 0.1875
vt 0.875 0.25
vt 0.875 0.1875
vt 1 0.1875
vt 1 0.25
vt 0.875 0.25
vt 0.875 0.125
vt 1 0.125
vt 1 0.25
vt 0 0.25
vt 0 0.1875
vt 0.375 0.1875
vt 0.375 0.25
vt 0.5 0.25
vt 0.5 0.1875
vt 0.625 0.1875
vt 0.625 0.25
vt 0 1
vt 0 0.625
vt 0.625 0.625
vt 0.625 1
vt 0.625 0.25
vt 0.625 0.625
vt 0 0.625
vt 0 0.25
vt 0.875 0.25
vt 0.875 0.125
vt 1 0.125
vt 1 0.25
vt 0.875 0.25
vt 0.875 0.1875
vt 1 0.1875
vt 1 0.25
vt 1 0.1875
vt 1 0.25
vt 0.875 0.25
vt 0.875 0.1875
vt 1 0.25
vt 0.9375 0.25
vt 0.9375 0.125
vt 1 0.125
vt 0.875 0.25
vt 0.875 0.125
vt 0.9375 0.125
vt 0.9375 0.25
vt 0.375 0.75
vt 0.375 0.625
vt 0.5 0.625
vt 0.5 0.75
vt 0 0.375
vt 0 0.1875
vt 0.125 0.1875
vt 0.125 0.375
vt 0 0.375
vt 0 0.1875
vt 0.125 0.1875
vt 0.125 0.375
vt 0.375 0.8125
vt 0.375 0.625
vt 0 0.625
vt 0 0.8125
vt 0.5 0.625
vt 0.523438125 0.625
vt 0.523438125 0.5625
vt 0.5 0.5625
vt 0.5 0.625
vt 0.5 0.5625
vt 0.523438125 0.5625
vt 0.523438125 0.625
vt 0.5 0.625
vt 0.5 0.5625
vt 0.523438125 0.5625
vt 0.523438125 0.625
vt 0.5 0.625
vt 0.523438125 0.625
vt 0.523438125 0.5625
vt 0.5 0.5625
vt 0.5 0.625
vt 0.5 0.5625
vt 0.523438125 0.5625
vt 0.523438125 0.625
vt 0.5 0.625
vt 0.5 0.5625
vt 0.523438125 0.5625
vt 0.523438125 0.625
vt 0.5 0.625
vt 0.523438125 0.625
vt 0.523438125 0.5625
vt 0.5 0.5625
vt 0.5 0.625
vt 0.523438125 0.625
vt 0.523438125 0.5625
vt 0.5 0.5625
vt 0.5 0.625
vt 0.5 0.5625
vt 0.523438125 0.5625
vt 0.523438125 0.625
vt 0.5 0.625
vt 0.523438125 0.625
vt 0.523438125 0.5625
vt 0.5 0.5625
vt 0.375 0.625
vt 0 0.625
vt 0 0.5
vt 0.375 0.5
vt 0.5 0.625
vt 0.5 0.5625
vt 0.523438125 0.5625
vt 0.523438125 0.625
vt 0.75 0.625
vt 0.75 0.5
vt 0.875 0.5
vt 0.875 0.625
vt 0.71875 0.5
vt 0.71875 0.5625
vt 0.703125 0.5625
vt 0.703125 0.5
vt 0.71875 0.5
vt 0.71875 0.5625
vt 0.703125 0.5625
vt 0.703125 0.5
vt 0.71875 0.5
vt 0.75 0.5
vt 0.75 0.5625
vt 0.71875 0.5625
vt 0.75 0.5
vt 0.75 0.5625
vt 0.71875 0.5625
vt 0.71875 0.5
vt 0.71875 0.5
vt 0.71875 0.5625
vt 0.703125 0.5625
vt 0.703125 0.5
vt 0.71875 0.5
vt 0.71875 0.5625
vt 0.703125 0.5625
vt 0.703125 0.5
vt 0.71875 0.5
vt 0.75 0.5
vt 0.75 0.5625
vt 0.71875 0.5625
vt 0.75 0.5
vt 0.75 0.5625
vt 0.71875 0.5625
vt 0.71875 0.5
vt 0.375 0.22916687499999966
vt 0.375 0.5208331250000001
vt 0.583333125 0.5208331250000001
vt 0.583333125 0.22916687499999966
vt 1 0.8125
vt 1 0.833333125
vt 0 0.833333125
vt 0 0.8125
vt 1 0.8125
vt 1 0.833333125
vt 0 0.833333125
vt 0 0.8125
vt 0.375 0.770833125
vt 0.375 0.5
vt 0.583333125 0.5
vt 0.583333125 0.770833125
vt 0.9375014583333336 0.7708333333333333
vt 0.9375014583333336 0.5833345833333333
vt 0.937501041666667 0.5833345833333333
vt 0.937501041666667 0.7708333333333333
vt 0.6666677083333332 0.7708333333333333
vt 0.6666677083333332 0.5833345833333334
vt 0.9583333333333333 0.5833345833333334
vt 0.9583333333333333 0.7708333333333333
vt 0.666666875 0.333333125
vt 0.666666875 0.10416687499999999
vt 1 0.10416687499999999
vt 1 0.333333125
vt 0.666666875 0.333333125
vt 1 0.333333125
vt 1 0.10416687499999999
vt 0.666666875 0.10416687499999999
vt 0 0.0625
vt 0 0
vt 0.541666875 0
vt 0.541666875 0.0625
vt 0.9583333333333337 0.7708333333333333
vt 0.9583328846152614 0.7708333333333333
vt 0.9583328846152614 0.5833345833333333
vt 0.9583333333333337 0.5833345833333333
vt 0.6666677083333333 0.7708333333333333
vt 0.9583333333333333 0.7708333333333333
vt 0.9583333333333333 0.5833345833333334
vt 0.6666677083333333 0.5833345833333334
vt 0.125 0.520833125
vt 0.125 0.270833125
vt 0.333333125 0.270833125
vt 0.333333125 0.520833125
vt 0.125 0.270833125
vt 0.125 0.0625
vt 0.333333125 0.0625
vt 0.333333125 0.270833125
vt 0.333333125 0.520833125
vt 0.125 0.520833125
vt 0.125 0.270833125
vt 0.333333125 0.270833125
vt 0.125 0.520833125
vt 0.125 0.270833125
vt 0.333333125 0.270833125
vt 0.333333125 0.520833125
vt 0.125 0.770833125
vt 0.125 0.520833125
vt 0.375 0.520833125
vt 0.375 0.770833125
vt 0.125 0.770833125
vt 0.125 0.520833125
vt 0.375 0.520833125
vt 0.375 0.770833125
vt 0.375 0.770833125
vt 0.125 0.770833125
vt 0.125 0.520833125
vt 0.375 0.520833125
vt 0.125 0.770833125
vt 0.125 0.520833125
vt 0.375 0.520833125
vt 0.375 0.770833125
vt 0.125 0.770833125
vt 0.375 0.770833125
vt 0.375 0.520833125
vt 0.125 0.520833125
vt 0.125 0.416666875
vt 0.125 0.770833125
vt 0 0.770833125
vt 0 0.416666875
vt 0 0.416666875
vt 0 0.770833125
vt 0.125 0.770833125
vt 0.125 0.416666875
vt 0.125 0.416666875
vt 0 0.416666875
vt 0 0.770833125
vt 0.125 0.770833125
vt 0.583333125 0.770833125
vt 0.645833125 0.770833125
vt 0.645833125 0.270833125
vt 0.583333125 0.270833125
vt 0.604166875 0.770833125
vt 0.583333125 0.770833125
vt 0.583333125 0.49999979166666664
vt 0.604166875 0.49999979166666664
vt 0.604166875 0.770833125
vt 0.604166875 0.49999979166666664
vt 0.583333125 0.49999979166666664
vt 0.583333125 0.770833125
vt 0.375 0.770833125
vt 0.583333125 0.770833125
vt 0.583333125 0.5
vt 0.375 0.5
vt 0 1
vt 0 0.833333125
vt 0.41666687499999994 0.833333125
vt 0.41666687499999994 1
vt 0.33333312500000006 1
vt 0.33333312500000006 0.833333125
vt 0 0.833333125
vt 0 1
vt 3.469446951953614e-18 1
vt 0.33333312500000006 1
vt 0.33333312500000006 0.833333125
vt 3.469446951953614e-18 0.833333125
vt 0.2916666666666667 1
vt 0.2916666666666667 0.833333125
vt 0.6666666666666666 0.833333125
vt 0.6666666666666666 1
vt 0.375 0.583333125
vt 0.375 0.291666875
vt 0.583333125 0.291666875
vt 0.583333125 0.583333125
vt 0.645833125 0.5625
vt 0.583333125 0.5625
vt 0.583333125 0.270833125
vt 0.645833125 0.270833125
vt 0.645833125 0.270833125
vt 0.645833125 0.5625
vt 0.583333125 0.5625
vt 0.583333125 0.270833125
vt 1 0.833333125
vt 1 0.770833125
vt 0.333333125 0.770833125
vt 0.333333125 0.833333125
vt 1 0.833333125
vt 1 0.770833125
vt 0.333333125 0.770833125
vt 0.333333125 0.833333125
vt 0.375 0.291666875
vt 0.375 0.229166875
vt 0.583333125 0.229166875
vt 0.583333125 0.291666875
vt 0.375 0.583333125
vt 0.375 0.291666875
vt 0.583333125 0.291666875
vt 0.583333125 0.583333125
vt 0.375 0.604166875
vt 0.375 0.583333125
vt 0.583333125 0.583333125
vt 0.583333125 0.604166875
vt 1 0.8125
vt 0 0.8125
vt 0 0.833333125
vt 1 0.833333125
vt 0.333333125 0.8125
vt 1 0.8125
vt 1 0.833333125
vt 0.333333125 0.833333125
vt 1 0.833333125
vt 0.333333125 0.833333125
vt 0.333333125 0.770833125
vt 1 0.770833125
vt 1 0.833333125
vt 0.333333125 0.833333125
vt 0.333333125 0.770833125
vt 1 0.770833125
vt 0.333333125 0.8125
vt 1 0.8125
vt 1 0.833333125
vt 0.333333125 0.833333125
vt 1 0.8125
vt 0 0.8125
vt 0 0.833333125
vt 1 0.833333125
vt 0 0.833333125
vt 1 0.833333125
vt 1 0.770833125
vt 0 0.770833125
vt 0 0.833333125
vt 1 0.833333125
vt 1 0.770833125
vt 0 0.770833125
vt 0 0.833333125
vt 0 0.770833125
vt 1 0.770833125
vt 1 0.833333125
vt 0 0.833333125
vt 0 0.770833125
vt 1 0.770833125
vt 1 0.833333125
vt 0.020833125 0.833333125
vt 0.020833125 0.770833125
vt 0 0.770833125
vt 0 0.833333125
vt 0.333333125 0.8125
vt 0.333333125 0.833333125
vt 1 0.833333125
vt 1 0.8125
vt 0.020833125 0.833333125
vt 0 0.833333125
vt 0 0.770833125
vt 0.020833125 0.770833125
vt 0.020833125 0.833333125
vt 0.020833125 0.770833125
vt 0 0.770833125
vt 0 0.833333125
vt 0.333333125 0.8125
vt 0.333333125 0.833333125
vt 1 0.833333125
vt 1 0.8125
vt 0.020833125 0.833333125
vt 0 0.833333125
vt 0 0.770833125
vt 0.020833125 0.770833125
vt 0.3333333333333333 1
vt 0.3333333333333333 0.833333125
vt 0.6666666666666669 0.833333125
vt 0.6666666666666669 1
vt 0.5 0.625
vt 0.5 0.5625
vt 0.523438125 0.5625
vt 0.523438125 0.625
vt 0.5 0.625
vt 0.523438125 0.625
vt 0.523438125 0.5625
vt 0.5 0.5625
vt 0.5 0.625
vt 0.5 0.5625
vt 0.523438125 0.5625
vt 0.523438125 0.625
vt 0.375 1
vt 0 1
vt 0 0.8125
vt 0.375 0.8125
vt 0.3333335416666667 1
vt 0 1
vt 0 0.833333125
vt 0.3333335416666667 0.833333125
vt 1 1
vt 0 1
vt 0 0.833333125
vt 1 0.833333125
vt 0.9375002083333337 0.7708333333333333
vt 0.9375002083333337 0.5833345833333334
vt 0.9374997916666671 0.5833345833333334
vt 0.9374997916666671 0.7708333333333333
vt 0.6666664583333333 0.7708333333333333
vt 0.6666664583333333 0.5833345833333332
vt 0.9583320833333333 0.5833345833333332
vt 0.9583320833333333 0.7708333333333333
vt 0.9583320833333336 0.7708333333333333
vt 0.9583316346152617 0.7708333333333333
vt 0.9583316346152617 0.5833345833333333
vt 0.9583320833333336 0.5833345833333333
vt 0.6666664583333333 0.7708333333333333
vt 0.9583320833333333 0.7708333333333333
vt 0.9583320833333333 0.5833345833333337
vt 0.6666664583333333 0.5833345833333337
vt 0.33333312500000006 1
vt 0.33333312500000006 0.833333125
vt 0 0.833333125
vt 0 1
vn -1 0 0
vn 0 0 -1
vn 1 0 0
vn -1 0 0
vn 1 0 0
vn -1 0 0
vn 0 1 0
vn 0 0 1
vn 0 0 1
vn 0 1 0
vn 0 -1 0
vn 0 0 -1
vn 0 1 0
vn 0 -1 0
vn 1 0 0
vn -1 0 0
vn 0 0 1
vn 1 0 0
vn -1 0 0
vn 0 0 1
vn -1 0 0
vn 1 0 0
vn -1 0 0
vn 1 0 0
vn 0 0 -1
vn 0 0 1
vn 0 0 -1
vn 0 0 1
vn 0 0 1
vn -0.948683298050514 0 0.316227766016838
vn 0 1 0
vn 0.948683298050514 0 -0.316227766016838
vn 0 0 1
vn 0 0 1
vn 0 0 -1
vn 1 0 0
vn -1 0 0
vn 0 0 1
vn 0 0 -1
vn 1 0 0
vn -1 0 0
vn 0 0 1
vn 0 1 0
vn 0 1 0
vn 0 0 -1
vn 0 0 0
vn -1 0 0
vn -1 0 0
vn 1 0 0
vn 0 1 0
vn 0 0 0
vn 1 0 0
vn 0 0 1
vn 0 1 0
vn 1 0 0
vn -1 0 0
vn 0 0 1
vn 0 1 0
vn 1 0 0
vn -1 0 0
vn 0 0 -1
vn 0 0 1
vn 0 1 0
vn 0 0 -1
vn 1 0 0
vn 1 0 0
vn -1 0 0
vn 0 0 1
vn 0 0 1
vn -1 0 0
vn 1 0 0
vn 0 0 1
vn 0 -1 0
vn 1 0 0
vn -1 0 0
vn 0 0 1
vn 0 0 1
vn 0 1 0
vn 0 1 0
vn 0 1 0
vn 0 -1 0
vn 0 -1 0
vn 0 0 -1
vn 0 0 -1
vn 0 -1 0
vn 0 -1 0
vn 0 0 -1
vn 0 0 -1
vn 0 0 1
vn 0 0 1
vn 1 0 0
vn 0 1 0
vn -1 0 0
vn 1 0 0
vn 0 1 0
vn -1 0 0
vn 0 0 1
vn 0 0 1
vn -1 0 0
vn 1 0 0
vn 0 0 -1
vn 0 0 -1
vn 0 0 0
vn 0 0 0
vn -1 0 0
vn 0 0 0
vn 1 0 0
vn 9.228728892196655e-16 0 -1
usemtl m_b9888ffd-0986-f103-76e4-3f8a052b8185
f 35/57/15 36/58/15 37/59/15 34/60/15
usemtl m_bef677f2-1583-89ee-5944-8b923b352569
f 38/61/16 39/62/16 40/63/16 41/64/16
f 38/65/17 42/66/17 43/67/17 39/68/17
f 44/69/18 45/70/18 41/71/18 40/72/18
f 46/73/19 47/74/19 48/75/19 49/76/19
f 50/77/20 51/78/20 52/79/20 53/80/20
f 50/81/21 53/82/21 47/83/21 46/84/21
f 45/85/22 44/86/22 54/87/22 52/88/22
f 48/89/23 55/90/23 43/91/23 42/92/23
f 41/93/24 45/94/24 42/95/24 38/96/24
f 44/97/25 40/98/25 39/99/25 43/100/25
f 56/101/26 57/102/26 58/103/26 59/104/26
f 59/105/27 60/106/27 61/107/27 56/108/27
f 62/109/28 58/110/28 57/111/28 63/112/28
f 56/113/29 61/114/29 63/115/29 57/116/29
f 59/117/30 58/118/30 62/119/30 60/120/30
usemtl m_351c3b1e-9579-5681-c798-a63e8e2bc0f0
f 53/121/31 54/122/31 55/123/31 47/124/31
f 64/125/32 65/126/32 66/127/32 67/128/32
f 68/129/33 69/130/33 236/131/33 70/132/33
f 70/133/34 236/134/34 65/135/34 64/136/34
f 71/137/35 72/138/35 73/139/35 74/140/35
f 79/141/36 78/142/36 82/143/36 83/144/36
f 88/145/37 87/146/37 89/147/37 90/148/37
f 91/149/38 92/150/38 93/151/38 94/152/38
f 83/153/39 82/154/39 81/155/39 80/156/39
f 96/157/40 95/158/40 93/159/40 92/160/40
f 72/161/41 77/162/41 76/163/41 73/164/41
f 85/165/42 90/166/42 89/167/42 86/168/42
f 97/169/43 98/170/43 99/171/43 100/172/43
f 97/173/44 101/174/44 102/175/44 98/176/44
f 70/177/45 64/178/45 67/179/45 68/180/45
f 100/181/46 99/182/46 103/183/46 104/184/46
f 60/185/47 62/186/47 63/187/47 61/188/47
f 105/189/48 106/190/48 107/191/48 108/192/48
f 109/193/49 110/194/49 111/195/49 112/196/49
f 109/197/50 108/198/50 107/199/50 110/200/50
f 112/201/51 111/202/51 106/203/51 105/204/51
f 113/205/52 114/206/52 115/207/52 116/208/52
f 117/209/53 118/210/53 119/211/53 120/212/53
f 117/213/54 116/214/54 115/215/54 118/216/54
f 120/217/55 119/218/55 114/219/55 113/220/55
usemtl m_b9888ffd-0986-f103-76e4-3f8a052b8185
f 121/221/56 122/222/56 123/223/56 124/224/56
f 125/225/57 126/226/57 127/227/57 128/228/57
f 129/229/58 130/230/58 131/231/58 132/232/58
f 133/233/59 134/234/59 135/235/59 136/236/59
f 137/237/60 138/238/60 139/239/60 140/240/60
f 140/241/61 139/242/61 141/243/61 142/244/61
f 143/245/62 144/246/62 145/247/62 146/248/62
f 147/249/63 148/250/63 149/251/63 150/252/63
f 151/253/64 33/254/64 152/255/64 153/256/64
f 154/257/65 142/258/65 141/259/65 155/260/65
f 137/261/66 154/262/66 155/263/66 138/264/66
f 156/265/67 157/266/67 158/267/67 159/268/67
f 160/269/68 156/270/68 159/271/68 161/272/68
f 161/273/69 159/274/69 158/275/69 123/276/69
f 160/277/70 122/278/70 157/279/70 156/280/70
f 162/281/71 163/282/71 164/283/71 165/284/71
f 166/285/72 162/286/72 165/287/72 167/288/72
f 167/289/73 165/290/73 164/291/73 168/292/73
f 166/293/74 169/294/74 163/295/74 162/296/74
f 166/297/75 167/298/75 168/299/75 169/300/75
f 170/301/76 171/302/76 172/303/76 173/304/76
f 174/305/77 175/306/77 171/307/77 170/308/77
f 174/309/78 176/310/78 177/311/78 175/312/78
f 133/313/79 124/314/79 178/315/79 179/316/79
f 181/317/80 182/318/80 183/319/80 184/320/80
f 185/321/81 186/322/81 187/323/81 188/324/81
f 182/325/82 188/326/82 187/327/82 183/328/82
f 189/329/83 190/330/83 180/331/83 191/332/83
f 234/333/84 235/334/84 190/335/84 189/336/84
f 192/337/85 193/338/85 194/339/85 195/340/85
f 196/341/86 197/342/86 198/343/86 199/344/86
f 200/345/87 201/346/87 202/347/87 203/348/87
f 200/349/88 182/350/88 133/351/88 201/352/88
f 203/353/89 202/354/89 136/355/89 188/356/89
f 204/357/90 205/358/90 206/359/90 128/360/90
f 207/361/91 189/362/91 208/363/91 132/364/91
f 136/365/92 121/366/92 124/367/92 133/368/92
f 188/369/93 136/370/93 133/371/93 182/372/93
f 185/373/94 188/374/94 182/375/94 181/376/94
f 75/377/95 208/378/95 209/379/95 210/380/95
f 206/381/96 205/382/96 234/383/96 211/384/96
f 212/385/97 131/386/97 209/387/97 213/388/97
f 214/389/98 127/390/98 211/391/98 234/392/98
f 208/393/99 189/394/99 213/395/99 209/396/99
f 215/397/100 206/398/100 211/399/100 84/400/100
f 131/401/101 130/402/101 210/403/101 209/404/101
f 127/405/102 126/406/102 84/407/102 211/408/102
f 132/409/103 208/410/103 75/411/103 129/412/103
f 128/413/104 206/414/104 215/415/104 125/416/104
f 129/417/105 75/418/105 210/419/105 130/420/105
f 132/421/106 131/422/106 212/423/106 207/424/106
f 207/425/107 212/426/107 213/427/107 189/428/107
f 125/429/108 215/430/108 84/431/108 126/432/108
f 128/433/109 127/434/109 214/435/109 204/436/109
f 204/437/110 214/438/110 234/439/110 205/440/110
f 216/441/111 217/442/111 218/443/111 219/444/111
usemtl m_351c3b1e-9579-5681-c798-a63e8e2bc0f0
f 222/445/112 223/446/112 221/447/112 220/448/112
f 222/449/113 224/450/113 225/451/113 223/452/113
f 220/453/114 221/454/114 226/455/114 227/456/114
f 68/457/115 67/458/115 66/459/115 69/460/115
usemtl m_b9888ffd-0986-f103-76e4-3f8a052b8185
f 228/461/116 229/462/116 230/463/116 231/464/116
f 232/465/117 228/466/117 231/467/117 233/468/117
f 241/469/118 242/470/118 238/471/118 237/472/118
f 237/473/119 238/474/119 239/475/119 240/476/119
f 243/477/120 240/478/120 239/479/120 244/480/120
f 241/481/121 243/482/121 244/483/121 242/484/121
f 245/485/122 246/486/122 247/487/122 248/488/122